SplineFontDB: 3.0
FontName: Pfennig
FullName: Pfennig
FamilyName: Pfennig
Weight: Medium
Copyright: Copyright 2009-2012 by Daniel Johnson. Released under the terms of the SIL Open Font License.
UComments: "2009-7-16: Created." 
Version: 20120410
ItalicAngle: 0
UnderlinePosition: -204
UnderlineWidth: 102
Ascent: 1638
Descent: 410
LayerCount: 2
Layer: 0 0 "Back"  1
Layer: 1 1 "Fore"  0
NeedsXUIDChange: 1
XUID: [1021 1003 1579404955 6722392]
FSType: 0
OS2Version: 0
OS2_WeightWidthSlopeOnly: 0
OS2_UseTypoMetrics: 1
CreationTime: 1247766582
ModificationTime: 1334085823
PfmFamily: 33
TTFWeight: 500
TTFWidth: 5
LineGap: 0
VLineGap: 0
OS2TypoAscent: 2174
OS2TypoAOffset: 0
OS2TypoDescent: -531
OS2TypoDOffset: 0
OS2TypoLinegap: 0
OS2WinAscent: 2174
OS2WinAOffset: 0
OS2WinDescent: 531
OS2WinDOffset: 0
HheadAscent: 2174
HheadAOffset: 0
HheadDescent: -531
HheadDOffset: 0
OS2FamilyClass: 2050
OS2Vendor: 'PfEd'
Lookup: 1 0 0 "'ss01' Style Set 1 in Latin"  {"'ss01' Style Set 1 in Latin-1"  } ['ss01' ('latn' <'dflt' > ) ]
Lookup: 1 0 0 "'locl' Localized Forms for Sami"  {"'locl' Localized Forms for Sami-1"  } ['locl' ('latn' <'LSM ' > 'latn' <'NSM ' > 'latn' <'SKS ' > ) ]
Lookup: 4 0 1 "'liga' Standard Ligatures in Latin lookup 0"  {"'liga' Standard Ligatures in Latin lookup 0-1"  } ['liga' ('DFLT' <'dflt' > 'latn' <'dflt' > ) ]
Lookup: 262 0 0 "'mkmk' Mark to Mark lookup 2"  {"'mkmk' Mark to Mark lookup 2-1"  } ['mkmk' ('DFLT' <'dflt' > 'cyrl' <'dflt' > 'latn' <'LSM ' 'NSM ' 'SKS ' 'dflt' > ) ]
Lookup: 258 0 0 "'kern' Horizontal Kerning lookup 1"  {"'kern' Horizontal Kerning lookup 1-1"  } ['kern' ('DFLT' <'dflt' > 'cyrl' <'dflt' > 'latn' <'dflt' > ) ]
Lookup: 260 0 0 "'mark' Mark Positioning in Latin lookup 0"  {"'mark' Mark Positioning in Latin lookup 0-1"  } ['mark' ('DFLT' <'dflt' > 'latn' <'dflt' > ) ]
MarkAttachClasses: 1
DEI: 91125
KernClass2: 9 9 "'kern' Horizontal Kerning lookup 1-1" 

StartChar: d
Encoding: 100 100 0
Width: 1089
VWidth: 0
Flags: W
HStem: -20 102<403 666> 0 43G<780 944> 819 102<403 659> 1311 41G<780 944>
VStem: 90 164<258 643> 780 164<0 47 208 666 823 1352>
AnchorPoint: "horn" 885 1085 basechar 0
AnchorPoint: "ogonek" 864 0 basechar 0
AnchorPoint: "cedilla" 512 0 basechar 0
AnchorPoint: "bottom" 514 0 basechar 0
AnchorPoint: "top" 532 1004 basechar 0
LayerCount: 2
Fore
SplineSet
780 823 m 1,0,-1
 780 1352 l 1,1,-1
 944 1352 l 1,2,-1
 944 0 l 1,3,-1
 780 0 l 1,4,-1
 780 47 l 1,5,6
 675 -20 675 -20 504 -20 c 0,7,8
 314 -20 314 -20 200 120 c 0,9,10
 90 256 90 256 90 451 c 0,11,12
 90 580 90 580 139.5 686.5 c 128,-1,13
 189 793 189 793 285 857.5 c 128,-1,14
 381 922 381 922 520.5 922 c 128,-1,15
 660 922 660 922 780 823 c 1,0,-1
780 398 m 0,16,17
 780 476 780 476 768 546 c 128,-1,18
 756 616 756 616 729.5 679.5 c 128,-1,19
 703 743 703 743 653 781 c 128,-1,20
 603 819 603 819 527.5 819 c 128,-1,21
 452 819 452 819 386 762.5 c 128,-1,22
 320 706 320 706 287 623 c 128,-1,23
 254 540 254 540 254 451 c 128,-1,24
 254 362 254 362 287 278.5 c 128,-1,25
 320 195 320 195 386 138.5 c 128,-1,26
 452 82 452 82 535 82 c 0,27,28
 628 82 628 82 701 157 c 0,29,30
 780 238 780 238 780 398 c 0,16,17
EndSplineSet
Validated: 1
EndChar

StartChar: a
Encoding: 97 97 1
Width: 974
VWidth: 0
Flags: W
HStem: -20 102<356 691> 0 43G<694 858> 520 102<343 688> 819 102<304 636>
VStem: 94 164<178 440> 694 164<0 16 107 507 606 754>
AnchorPoint: "horn" 811 717 basechar 0
AnchorPoint: "cedilla" 483 0 basechar 0
AnchorPoint: "bottom" 473 0 basechar 0
AnchorPoint: "ogonek" 846 0 basechar 0
AnchorPoint: "top" 489 1004 basechar 0
LayerCount: 2
Fore
SplineSet
115 829 m 1,0,1
 293 922 293 922 438 922 c 0,2,3
 626 922 626 922 708 881 c 0,4,5
 756 857 756 857 784 822.5 c 128,-1,6
 812 788 812 788 830 727 c 0,7,8
 858 628 858 628 858 414 c 2,9,-1
 858 0 l 1,10,-1
 694 0 l 1,11,-1
 694 16 l 1,12,13
 581 -20 581 -20 471 -20 c 0,14,15
 297 -20 297 -20 195.5 58.5 c 128,-1,16
 94 137 94 137 94 311 c 0,17,18
 94 508 94 508 268 584 c 0,19,20
 357 624 357 624 463 624 c 0,21,-1
 466 624 l 0,22,23
 574 624 574 624 690 606 c 1,24,25
 684 726 684 726 638.5 772.5 c 128,-1,26
 593 819 593 819 473.5 819 c 128,-1,27
 354 819 354 819 217 723 c 1,28,-1
 115 829 l 1,0,1
694 125 m 1,29,-1
 694 498 l 1,30,31
 601 520 601 520 501 520 c 128,-1,32
 401 520 401 520 329.5 466 c 128,-1,33
 258 412 258 412 258 310 c 128,-1,34
 258 208 258 208 331 145 c 128,-1,35
 404 82 404 82 504 82 c 128,-1,36
 604 82 604 82 694 125 c 1,29,-1
EndSplineSet
Validated: 1
EndChar

StartChar: h
Encoding: 104 104 2
Width: 1087
VWidth: 0
Flags: W
HStem: 0 43G<147 311 784 948> 819 102<385 697> 1311 41G<147 311>
VStem: 147 164<0 756 870 1352> 784 164<0 717>
AnchorPoint: "horn" 856 717 basechar 0
AnchorPoint: "ogonek" 860 0 basechar 0
AnchorPoint: "cedilla" 532 0 basechar 0
AnchorPoint: "bottom" 532 0 basechar 0
AnchorPoint: "top" 387 1434 basechar 0
LayerCount: 2
Fore
SplineSet
311 723 m 1,0,-1
 311 0 l 1,1,-1
 147 0 l 1,2,-1
 147 1352 l 1,3,-1
 311 1352 l 1,4,-1
 311 870 l 1,5,6
 410 922 410 922 520 922 c 0,7,8
 736 922 736 922 842 816 c 128,-1,9
 948 710 948 710 948 492 c 2,10,-1
 948 0 l 1,11,-1
 784 0 l 1,12,-1
 784 467 l 2,13,14
 784 677 784 677 720 751 c 0,15,16
 662 819 662 819 542 819 c 128,-1,17
 422 819 422 819 311 723 c 1,0,-1
EndSplineSet
Validated: 1
EndChar

StartChar: e
Encoding: 101 101 3
Width: 1028
VWidth: 0
Flags: W
HStem: -20 102<418 733> 451 102<264 770> 819 102<404 661>
VStem: 90 164<256 451>
AnchorPoint: "horn" 840 717 basechar 0
AnchorPoint: "cedilla" 569 0 basechar 0
AnchorPoint: "bottom" 539 0 basechar 0
AnchorPoint: "ogonek" 588 0 basechar 0
AnchorPoint: "top" 530 1004 basechar 0
LayerCount: 2
Fore
SplineSet
932 158 m 1,0,1
 791 -20 791 -20 553 -20 c 0,2,3
 351 -20 351 -20 220.5 109.5 c 128,-1,4
 90 239 90 239 90 451 c 0,5,6
 90 555 90 555 127 645 c 0,7,8
 164 734 164 734 224 794 c 0,9,10
 353 922 353 922 512 922 c 0,11,12
 615 922 615 922 699 880 c 0,13,14
 782 838 782 838 834 770 c 0,15,16
 942 627 942 627 942 451 c 1,17,-1
 254 451 l 1,18,19
 254 283 254 283 345.5 182.5 c 128,-1,20
 437 82 437 82 585 82 c 128,-1,21
 733 82 733 82 809 205 c 1,22,-1
 932 158 l 1,0,1
264 553 m 1,23,-1
 770 553 l 1,24,25
 752 673 752 673 694 746 c 128,-1,26
 636 819 636 819 540 819 c 128,-1,27
 444 819 444 819 367 747 c 128,-1,28
 290 675 290 675 264 553 c 1,23,-1
EndSplineSet
Validated: 1
EndChar

StartChar: n
Encoding: 110 110 4
Width: 1087
VWidth: 0
Flags: W
HStem: 0 43G<147 311 784 948> 819 102<385 697> 860 41G<147 311>
VStem: 147 164<0 756 870 901> 784 164<0 717>
AnchorPoint: "horn" 856 717 basechar 0
AnchorPoint: "ogonek" 877 0 basechar 0
AnchorPoint: "bottom" 541 0 basechar 0
AnchorPoint: "cedilla" 541 0 basechar 0
AnchorPoint: "top" 549 1004 basechar 0
LayerCount: 2
Fore
SplineSet
311 723 m 1,0,-1
 311 0 l 1,1,-1
 147 0 l 1,2,-1
 147 901 l 1,3,-1
 311 901 l 1,4,-1
 311 870 l 1,5,6
 410 922 410 922 520 922 c 0,7,8
 736 922 736 922 842 816 c 128,-1,9
 948 710 948 710 948 492 c 2,10,-1
 948 0 l 1,11,-1
 784 0 l 1,12,-1
 784 467 l 2,13,14
 784 677 784 677 720 751 c 0,15,16
 662 819 662 819 542 819 c 128,-1,17
 422 819 422 819 311 723 c 1,0,-1
EndSplineSet
Validated: 1
EndChar

StartChar: c
Encoding: 99 99 5
Width: 1017
VWidth: 0
Flags: W
HStem: -20 102<418 733> 819 102<404 664>
VStem: 90 164<253 648>
AnchorPoint: "horn" 840 717 basechar 0
AnchorPoint: "ogonek" 571 0 basechar 0
AnchorPoint: "bottom" 569 0 basechar 0
AnchorPoint: "cedilla" 569 0 basechar 0
AnchorPoint: "top" 532 1004 basechar 0
LayerCount: 2
Fore
SplineSet
932 158 m 1,0,1
 791 -20 791 -20 553 -20 c 0,2,3
 351 -20 351 -20 220.5 109.5 c 128,-1,4
 90 239 90 239 90 451 c 0,5,6
 90 555 90 555 127 645 c 0,7,8
 164 734 164 734 224 794 c 0,9,10
 353 922 353 922 499.5 922 c 128,-1,11
 646 922 646 922 743 854.5 c 128,-1,12
 840 787 840 787 893 676 c 1,13,-1
 760 608 l 1,14,15
 734 705 734 705 679 762 c 128,-1,16
 624 819 624 819 543 819 c 0,17,18
 423 819 423 819 338.5 717 c 128,-1,19
 254 615 254 615 254 449 c 128,-1,20
 254 283 254 283 345.5 182.5 c 128,-1,21
 437 82 437 82 585 82 c 128,-1,22
 733 82 733 82 809 205 c 1,23,-1
 932 158 l 1,0,1
EndSplineSet
Validated: 1
EndChar

StartChar: b
Encoding: 98 98 6
Width: 1079
VWidth: 0
Flags: W
HStem: -20 102<387 701> 819 102<430 702> 1311 41G<139 303>
VStem: 139 164<166 678 852 1352> 829 164<237 664>
AnchorPoint: "ogonek" 545 0 basechar 0
AnchorPoint: "horn" 901 717 basechar 0
AnchorPoint: "cedilla" 545 0 basechar 0
AnchorPoint: "bottom" 551 0 basechar 0
AnchorPoint: "top" 578 1004 basechar 0
LayerCount: 2
Fore
SplineSet
303 852 m 1,0,1
 409 922 409 922 538.5 922 c 128,-1,2
 668 922 668 922 756 885 c 128,-1,3
 844 848 844 848 894.5 782 c 128,-1,4
 945 716 945 716 969 633.5 c 128,-1,5
 993 551 993 551 993 451 c 128,-1,6
 993 351 993 351 968.5 268.5 c 128,-1,7
 944 186 944 186 893 120 c 0,8,9
 785 -20 785 -20 549 -20 c 1,10,11
 320 -20 320 -20 224 86 c 0,12,13
 140 180 140 180 139 369 c 2,14,-1
 139 1352 l 1,15,-1
 303 1352 l 1,16,-1
 303 852 l 1,0,1
303 471 m 2,17,-1
 303 303 l 2,18,19
 304 114 304 114 498 87 c 0,20,21
 534 82 534 82 588.5 82 c 128,-1,22
 643 82 643 82 692 115 c 128,-1,23
 741 148 741 148 770 202 c 128,-1,24
 799 256 799 256 814 319.5 c 128,-1,25
 829 383 829 383 829 451 c 128,-1,26
 829 519 829 519 814 582.5 c 128,-1,27
 799 646 799 646 770 700 c 0,28,29
 706 819 706 819 580 819 c 0,30,31
 489 818 489 818 425 770 c 0,32,33
 303 678 303 678 303 471 c 2,17,-1
EndSplineSet
Validated: 1
EndChar

StartChar: s
Encoding: 115 115 7
Width: 897
VWidth: 0
Flags: W
HStem: -20 102<276 603> 819 102<316 571>
VStem: 125 164<595 792> 651 164<128 358>
AnchorPoint: "horn" 647 793 basechar 0
AnchorPoint: "ogonek" 455 0 basechar 0
AnchorPoint: "bottom" 449 0 basechar 0
AnchorPoint: "cedilla" 449 0 basechar 0
AnchorPoint: "top" 416 1004 basechar 0
LayerCount: 2
Fore
SplineSet
756 795 m 1,0,-1
 637 723 l 1,1,2
 555 795 555 795 536.5 800 c 128,-1,3
 518 805 518 805 500 811 c 0,4,5
 477 819 477 819 418 819 c 128,-1,6
 359 819 359 819 324 785 c 128,-1,7
 289 751 289 751 289 688 c 0,8,9
 289 576 289 576 453 547 c 1,10,11
 815 480 815 480 815 262 c 0,12,13
 815 121 815 121 710 50.5 c 128,-1,14
 605 -20 605 -20 434 -20 c 0,15,16
 320 -20 320 -20 260 10 c 128,-1,17
 200 40 200 40 174.5 57 c 128,-1,18
 149 74 149 74 88 117 c 1,19,-1
 176 193 l 1,20,21
 267 129 267 129 315.5 105.5 c 128,-1,22
 364 82 364 82 464 82 c 128,-1,23
 564 82 564 82 607.5 128 c 128,-1,24
 651 174 651 174 651 262 c 0,25,26
 651 388 651 388 434 424 c 1,27,28
 284 452 284 452 204.5 520.5 c 128,-1,29
 125 589 125 589 125 684 c 128,-1,30
 125 779 125 779 197 850.5 c 128,-1,31
 269 922 269 922 383 922 c 128,-1,32
 497 922 497 922 580.5 891.5 c 128,-1,33
 664 861 664 861 756 795 c 1,0,-1
EndSplineSet
Validated: 1
EndChar

StartChar: i
Encoding: 105 105 8
Width: 407
VWidth: 0
Flags: W
HStem: 0 43G<123 287> 860 41G<123 287> 1085 164<123 287>
VStem: 123 164<0 901 1085 1249>
AnchorPoint: "top" 205 1167 basechar 0
AnchorPoint: "horn" 250 717 basechar 0
AnchorPoint: "cedilla" 209 0 basechar 0
AnchorPoint: "bottom" 203 0 basechar 0
AnchorPoint: "ogonek" 279 0 basechar 0
LayerCount: 2
Fore
SplineSet
123 1249 m 1,0,-1
 287 1249 l 1,1,-1
 287 1085 l 1,2,-1
 123 1085 l 1,3,-1
 123 1249 l 1,0,-1
123 901 m 1,4,-1
 287 901 l 1,5,-1
 287 0 l 1,6,-1
 123 0 l 1,7,-1
 123 901 l 1,4,-1
EndSplineSet
Validated: 1
EndChar

StartChar: o
Encoding: 111 111 9
Width: 1056
VWidth: 0
Flags: W
HStem: -20 102<384 673> 819 102<404 673>
VStem: 90 164<231 648> 807 164<241 660>
AnchorPoint: "cedilla" 506 0 basechar 0
AnchorPoint: "horn" 881 635 basechar 0
AnchorPoint: "bottom" 516 0 basechar 0
AnchorPoint: "ogonek" 537 0 basechar 0
AnchorPoint: "top" 535 1004 basechar 0
LayerCount: 2
Fore
SplineSet
807 451 m 128,-1,1
 807 613 807 613 733 716 c 128,-1,2
 659 819 659 819 541 819 c 128,-1,3
 423 819 423 819 338.5 717 c 128,-1,4
 254 615 254 615 254 446.5 c 128,-1,5
 254 278 254 278 327 180 c 128,-1,6
 400 82 400 82 529.5 82 c 128,-1,7
 659 82 659 82 733 185.5 c 128,-1,0
 807 289 807 289 807 451 c 128,-1,1
971 451 m 128,-1,9
 971 222 971 222 845 101 c 128,-1,10
 719 -20 719 -20 516.5 -20 c 128,-1,11
 314 -20 314 -20 202 107 c 128,-1,12
 90 234 90 234 90 451 c 0,13,14
 90 555 90 555 127 645 c 0,15,16
 164 734 164 734 224 794 c 0,17,18
 353 922 353 922 512 922 c 0,19,20
 719 922 719 922 845 801 c 128,-1,8
 971 680 971 680 971 451 c 128,-1,9
EndSplineSet
Validated: 1
EndChar

StartChar: t
Encoding: 116 116 10
Width: 567
VWidth: 0
Flags: W
HStem: 0 43G<188 352> 799 102<84 188 352 514>
VStem: 188 164<0 799 901 1198>
AnchorPoint: "horn" 319 1085 basechar 0
AnchorPoint: "ogonek" 279 0 basechar 0
AnchorPoint: "bottom" 264 0 basechar 0
AnchorPoint: "cedilla" 264 0 basechar 0
AnchorPoint: "top" 272 1352 basechar 0
LayerCount: 2
Fore
SplineSet
352 799 m 1,0,-1
 352 0 l 1,1,-1
 188 0 l 1,2,-1
 188 799 l 1,3,-1
 53 799 l 1,4,-1
 84 901 l 1,5,-1
 188 901 l 1,6,-1
 188 1198 l 1,7,-1
 352 1229 l 1,8,-1
 352 901 l 1,9,-1
 514 901 l 1,10,-1
 514 799 l 1,11,-1
 352 799 l 1,0,-1
EndSplineSet
Validated: 1
EndChar

StartChar: m
Encoding: 109 109 11
Width: 1605
VWidth: 0
Flags: W
HStem: 0 43G<147 311 725 889 1303 1466> 819 102<367 664 944 1231> 860 41G<147 311>
VStem: 147 164<0 766 874 901> 725 164<0 753> 1303 164<0 726>
CounterMasks: 1 1c
AnchorPoint: "horn" 1389 717 basechar 0
AnchorPoint: "cedilla" 815 0 basechar 0
AnchorPoint: "ogonek" 1380 0 basechar 0
AnchorPoint: "bottom" 809 0 basechar 0
AnchorPoint: "top" 809 1004 basechar 0
LayerCount: 2
Fore
SplineSet
311 729 m 1,0,-1
 311 0 l 1,1,-1
 147 0 l 1,2,-1
 147 901 l 1,3,-1
 311 901 l 1,4,-1
 311 874 l 1,5,6
 393 922 393 922 489 922 c 0,7,8
 705 922 705 922 799 815 c 1,9,10
 857 860 857 860 934 891 c 128,-1,11
 1011 922 1011 922 1073 922 c 0,12,13
 1264 922 1264 922 1365 814.5 c 128,-1,14
 1466 707 1466 707 1466 492 c 2,15,-1
 1466 0 l 1,16,-1
 1303 0 l 1,17,-1
 1303 500 l 2,18,19
 1303 696 1303 696 1244 762 c 0,20,21
 1194 818 1194 818 1116 819 c 0,22,23
 950 819 950 819 889 719 c 1,24,-1
 889 0 l 1,25,-1
 725 0 l 1,26,-1
 725 500 l 2,27,28
 725 699 725 699 675 762 c 0,29,30
 648 796 648 796 613 807.5 c 128,-1,31
 578 819 578 819 520 819 c 0,32,33
 404 819 404 819 311 729 c 1,0,-1
EndSplineSet
Validated: 1
EndChar

StartChar: f
Encoding: 102 102 12
Width: 559
VWidth: 0
Flags: W
HStem: 0 43G<166 330> 799 102<61 166 330 492> 1270 102<363 538>
VStem: 166 164<0 799 901 1238>
AnchorPoint: "horn" 512 1315 basechar 0
AnchorPoint: "ogonek" 250 0 basechar 0
AnchorPoint: "cedilla" 250 0 basechar 0
AnchorPoint: "bottom" 246 0 basechar 0
AnchorPoint: "top" 340 1434 basechar 0
LayerCount: 2
Fore
SplineSet
524 1239 m 1,0,1
 500 1270 500 1270 444 1270 c 0,2,3
 388 1270 388 1270 359 1221 c 128,-1,4
 330 1172 330 1172 330 1042 c 2,5,-1
 330 901 l 1,6,-1
 492 901 l 1,7,-1
 492 799 l 1,8,-1
 330 799 l 1,9,-1
 330 0 l 1,10,-1
 166 0 l 1,11,-1
 166 799 l 1,12,-1
 31 799 l 1,13,-1
 61 901 l 1,14,-1
 166 901 l 1,15,-1
 166 1096 l 2,16,17
 166 1221 166 1221 233.5 1296.5 c 128,-1,18
 301 1372 301 1372 422 1372 c 0,19,20
 506 1372 506 1372 567 1350 c 1,21,-1
 524 1239 l 1,0,1
EndSplineSet
Validated: 1
EndChar

StartChar: j
Encoding: 106 106 13
Width: 536
VWidth: 0
Flags: W
HStem: -348 102<-3 219> 860 41G<252 416> 1085 164<252 416>
VStem: 252 164<-216 901 1085 1249>
AnchorPoint: "cedilla" 139 -348 basechar 0
AnchorPoint: "ogonek" 287 -266 basechar 0
AnchorPoint: "horn" 369 717 basechar 0
AnchorPoint: "top" 334 1167 basechar 0
AnchorPoint: "bottom" 129 -348 basechar 0
LayerCount: 2
Fore
SplineSet
33 -195 m 5,0,1
 69 -246 69 -246 135 -246 c 128,-1,2
 201 -246 201 -246 226.5 -187.5 c 128,-1,3
 252 -129 252 -129 252 0 c 2,4,-1
 252 901 l 1,5,-1
 416 901 l 1,6,-1
 416 -68 l 2,7,8
 416 -272 416 -272 220 -332 c 0,9,10
 168 -348 168 -348 111 -348 c 0,11,12
 -19 -348 -19 -348 -96 -256 c 1,13,-1
 33 -195 l 5,0,1
252 1249 m 1,14,-1
 416 1249 l 1,15,-1
 416 1085 l 1,16,-1
 252 1085 l 1,17,-1
 252 1249 l 1,14,-1
EndSplineSet
Validated: 1
EndChar

StartChar: l
Encoding: 108 108 15
Width: 456
VWidth: 0
Flags: W
HStem: 0 43G<147 311> 1311 41G<147 311>
VStem: 147 164<0 1352>
AnchorPoint: "horn" 266 1085 basechar 0
AnchorPoint: "ogonek" 233 0 basechar 0
AnchorPoint: "bottom" 227 0 basechar 0
AnchorPoint: "cedilla" 223 0 basechar 0
AnchorPoint: "top" 229 1434 basechar 0
LayerCount: 2
Fore
SplineSet
311 1352 m 25,0,-1
 311 0 l 1,1,-1
 147 0 l 1,2,-1
 147 1352 l 1,3,-1
 311 1352 l 25,0,-1
EndSplineSet
Validated: 1
EndChar

StartChar: p
Encoding: 112 112 16
Width: 1087
VWidth: 0
Flags: W
HStem: -16 102<439 692> 823 102<421 705> 864 41G<147 311>
VStem: 147 164<-410 59 240 710 866 905> 838 164<262 660>
AnchorPoint: "horn" 885 717 basechar 0
AnchorPoint: "ogonek" 561 0 basechar 0
AnchorPoint: "cedilla" 561 0 basechar 0
AnchorPoint: "bottom" 598 0 basechar 0
AnchorPoint: "top" 582 1004 basechar 0
LayerCount: 2
Fore
SplineSet
311 59 m 1,0,-1
 311 -410 l 1,1,-1
 147 -410 l 1,2,-1
 147 905 l 1,3,-1
 311 905 l 1,4,-1
 311 866 l 1,5,6
 406 926 406 926 549 926 c 128,-1,7
 692 926 692 926 792 861.5 c 128,-1,8
 892 797 892 797 946.5 690 c 128,-1,9
 1001 583 1001 583 1001 455 c 0,10,11
 1001 262 1001 262 868.5 123 c 128,-1,12
 736 -16 736 -16 547 -16 c 0,13,14
 408 -16 408 -16 311 59 c 1,0,-1
311 508 m 2,15,-1
 311 504 l 2,16,17
 311 196 311 196 467 112 c 0,18,19
 515 86 515 86 581 86 c 128,-1,20
 647 86 647 86 708 142 c 128,-1,21
 769 198 769 198 803.5 283 c 128,-1,22
 838 368 838 368 838 455.5 c 128,-1,23
 838 543 838 543 808.5 627 c 128,-1,24
 779 711 779 711 722.5 767 c 128,-1,25
 666 823 666 823 598 823 c 0,26,27
 443 823 443 823 377 742.5 c 128,-1,28
 311 662 311 662 311 508 c 2,15,-1
EndSplineSet
Validated: 1
EndChar

StartChar: q
Encoding: 113 113 17
Width: 1089
VWidth: 0
Flags: W
HStem: -20 102<382 654> 819 102<382 696>
VStem: 90 164<237 664> 780 164<-410 49 223 735>
AnchorPoint: "horn" 877 717 basechar 0
AnchorPoint: "ogonek" 487 0 basechar 0
AnchorPoint: "cedilla" 487 0 basechar 0
AnchorPoint: "bottom" 487 0 basechar 0
AnchorPoint: "top" 522 1004 basechar 0
LayerCount: 2
Fore
SplineSet
780 49 m 1,0,1
 676 -20 676 -20 546 -20 c 128,-1,2
 416 -20 416 -20 328 17 c 128,-1,3
 240 54 240 54 189 120 c 128,-1,4
 138 186 138 186 114 268.5 c 128,-1,5
 90 351 90 351 90 451 c 0,6,7
 90 552 90 552 114 634 c 128,-1,8
 138 716 138 716 190 782 c 0,9,10
 299 922 299 922 535 922 c 0,11,12
 764 922 764 922 860 814 c 0,13,14
 944 720 944 720 944 532 c 2,15,-1
 944 -410 l 1,16,-1
 780 -410 l 1,17,-1
 780 49 l 1,0,1
780 430 m 2,18,-1
 780 598 l 2,19,20
 780 734 780 734 693 780 c 0,21,22
 620 820 620 820 523 820 c 0,23,-1
 520 820 l 0,24,25
 422 820 422 820 363 762 c 0,26,27
 254 657 254 657 254 451 c 0,28,29
 254 311 254 311 314 202 c 0,30,31
 380 82 380 82 509.5 82 c 129,-1,32
 639 82 639 82 709.5 180.5 c 128,-1,33
 780 279 780 279 780 430 c 2,18,-1
EndSplineSet
Validated: 1
EndChar

StartChar: r
Encoding: 114 114 18
Width: 677
VWidth: 0
Flags: W
HStem: 0 43G<147 311> 819 102<356 647> 860 41G<147 311>
VStem: 147 164<0 774 874 901>
AnchorPoint: "horn" 647 856 basechar 0
AnchorPoint: "ogonek" 246 0 basechar 0
AnchorPoint: "bottom" 240 0 basechar 0
AnchorPoint: "cedilla" 225 0 basechar 0
AnchorPoint: "top" 397 1004 basechar 0
LayerCount: 2
Fore
SplineSet
672 741 m 1,0,1
 631 819 631 819 511 819 c 128,-1,2
 391 819 391 819 311 735 c 1,3,-1
 311 0 l 1,4,-1
 147 0 l 1,5,-1
 147 901 l 1,6,-1
 311 901 l 1,7,-1
 311 874 l 1,8,9
 390 922 390 922 490 922 c 128,-1,10
 590 922 590 922 672 893 c 1,11,-1
 672 741 l 1,0,1
EndSplineSet
Validated: 1
EndChar

StartChar: u
Encoding: 117 117 19
Width: 1067
VWidth: 0
Flags: W
HStem: -20 102<417 723> 0 43G<780 944> 860 41G<143 307 780 944>
VStem: 143 164<204 901> 780 164<0 33 135 901>
AnchorPoint: "cedilla" 522 0 basechar 0
AnchorPoint: "horn" 944 635 basechar 0
AnchorPoint: "bottom" 532 0 basechar 0
AnchorPoint: "ogonek" 936 0 basechar 0
AnchorPoint: "top" 549 1004 basechar 0
LayerCount: 2
Fore
SplineSet
780 172 m 1,0,-1
 780 901 l 1,1,-1
 944 901 l 1,2,-1
 944 0 l 1,3,-1
 780 0 l 1,4,-1
 780 33 l 1,5,6
 668 -20 668 -20 541 -20 c 0,7,8
 329 -20 329 -20 236 84 c 128,-1,9
 143 188 143 188 143 410 c 2,10,-1
 143 901 l 1,11,-1
 307 901 l 1,12,-1
 307 434 l 2,13,14
 307 227 307 227 386 150 c 0,15,16
 456 82 456 82 571.5 82 c 128,-1,17
 687 82 687 82 780 172 c 1,0,-1
EndSplineSet
Validated: 1
EndChar

StartChar: g
Encoding: 103 103 20
Width: 1038
VWidth: 0
Flags: W
HStem: -348 102<339 671> -20 102<393 705> 819 102<378 633> 860 41G<729 893>
VStem: 90 164<235 670> 729 164<-181 23 114 716 844 901>
AnchorPoint: "horn" 844 717 basechar 0
AnchorPoint: "cedilla" 496 -319 basechar 0
AnchorPoint: "ogonek" 639 -299 basechar 0
AnchorPoint: "bottom" 492 -330 basechar 0
AnchorPoint: "top" 506 1004 basechar 0
LayerCount: 2
Fore
SplineSet
893 901 m 1,0,-1
 893 160 l 2,1,2
 893 -54 893 -54 870 -134 c 128,-1,3
 847 -214 847 -214 819 -248 c 0,4,5
 790 -282 790 -282 742 -307 c 0,6,7
 659 -348 659 -348 492.5 -348 c 128,-1,8
 326 -348 326 -348 150 -256 c 1,9,-1
 252 -150 l 1,10,11
 389 -246 389 -246 504 -246 c 0,12,13
 575 -246 575 -246 617.5 -233 c 128,-1,14
 660 -220 660 -220 684 -186 c 0,15,16
 725 -129 725 -129 729 23 c 1,17,18
 632 -20 632 -20 522 -20 c 0,19,20
 323 -20 323 -20 206.5 107.5 c 128,-1,21
 90 235 90 235 90 447 c 128,-1,22
 90 659 90 659 205.5 790.5 c 128,-1,23
 321 922 321 922 470 922 c 128,-1,24
 619 922 619 922 729 844 c 1,25,-1
 729 901 l 1,26,-1
 893 901 l 1,0,-1
729 145 m 1,27,-1
 729 608 l 1,28,29
 703 705 703 705 648 762 c 128,-1,30
 593 819 593 819 512 819 c 0,31,32
 396 819 396 819 325 719 c 128,-1,33
 254 619 254 619 254 449 c 128,-1,34
 254 279 254 279 331.5 180.5 c 128,-1,35
 409 82 409 82 553 82 c 0,36,37
 660 82 660 82 729 145 c 1,27,-1
EndSplineSet
Validated: 1
EndChar

StartChar: v
Encoding: 118 118 21
Width: 849
VWidth: 0
Flags: W
HStem: 0 43G<331 525> 860 41G<18 183 659 838>
AnchorPoint: "horn" 729 717 basechar 0
AnchorPoint: "ogonek" 418 0 basechar 0
AnchorPoint: "cedilla" 418 0 basechar 0
AnchorPoint: "bottom" 424 0 basechar 0
AnchorPoint: "top" 432 1004 basechar 0
LayerCount: 2
Fore
SplineSet
510 0 m 1,0,-1
 346 0 l 1,1,-1
 18 901 l 1,2,-1
 168 901 l 1,3,-1
 420 205 l 1,4,-1
 674 901 l 1,5,-1
 838 901 l 1,6,-1
 510 0 l 1,0,-1
EndSplineSet
Validated: 1
EndChar

StartChar: w
Encoding: 119 119 22
Width: 1529
VWidth: 0
Flags: W
HStem: 0 43G<341 519 1013 1190> 860 41G<29 193 669 848 1324 1503>
AnchorPoint: "horn" 1380 717 basechar 0
AnchorPoint: "ogonek" 1110 0 basechar 0
AnchorPoint: "cedilla" 766 0 basechar 0
AnchorPoint: "bottom" 766 0 basechar 0
AnchorPoint: "top" 760 1004 basechar 0
LayerCount: 2
Fore
SplineSet
430 205 m 1,0,-1
 684 901 l 1,1,-1
 834 901 l 1,2,-1
 1085 205 l 1,3,-1
 1339 901 l 1,4,-1
 1503 901 l 1,5,-1
 1176 0 l 1,6,-1
 1028 0 l 1,7,-1
 766 719 l 1,8,-1
 504 0 l 1,9,-1
 356 0 l 1,10,-1
 29 901 l 1,11,-1
 178 901 l 1,12,-1
 430 205 l 1,0,-1
EndSplineSet
Validated: 1
EndChar

StartChar: x
Encoding: 120 120 23
Width: 833
VWidth: 0
Flags: W
HStem: 0 43G<8 213 625 829> 860 41G<66 268 569 772>
AnchorPoint: "horn" 614 717 basechar 0
AnchorPoint: "ogonek" 750 0 basechar 0
AnchorPoint: "cedilla" 418 0 basechar 0
AnchorPoint: "bottom" 416 0 basechar 0
AnchorPoint: "top" 422 1004 basechar 0
LayerCount: 2
Fore
SplineSet
330 494 m 1,0,-1
 66 901 l 1,1,-1
 242 901 l 1,2,-1
 418 629 l 1,3,-1
 596 901 l 1,4,-1
 772 901 l 1,5,-1
 508 494 l 1,6,-1
 829 0 l 1,7,-1
 651 0 l 1,8,-1
 418 358 l 1,9,-1
 186 0 l 1,10,-1
 8 0 l 1,11,-1
 330 494 l 1,0,-1
EndSplineSet
Validated: 1
EndChar

StartChar: y
Encoding: 121 121 24
Width: 880
VWidth: 0
Flags: W
HStem: -348 102<164 291> 860 41G<45 209 685 864>
AnchorPoint: "horn" 762 717 basechar 0
AnchorPoint: "cedilla" 242 -328 basechar 0
AnchorPoint: "bottom" 365 -315 basechar 0
AnchorPoint: "ogonek" 614 0 basechar 0
AnchorPoint: "top" 461 1004 basechar 0
LayerCount: 2
Fore
SplineSet
201 -348 m 0,0,1
 146 -348 146 -348 100 -315 c 128,-1,2
 54 -282 54 -282 -10 -213 c 1,3,-1
 121 -147 l 1,4,5
 168 -211 168 -211 189.5 -228.5 c 128,-1,6
 211 -246 211 -246 231 -246 c 0,7,8
 271 -246 271 -246 304 -179 c 0,9,10
 318 -151 318 -151 356 -45 c 1,11,-1
 373 0 l 1,12,-1
 45 901 l 1,13,-1
 195 901 l 1,14,-1
 446 205 l 1,15,-1
 700 901 l 1,16,-1
 864 901 l 1,17,-1
 518 -49 l 2,18,19
 464 -197 464 -197 389 -272.5 c 128,-1,20
 314 -348 314 -348 201 -348 c 0,0,1
EndSplineSet
Validated: 1
EndChar

StartChar: k
Encoding: 107 107 25
Width: 980
VWidth: 0
Flags: W
HStem: 0 43G<147 311 705 913> 860 41G<652 877> 1311 41G<147 311>
VStem: 147 164<0 268 477 1352>
AnchorPoint: "horn" 668 717 basechar 0
AnchorPoint: "ogonek" 819 0 basechar 0
AnchorPoint: "bottom" 508 0 basechar 0
AnchorPoint: "cedilla" 508 0 basechar 0
AnchorPoint: "top" 387 1434 basechar 0
LayerCount: 2
Fore
SplineSet
311 268 m 1,0,-1
 311 0 l 1,1,-1
 147 0 l 1,2,-1
 147 1352 l 1,3,-1
 311 1352 l 1,4,-1
 311 477 l 1,5,-1
 688 901 l 1,6,-1
 877 901 l 1,7,-1
 520 502 l 1,8,-1
 913 0 l 1,9,-1
 737 0 l 1,10,-1
 424 395 l 1,11,-1
 311 268 l 1,0,-1
EndSplineSet
Validated: 1
EndChar

StartChar: z
Encoding: 122 122 26
Width: 860
VWidth: 0
Flags: W
HStem: 0 102<299 823> 799 102<74 573>
AnchorPoint: "horn" 651 717 basechar 0
AnchorPoint: "ogonek" 717 0 basechar 0
AnchorPoint: "cedilla" 442 0 basechar 0
AnchorPoint: "bottom" 442 0 basechar 0
AnchorPoint: "top" 438 1004 basechar 0
LayerCount: 2
Fore
SplineSet
573 799 m 1,0,-1
 43 799 l 1,1,-1
 74 901 l 1,2,-1
 817 901 l 1,3,-1
 299 102 l 1,4,-1
 823 102 l 1,5,-1
 823 0 l 1,6,-1
 53 0 l 1,7,-1
 573 799 l 1,0,-1
EndSplineSet
Validated: 1
EndChar

StartChar: A
Encoding: 65 65 27
Width: 1298
VWidth: 0
Flags: W
HStem: 0 43G<39 218 1085 1264> 410 102<389 913> 1393 41G<546 756>
AnchorPoint: "horn" 819 1085 basechar 0
AnchorPoint: "cedilla" 631 0 basechar 0
AnchorPoint: "bottom" 653 0 basechar 0
AnchorPoint: "ogonek" 1100 0 basechar 0
AnchorPoint: "top" 651 1434 basechar 0
LayerCount: 2
Fore
SplineSet
39 0 m 5,0,-1
 561 1434 l 5,1,-1
 741 1434 l 1,2,-1
 1264 0 l 1,3,-1
 1100 0 l 1,4,-1
 950 410 l 1,5,-1
 352 410 l 5,6,-1
 203 0 l 5,7,-1
 39 0 l 5,0,-1
651 1231 m 5,8,-1
 389 512 l 5,9,-1
 913 512 l 1,10,-1
 651 1231 l 5,8,-1
EndSplineSet
Validated: 1
EndChar

StartChar: B
Encoding: 66 66 28
Width: 1116
VWidth: 0
Flags: W
HStem: 0 102<348 758> 727 102<348 668> 1331 102<348 691>
VStem: 174 174<102 727 829 1331> 778 174<946 1243> 864 174<216 579>
AnchorPoint: "horn" 893 1085 basechar 0
AnchorPoint: "ogonek" 524 0 basechar 0
AnchorPoint: "cedilla" 524 0 basechar 0
AnchorPoint: "bottom" 563 0 basechar 0
AnchorPoint: "top" 502 1434 basechar 0
LayerCount: 2
Fore
SplineSet
348 727 m 1,0,-1
 348 102 l 1,1,-1
 614 102 l 2,2,3
 736 102 736 102 800 185.5 c 128,-1,4
 864 269 864 269 864 366.5 c 128,-1,5
 864 464 864 464 839 539 c 128,-1,6
 814 614 814 614 755 670.5 c 128,-1,7
 696 727 696 727 614 727 c 2,8,-1
 348 727 l 1,0,-1
780 795 m 1,9,10
 908 743 908 743 973 629.5 c 128,-1,11
 1038 516 1038 516 1038 387 c 0,12,13
 1038 226 1038 226 933 117 c 0,14,15
 820 0 820 0 584 0 c 2,16,-1
 174 0 l 1,17,-1
 174 1434 l 1,18,-1
 543 1434 l 2,19,20
 812 1434 812 1434 902 1283 c 0,21,22
 952 1199 952 1199 952 1075 c 0,23,24
 952 1010 952 1010 910.5 929.5 c 128,-1,25
 869 849 869 849 780 795 c 1,9,10
348 1331 m 1,26,-1
 348 829 l 1,27,-1
 528 829 l 2,28,29
 590 829 590 829 640 856 c 0,30,31
 690 882 690 882 719 922 c 0,32,33
 778 1002 778 1002 778 1075 c 0,34,35
 778 1189 778 1189 720 1264 c 0,36,37
 669 1331 669 1331 573 1331 c 2,38,-1
 348 1331 l 1,26,-1
EndSplineSet
Validated: 1
EndChar

StartChar: P
Encoding: 80 80 29
Width: 1089
VWidth: 0
Flags: W
HStem: 0 43G<174 348> 655 102<348 755> 1331 102<348 757>
VStem: 174 174<0 655 758 1331> 864 174<872 1217>
AnchorPoint: "horn" 987 1085 basechar 0
AnchorPoint: "ogonek" 254 0 basechar 0
AnchorPoint: "cedilla" 254 0 basechar 0
AnchorPoint: "bottom" 451 0 basechar 0
AnchorPoint: "top" 561 1434 basechar 0
LayerCount: 2
Fore
SplineSet
348 655 m 1,0,-1
 348 0 l 1,1,-1
 174 0 l 1,2,-1
 174 1434 l 1,3,-1
 594 1434 l 2,4,5
 857 1434 857 1434 976 1252 c 0,6,7
 1038 1157 1038 1157 1038 1044 c 0,8,9
 1038 932 1038 932 974 836 c 0,10,11
 854 655 854 655 594 655 c 2,12,-1
 348 655 l 1,0,-1
348 1331 m 1,13,-1
 348 758 l 1,14,-1
 625 758 l 2,15,16
 749 758 749 758 810 856 c 0,17,18
 864 943 864 943 864 1044 c 0,19,20
 864 1145 864 1145 810 1233 c 0,21,22
 750 1331 750 1331 625 1331 c 2,23,-1
 348 1331 l 1,13,-1
EndSplineSet
Validated: 1
EndChar

StartChar: C
Encoding: 67 67 30
Width: 1331
VWidth: 0
Flags: W
HStem: -20 102<600 974> 1352 102<556 933>
VStem: 102 174<451 1012>
AnchorPoint: "horn" 1143 1282 basechar 0
AnchorPoint: "ogonek" 741 0 basechar 0
AnchorPoint: "bottom" 758 0 basechar 0
AnchorPoint: "cedilla" 758 0 basechar 0
AnchorPoint: "top" 717 1434 basechar 0
LayerCount: 2
Fore
SplineSet
1249 209 m 1,0,1
 1169 106 1169 106 1035.5 43 c 128,-1,2
 902 -20 902 -20 741 -20 c 0,3,4
 564 -20 564 -20 401 93 c 0,5,6
 216 222 216 222 143 444 c 0,7,8
 102 570 102 570 102 717.5 c 128,-1,9
 102 865 102 865 139 989.5 c 128,-1,10
 176 1114 176 1114 236 1198 c 128,-1,11
 296 1282 296 1282 375 1341 c 0,12,13
 526 1454 526 1454 702 1454 c 0,14,15
 1075 1454 1075 1454 1243 1245 c 1,16,-1
 1090 1178 l 1,17,18
 1035 1256 1035 1256 945 1304 c 128,-1,19
 855 1352 855 1352 748.5 1352 c 128,-1,20
 642 1352 642 1352 561 1312.5 c 128,-1,21
 480 1273 480 1273 415.5 1197 c 128,-1,22
 351 1121 351 1121 313.5 997 c 128,-1,23
 276 873 276 873 276 730 c 128,-1,24
 276 587 276 587 309 478 c 0,25,26
 342 370 342 370 394 298 c 0,27,28
 448 226 448 226 514 176 c 0,29,30
 684 90 684 90 772 82 c 1,31,32
 1010 82 1010 82 1128 264 c 1,33,-1
 1249 209 l 1,0,1
EndSplineSet
Validated: 1
EndChar

StartChar: D
Encoding: 68 68 31
Width: 1304
VWidth: 0
Flags: W
HStem: 0 102<348 826> 1331 102<348 841>
VStem: 174 174<102 1331> 1030 174<394 1073>
AnchorPoint: "cedilla" 549 0 basechar 0
AnchorPoint: "ogonek" 549 0 basechar 0
AnchorPoint: "horn" 1102 1085 basechar 0
AnchorPoint: "bottom" 594 0 basechar 0
AnchorPoint: "top" 582 1434 basechar 0
LayerCount: 2
Fore
SplineSet
670 0 m 2,0,-1
 174 0 l 1,1,-1
 174 1434 l 1,2,-1
 670 1434 l 2,3,4
 1204 1434 1204 1434 1204 737 c 0,5,6
 1204 376 1204 376 1061.5 188 c 128,-1,7
 919 0 919 0 670 0 c 2,0,-1
348 1331 m 1,8,-1
 348 102 l 1,9,-1
 700 102 l 2,10,11
 837 102 837 102 930 249 c 0,12,13
 1030 406 1030 406 1030 737 c 0,14,15
 1030 1112 1030 1112 891 1252 c 0,16,17
 813 1331 813 1331 703 1331 c 0,18,-1
 700 1331 l 2,19,-1
 348 1331 l 1,8,-1
EndSplineSet
Validated: 1
EndChar

StartChar: E
Encoding: 69 69 32
Width: 1118
VWidth: 0
Flags: W
HStem: 0 102<348 1034> 799 102<348 817> 1331 102<348 1001>
VStem: 174 174<102 799 901 1331>
AnchorPoint: "horn" 942 1384 basechar 0
AnchorPoint: "cedilla" 641 0 basechar 0
AnchorPoint: "bottom" 629 0 basechar 0
AnchorPoint: "ogonek" 846 0 basechar 0
AnchorPoint: "top" 614 1434 basechar 0
LayerCount: 2
Fore
SplineSet
1034 0 m 1,0,-1
 174 0 l 1,1,-1
 174 1434 l 1,2,-1
 1001 1434 l 1,3,-1
 1001 1331 l 1,4,-1
 348 1331 l 1,5,-1
 348 901 l 1,6,-1
 817 901 l 1,7,-1
 817 799 l 1,8,-1
 348 799 l 1,9,-1
 348 102 l 1,10,-1
 1034 102 l 1,11,-1
 1034 0 l 1,0,-1
EndSplineSet
Validated: 1
EndChar

StartChar: F
Encoding: 70 70 33
Width: 1067
VWidth: 0
Flags: W
HStem: 0 43G<174 348> 799 102<348 817> 1331 102<348 1001>
VStem: 174 174<0 799 901 1331>
AnchorPoint: "horn" 954 1384 basechar 0
AnchorPoint: "ogonek" 258 0 basechar 0
AnchorPoint: "cedilla" 258 0 basechar 0
AnchorPoint: "bottom" 410 0 basechar 0
AnchorPoint: "top" 604 1434 basechar 0
LayerCount: 2
Fore
SplineSet
174 0 m 1,0,-1
 174 1434 l 1,1,-1
 1001 1434 l 1,2,-1
 1001 1331 l 1,3,-1
 348 1331 l 1,4,-1
 348 901 l 1,5,-1
 817 901 l 1,6,-1
 817 799 l 1,7,-1
 348 799 l 1,8,-1
 348 0 l 1,9,-1
 174 0 l 1,0,-1
EndSplineSet
Validated: 1
EndChar

StartChar: G
Encoding: 71 71 34
Width: 1372
VWidth: 0
Flags: W
HStem: -20 102<600 973> 717 102<913 1085> 1331 102<549 954>
VStem: 102 174<451 1008> 1085 164<173 717>
AnchorPoint: "horn" 1143 1282 basechar 0
AnchorPoint: "ogonek" 737 0 basechar 0
AnchorPoint: "bottom" 758 0 basechar 0
AnchorPoint: "cedilla" 758 0 basechar 0
AnchorPoint: "top" 717 1434 basechar 0
LayerCount: 2
Fore
SplineSet
913 819 m 1,0,-1
 1249 819 l 1,1,-1
 1249 209 l 1,2,3
 1169 106 1169 106 1035.5 43 c 128,-1,4
 902 -20 902 -20 741 -20 c 0,5,6
 564 -20 564 -20 401 93 c 0,7,8
 216 222 216 222 143 444 c 0,9,10
 102 570 102 570 102 717 c 128,-1,11
 102 864 102 864 139 986 c 128,-1,12
 176 1108 176 1108 236 1190 c 128,-1,13
 296 1272 296 1272 375 1328 c 0,14,15
 524 1434 524 1434 702 1434 c 0,16,17
 1091 1434 1091 1434 1243 1245 c 1,18,-1
 1090 1178 l 1,19,20
 982 1331 982 1331 733 1331 c 0,21,22
 546 1331 546 1331 416 1186 c 0,23,24
 276 1030 276 1030 276 717 c 0,25,26
 276 587 276 587 309 478 c 0,27,28
 342 370 342 370 394 298 c 0,29,30
 448 226 448 226 514 176 c 0,31,32
 684 90 684 90 772 82 c 1,33,34
 967 82 967 82 1085 209 c 1,35,-1
 1085 717 l 1,36,-1
 913 717 l 1,37,-1
 913 819 l 1,0,-1
EndSplineSet
Validated: 1
EndChar

StartChar: H
Encoding: 72 72 35
Width: 1351
VWidth: 0
Flags: W
HStem: 0 43G<174 348 1008 1182> 717 102<348 1008> 1393 41G<174 348 1008 1182>
VStem: 174 174<0 717 819 1434> 1008 174<0 717 819 1434>
AnchorPoint: "horn" 1147 1352 basechar 0
AnchorPoint: "ogonek" 1102 0 basechar 0
AnchorPoint: "cedilla" 651 0 basechar 0
AnchorPoint: "bottom" 674 0 basechar 0
AnchorPoint: "top" 686 1434 basechar 0
LayerCount: 2
Fore
SplineSet
348 1434 m 1,0,-1
 348 819 l 1,1,-1
 1008 819 l 1,2,-1
 1008 1434 l 1,3,-1
 1182 1434 l 1,4,-1
 1182 0 l 1,5,-1
 1008 0 l 1,6,-1
 1008 717 l 1,7,-1
 348 717 l 1,8,-1
 348 0 l 1,9,-1
 174 0 l 1,10,-1
 174 1434 l 1,11,-1
 348 1434 l 1,0,-1
EndSplineSet
Validated: 1
EndChar

StartChar: I
Encoding: 73 73 36
Width: 514
VWidth: 0
Flags: W
HStem: 0 43G<172 346> 1393 41G<172 346>
VStem: 172 174<0 1434>
AnchorPoint: "horn" 291 1085 basechar 0
AnchorPoint: "cedilla" 270 0 basechar 0
AnchorPoint: "bottom" 252 0 basechar 0
AnchorPoint: "ogonek" 236 0 basechar 0
AnchorPoint: "top" 262 1434 basechar 0
LayerCount: 2
Fore
SplineSet
346 1434 m 25,0,-1
 346 0 l 1,1,-1
 172 0 l 1,2,-1
 172 1434 l 1,3,-1
 346 1434 l 25,0,-1
EndSplineSet
Validated: 1
EndChar

StartChar: J
Encoding: 74 74 37
Width: 954
VWidth: 0
Flags: W
HStem: -20 102<225 556> 1393 41G<614 788>
VStem: 614 174<147 1434>
AnchorPoint: "cedilla" 401 0 basechar 0
AnchorPoint: "ogonek" 401 0 basechar 0
AnchorPoint: "horn" 733 1085 basechar 0
AnchorPoint: "bottom" 383 0 basechar 0
AnchorPoint: "top" 705 1434 basechar 0
LayerCount: 2
Fore
SplineSet
788 487 m 18,0,1
 788 276 788 276 763 195 c 128,-1,2
 738 114 738 114 709 79.5 c 128,-1,3
 680 45 680 45 630 21 c 0,4,5
 545 -20 545 -20 378 -20 c 129,-1,6
 211 -20 211 -20 35 72 c 1,7,-1
 137 178 l 1,8,9
 274 82 274 82 389 82 c 0,10,11
 529 82 529 82 568 140 c 0,12,13
 601 188 601 188 606 242 c 0,14,15
 614 316 614 316 614 442 c 2,16,-1
 614 1434 l 1,17,-1
 788 1434 l 1,18,-1
 788 487 l 18,0,1
EndSplineSet
Validated: 1
EndChar

StartChar: K
Encoding: 75 75 38
Width: 1243
VWidth: 0
Flags: W
HStem: 0 43G<174 348 1008 1233> 1393 41G<174 348 967 1208>
VStem: 174 174<0 469 696 1434>
AnchorPoint: "horn" 1032 1352 basechar 0
AnchorPoint: "ogonek" 1135 0 basechar 0
AnchorPoint: "bottom" 635 0 basechar 0
AnchorPoint: "cedilla" 655 0 basechar 0
AnchorPoint: "top" 483 1434 basechar 0
LayerCount: 2
Fore
SplineSet
348 469 m 1,0,-1
 348 0 l 1,1,-1
 174 0 l 1,2,-1
 174 1434 l 1,3,-1
 348 1434 l 1,4,-1
 348 696 l 1,5,-1
 1004 1434 l 1,6,-1
 1208 1434 l 1,7,-1
 623 776 l 1,8,-1
 1233 0 l 1,9,-1
 1040 0 l 1,10,-1
 520 662 l 1,11,-1
 348 469 l 1,0,-1
EndSplineSet
Validated: 1
EndChar

StartChar: L
Encoding: 76 76 39
Width: 1083
VWidth: 0
Flags: W
HStem: 0 102<348 1034> 1393 41G<174 348>
VStem: 174 174<102 1434>
AnchorPoint: "horn" 283 1085 basechar 0
AnchorPoint: "ogonek" 745 0 basechar 0
AnchorPoint: "bottom" 604 0 basechar 0
AnchorPoint: "cedilla" 596 0 basechar 0
AnchorPoint: "top" 440 1434 basechar 0
LayerCount: 2
Fore
SplineSet
348 102 m 1,0,-1
 1034 102 l 1,1,-1
 1034 0 l 1,2,-1
 174 0 l 1,3,-1
 174 1434 l 1,4,-1
 348 1434 l 1,5,-1
 348 102 l 1,0,-1
EndSplineSet
Validated: 1
EndChar

StartChar: M
Encoding: 77 77 40
Width: 1626
VWidth: 0
Flags: W
HStem: 0 43G<174 348 1282 1456> 1393 41G<174 367 1263 1456>
VStem: 174 174<0 1098> 1282 174<0 1098>
AnchorPoint: "horn" 1393 1085 basechar 0
AnchorPoint: "ogonek" 1389 0 basechar 0
AnchorPoint: "cedilla" 840 0 basechar 0
AnchorPoint: "bottom" 815 0 basechar 0
AnchorPoint: "top" 815 1434 basechar 0
LayerCount: 2
Fore
SplineSet
348 1098 m 1,0,-1
 348 0 l 1,1,-1
 174 0 l 1,2,-1
 174 1434 l 1,3,-1
 348 1434 l 1,4,-1
 815 432 l 1,5,-1
 1282 1434 l 1,6,-1
 1456 1434 l 1,7,-1
 1456 0 l 1,8,-1
 1282 0 l 1,9,-1
 1282 1098 l 1,10,-1
 815 102 l 1,11,-1
 348 1098 l 1,0,-1
EndSplineSet
Validated: 1
EndChar

StartChar: N
Encoding: 78 78 41
Width: 1406
VWidth: 0
Flags: W
HStem: 0 43G<174 348 1034 1237> 1393 41G<174 375 1063 1237>
VStem: 174 174<0 1157> 1063 174<274 1434>
AnchorPoint: "horn" 1188 1085 basechar 0
AnchorPoint: "ogonek" 1143 0 basechar 0
AnchorPoint: "bottom" 694 0 basechar 0
AnchorPoint: "cedilla" 696 0 basechar 0
AnchorPoint: "top" 717 1434 basechar 0
LayerCount: 2
Fore
SplineSet
1059 0 m 1,0,-1
 348 1157 l 1,1,-1
 348 0 l 1,2,-1
 174 0 l 1,3,-1
 174 1434 l 1,4,-1
 350 1434 l 1,5,-1
 1063 274 l 1,6,-1
 1063 1434 l 1,7,-1
 1237 1434 l 1,8,-1
 1237 0 l 1,9,-1
 1059 0 l 1,0,-1
EndSplineSet
Validated: 1
EndChar

StartChar: O
Encoding: 79 79 42
Width: 1435
VWidth: 0
Flags: W
HStem: -20 102<572 877> 1352 102<551 871>
VStem: 102 174<441 1012> 1163 174<438 1009>
AnchorPoint: "cedilla" 700 0 basechar 0
AnchorPoint: "horn" 1217 1085 basechar 0
AnchorPoint: "bottom" 721 0 basechar 0
AnchorPoint: "ogonek" 725 0 basechar 0
AnchorPoint: "top" 707 1434 basechar 0
LayerCount: 2
Fore
SplineSet
946 24 m 128,-1,1
 834 -20 834 -20 727.5 -20 c 128,-1,2
 621 -20 621 -20 537.5 7 c 128,-1,3
 454 34 454 34 375 93 c 128,-1,4
 296 152 296 152 235.5 236 c 128,-1,5
 175 320 175 320 138.5 444.5 c 128,-1,6
 102 569 102 569 102 717 c 128,-1,7
 102 865 102 865 136 990 c 0,8,9
 170 1114 170 1114 228 1198 c 0,10,11
 289 1286 289 1286 362 1342 c 0,12,13
 508 1454 508 1454 686 1454 c 0,14,15
 900 1454 900 1454 1060 1342 c 0,16,17
 1337 1149 1337 1149 1337 720 c 0,18,19
 1337 530 1337 530 1286 387 c 0,20,21
 1235 243 1235 243 1146.5 155.5 c 128,-1,0
 1058 68 1058 68 946 24 c 128,-1,1
703 1352 m 0,22,23
 641 1352 641 1352 583 1328 c 128,-1,24
 525 1304 525 1304 470 1252 c 0,25,26
 416 1200 416 1200 372 1127 c 0,27,28
 276 967 276 967 276 717 c 0,29,30
 276 588 276 588 306 478.5 c 128,-1,31
 336 369 336 369 384 298 c 0,32,33
 432 226 432 226 491 176 c 0,34,35
 603 82 603 82 717 82 c 0,36,37
 849 82 849 82 961 182 c 0,38,39
 1163 363 1163 363 1163 717 c 0,40,41
 1163 1087 1163 1087 954 1258 c 0,42,43
 839 1352 839 1352 703 1352 c 0,22,23
EndSplineSet
Validated: 1
EndChar

StartChar: Q
Encoding: 81 81 43
Width: 1435
VWidth: 0
Flags: W
HStem: -348 102<985 1155> -14 96<554 634 801 882> 1352 102<525 883>
VStem: 102 174<429 1012> 1163 174<425 1009>
AnchorPoint: "horn" 1204 1085 basechar 0
AnchorPoint: "cedilla" 844 -262 basechar 0
AnchorPoint: "ogonek" 1004 -291 basechar 0
AnchorPoint: "bottom" 696 -266 basechar 0
AnchorPoint: "top" 690 1434 basechar 0
LayerCount: 2
Fore
SplineSet
391.5 1190 m 128,-1,1
 276 1028 276 1028 276 717 c 0,2,3
 276 348 276 348 475 176 c 0,4,5
 584 82 584 82 717 82 c 0,6,7
 888 82 888 82 1020 238 c 0,8,9
 1084 314 1084 314 1123.5 438 c 128,-1,10
 1163 562 1163 562 1163 721 c 128,-1,11
 1163 880 1163 880 1124 1006 c 0,12,13
 1084 1130 1084 1130 1018 1204 c 0,14,15
 885 1352 885 1352 696 1352 c 128,-1,0
 507 1352 507 1352 391.5 1190 c 128,-1,1
625 -14 m 1,16,17
 420 19 420 19 269 192 c 0,18,19
 193 279 193 279 147.5 414.5 c 128,-1,20
 102 550 102 550 102 707.5 c 128,-1,21
 102 865 102 865 136 990 c 0,22,23
 170 1114 170 1114 228 1198 c 0,24,25
 289 1286 289 1286 362 1342 c 0,26,27
 508 1454 508 1454 686 1454 c 0,28,29
 900 1454 900 1454 1060 1342 c 0,30,31
 1337 1149 1337 1149 1337 720 c 0,32,33
 1337 377 1337 377 1179 192 c 0,34,35
 1032 18 1032 18 801 -14 c 1,36,37
 819 -79 819 -79 880 -134 c 128,-1,38
 941 -189 941 -189 1015 -217.5 c 128,-1,39
 1089 -246 1089 -246 1155 -246 c 1,40,-1
 1155 -348 l 1,41,42
 1022 -348 1022 -348 924 -312.5 c 128,-1,43
 826 -277 826 -277 770 -240 c 128,-1,44
 714 -203 714 -203 674 -144.5 c 128,-1,45
 634 -86 634 -86 625 -14 c 1,16,17
EndSplineSet
Validated: 1
EndChar

StartChar: R
Encoding: 82 82 44
Width: 1118
VWidth: 0
Flags: W
HStem: 0 43G<174 348 901 1069> 655 102<348 615> 1331 102<348 757>
VStem: 174 174<0 655 758 1331> 864 174<873 1217> 901 168<0 202>
AnchorPoint: "horn" 954 1085 basechar 0
AnchorPoint: "ogonek" 975 0 basechar 0
AnchorPoint: "bottom" 594 0 basechar 0
AnchorPoint: "cedilla" 590 0 basechar 0
AnchorPoint: "top" 561 1434 basechar 0
LayerCount: 2
Fore
SplineSet
348 655 m 1,0,-1
 348 0 l 1,1,-1
 174 0 l 1,2,-1
 174 1434 l 1,3,-1
 594 1434 l 2,4,5
 857 1434 857 1434 976 1252 c 0,6,7
 1038 1157 1038 1157 1038 1044 c 0,8,9
 1038 937 1038 937 976 836 c 0,10,11
 907 725 907 725 762 680 c 1,12,13
 866 576 866 576 967.5 358 c 128,-1,14
 1069 140 1069 140 1069 0 c 1,15,-1
 901 0 l 1,16,17
 901 142 901 142 793 355 c 128,-1,18
 685 568 685 568 571 655 c 1,19,-1
 348 655 l 1,0,-1
348 1331 m 1,20,-1
 348 758 l 1,21,-1
 625 758 l 2,22,23
 749 758 749 758 810 856 c 0,24,25
 864 943 864 943 864 1044 c 0,26,27
 864 1145 864 1145 810 1233 c 0,28,29
 750 1331 750 1331 625 1331 c 2,30,-1
 348 1331 l 1,20,-1
EndSplineSet
Validated: 1
EndChar

StartChar: S
Encoding: 83 83 45
Width: 1187
VWidth: 0
Flags: W
HStem: -20 102<442 777> 1352 102<441 740>
VStem: 162 174<985 1247> 907 174<203 504>
AnchorPoint: "ogonek" 602 0 basechar 0
AnchorPoint: "horn" 897 1290 basechar 0
AnchorPoint: "bottom" 578 0 basechar 0
AnchorPoint: "cedilla" 573 0 basechar 0
AnchorPoint: "top" 569 1434 basechar 0
LayerCount: 2
Fore
SplineSet
102 350 m 1,0,-1
 262 381 l 1,1,2
 277 264 277 264 378 173 c 128,-1,3
 479 82 479 82 580 82 c 0,4,5
 737 82 737 82 822 157 c 128,-1,6
 907 232 907 232 907 365 c 0,7,8
 907 486 907 486 813 564 c 0,9,10
 739 625 739 625 636.5 667.5 c 128,-1,11
 534 710 534 710 472.5 736.5 c 128,-1,12
 411 763 411 763 355 796.5 c 128,-1,13
 299 830 299 830 256 870 c 0,14,15
 162 959 162 959 162 1102 c 0,16,17
 162 1198 162 1198 223.5 1280.5 c 128,-1,18
 285 1363 285 1363 380.5 1408.5 c 128,-1,19
 476 1454 476 1454 597 1454 c 128,-1,20
 718 1454 718 1454 833 1390.5 c 128,-1,21
 948 1327 948 1327 1012 1225 c 1,22,-1
 860 1182 l 1,23,24
 768 1352 768 1352 561 1352 c 0,25,26
 445 1352 445 1352 373 1236 c 0,27,28
 336 1176 336 1176 336 1112 c 128,-1,29
 336 1048 336 1048 361.5 1004 c 128,-1,30
 387 960 387 960 430 928.5 c 128,-1,31
 473 897 473 897 529 869 c 128,-1,32
 585 841 585 841 646.5 814.5 c 128,-1,33
 708 788 708 788 770 760 c 128,-1,34
 832 732 832 732 888 695 c 128,-1,35
 944 658 944 658 987 614 c 0,36,37
 1081 517 1081 517 1081 357 c 128,-1,38
 1081 197 1081 197 939.5 88.5 c 128,-1,39
 798 -20 798 -20 565 -20 c 0,40,41
 416 -20 416 -20 277.5 91 c 128,-1,42
 139 202 139 202 102 350 c 1,0,-1
EndSplineSet
Validated: 1
EndChar

StartChar: T
Encoding: 84 84 46
Width: 1280
VWidth: 0
Flags: W
HStem: 0 43G<553 727> 1331 102<41 553 727 1243>
VStem: 553 174<0 1331>
AnchorPoint: "horn" 1200 1389 basechar 0
AnchorPoint: "ogonek" 659 0 basechar 0
AnchorPoint: "bottom" 643 0 basechar 0
AnchorPoint: "cedilla" 639 0 basechar 0
AnchorPoint: "top" 643 1434 basechar 0
LayerCount: 2
Fore
SplineSet
41 1434 m 1,0,-1
 1243 1434 l 1,1,-1
 1243 1331 l 1,2,-1
 727 1331 l 1,3,-1
 727 0 l 1,4,-1
 553 0 l 1,5,-1
 553 1331 l 1,6,-1
 41 1331 l 1,7,-1
 41 1434 l 1,0,-1
EndSplineSet
Validated: 1
EndChar

StartChar: U
Encoding: 85 85 47
Width: 1402
VWidth: 0
Flags: W
HStem: -20 102<539 873> 1393 41G<156 330 1073 1247>
VStem: 156 174<328 1434> 1073 174<328 1434>
AnchorPoint: "cedilla" 692 0 basechar 0
AnchorPoint: "horn" 1247 1085 basechar 0
AnchorPoint: "bottom" 721 0 basechar 0
AnchorPoint: "ogonek" 717 0 basechar 0
AnchorPoint: "top" 721 1434 basechar 0
LayerCount: 2
Fore
SplineSet
1073 1434 m 1,0,-1
 1247 1434 l 1,1,-1
 1247 610 l 2,2,3
 1247 190 1247 190 1017 55 c 0,4,5
 890 -20 890 -20 696 -20 c 0,6,7
 538 -20 538 -20 412 55 c 0,8,9
 338 99 338 99 283 166.5 c 128,-1,10
 228 234 228 234 192 348.5 c 128,-1,11
 156 463 156 463 156 610 c 2,12,-1
 156 1434 l 1,13,-1
 330 1434 l 1,14,-1
 330 610 l 2,15,16
 330 203 330 203 574 108 c 0,17,18
 641 82 641 82 700.5 82 c 128,-1,19
 760 82 760 82 807 95 c 128,-1,20
 854 108 854 108 904 144.5 c 128,-1,21
 954 181 954 181 990 238 c 0,22,23
 1073 369 1073 369 1073 610 c 2,24,-1
 1073 1434 l 1,0,-1
EndSplineSet
Validated: 1
EndChar

StartChar: V
Encoding: 86 86 48
Width: 1153
VWidth: 0
Flags: W
HStem: 0 43G<476 683> 1393 41G<25 189 970 1135>
AnchorPoint: "cedilla" 578 0 basechar 0
AnchorPoint: "ogonek" 578 0 basechar 0
AnchorPoint: "horn" 983 1085 basechar 0
AnchorPoint: "bottom" 578 0 basechar 0
AnchorPoint: "top" 573 1434 basechar 0
LayerCount: 2
Fore
SplineSet
489 0 m 1,0,-1
 25 1434 l 1,1,-1
 176 1434 l 1,2,-1
 580 195 l 1,3,-1
 983 1434 l 1,4,-1
 1135 1434 l 1,5,-1
 670 0 l 1,6,-1
 489 0 l 1,0,-1
EndSplineSet
Validated: 1
EndChar

StartChar: X
Encoding: 88 88 49
Width: 1191
VWidth: 0
Flags: W
HStem: 0 43G<86 279 847 1042> 1393 41G<127 322 804 999>
AnchorPoint: "horn" 766 1085 basechar 0
AnchorPoint: "ogonek" 553 0 basechar 0
AnchorPoint: "cedilla" 553 0 basechar 0
AnchorPoint: "bottom" 557 0 basechar 0
AnchorPoint: "top" 557 1434 basechar 0
LayerCount: 2
Fore
SplineSet
258 0 m 1,0,-1
 86 0 l 1,1,-1
 477 758 l 1,2,-1
 127 1434 l 1,3,-1
 301 1434 l 1,4,-1
 563 926 l 1,5,-1
 825 1434 l 1,6,-1
 999 1434 l 1,7,-1
 651 758 l 1,8,-1
 1042 0 l 1,9,-1
 868 0 l 1,10,-1
 563 590 l 1,11,-1
 258 0 l 1,0,-1
EndSplineSet
Validated: 1
EndChar

StartChar: W
Encoding: 87 87 50
Width: 1771
VWidth: 0
Flags: W
HStem: 0 43G<486 693 1087 1293> 860 41G<808 972> 1393 41G<35 200 1580 1745>
AnchorPoint: "horn" 1577 1085 basechar 0
AnchorPoint: "ogonek" 1188 0 basechar 0
AnchorPoint: "cedilla" 881 0 basechar 0
AnchorPoint: "bottom" 899 0 basechar 0
AnchorPoint: "top" 874 1434 basechar 0
LayerCount: 2
Fore
SplineSet
500 0 m 1,0,-1
 35 1434 l 1,1,-1
 186 1434 l 1,2,-1
 590 193 l 1,3,-1
 821 901 l 1,4,-1
 958 901 l 1,5,-1
 1190 193 l 1,6,-1
 1593 1434 l 1,7,-1
 1745 1434 l 1,8,-1
 1280 0 l 1,9,-1
 1100 0 l 1,10,-1
 891 645 l 1,11,-1
 680 0 l 1,12,-1
 500 0 l 1,0,-1
EndSplineSet
Validated: 1
EndChar

StartChar: Y
Encoding: 89 89 51
Width: 952
VWidth: 0
Flags: W
HStem: 0 43G<391 565> 1393 41G<23 228 731 936>
VStem: 391 174<0 709>
AnchorPoint: "horn" 725 1085 basechar 0
AnchorPoint: "cedilla" 492 0 basechar 0
AnchorPoint: "ogonek" 510 0 basechar 0
AnchorPoint: "bottom" 477 0 basechar 0
AnchorPoint: "top" 477 1434 basechar 0
LayerCount: 2
Fore
SplineSet
479 899 m 1,0,-1
 752 1434 l 1,1,-1
 936 1434 l 1,2,-1
 565 709 l 1,3,-1
 565 0 l 1,4,-1
 391 0 l 1,5,-1
 391 711 l 1,6,-1
 23 1434 l 1,7,-1
 207 1434 l 1,8,-1
 479 899 l 1,0,-1
EndSplineSet
Validated: 1
EndChar

StartChar: Z
Encoding: 90 90 52
Width: 1040
VWidth: 0
Flags: W
HStem: 0 102<285 983> 1331 102<102 750>
AnchorPoint: "horn" 758 1085 basechar 0
AnchorPoint: "cedilla" 569 0 basechar 0
AnchorPoint: "ogonek" 799 0 basechar 0
AnchorPoint: "bottom" 549 0 basechar 0
AnchorPoint: "top" 512 1434 basechar 0
LayerCount: 2
Fore
SplineSet
750 1331 m 1,0,-1
 72 1331 l 1,1,-1
 102 1434 l 1,2,-1
 975 1434 l 1,3,-1
 285 102 l 1,4,-1
 983 102 l 1,5,-1
 983 0 l 1,6,-1
 61 0 l 1,7,-1
 750 1331 l 1,0,-1
EndSplineSet
Validated: 1
EndChar

StartChar: exclam
Encoding: 33 33 53
Width: 356
VWidth: 0
Flags: W
HStem: 0 164<92 256> 1393 41G<92 256>
VStem: 92 164<0 164 937 1434> 123 102<369 866>
LayerCount: 2
Fore
SplineSet
92 164 m 1,0,-1
 256 164 l 1,1,-1
 256 0 l 1,2,-1
 92 0 l 1,3,-1
 92 164 l 1,0,-1
256 1434 m 29,4,-1
 225 369 l 1,5,-1
 123 369 l 1,6,-1
 92 1434 l 1,7,-1
 256 1434 l 29,4,-1
EndSplineSet
Validated: 1
EndChar

StartChar: period
Encoding: 46 46 54
Width: 356
VWidth: 0
Flags: W
HStem: 0 164<92 256>
VStem: 92 164<0 164>
LayerCount: 2
Fore
SplineSet
92 164 m 1,0,-1
 256 164 l 1,1,-1
 256 0 l 1,2,-1
 92 0 l 1,3,-1
 92 164 l 1,0,-1
EndSplineSet
Validated: 1
EndChar

StartChar: comma
Encoding: 44 44 55
Width: 356
VWidth: 0
Flags: W
HStem: -203 367<141 175>
VStem: 98 147<-48 164>
LayerCount: 2
Fore
SplineSet
98 164 m 1,0,-1
 246 164 l 1,1,2
 246 -73 246 -73 182 -180 c 0,3,4
 170 -199 170 -199 168 -203 c 1,5,-1
 92 -203 l 1,6,7
 141 -134 141 -134 141 -51 c 0,8,9
 141 -26 141 -26 119.5 44 c 128,-1,10
 98 114 98 114 98 164 c 1,0,-1
EndSplineSet
Validated: 1
EndChar

StartChar: quotesingle
Encoding: 39 39 56
Width: 335
VWidth: 0
Flags: W
HStem: 1024 410<123 205>
VStem: 123 82<1024 1215>
LayerCount: 2
Fore
SplineSet
236 1434 m 25,0,-1
 205 1024 l 1,1,-1
 123 1024 l 1,2,-1
 92 1434 l 1,3,-1
 236 1434 l 25,0,-1
EndSplineSet
Validated: 1
EndChar

StartChar: dollar
Encoding: 36 36 58
Width: 860
VWidth: 0
Flags: W
HStem: 0 43G<303 377 459 532> 150 102<377 459> 1112 102<377 459> 1311 41G<303 377 459 532>
VStem: 61 164<851 1058> 303 74<0 150 270 662 825 1085 1214 1352> 459 74<0 152 272 610 772 1077 1208 1352> 625 164<314 570>
LayerCount: 2
Fore
SplineSet
729 1087 m 1,0,-1
 610 1016 l 1,1,2
 545 1069 545 1069 532 1077 c 1,3,-1
 532 752 l 1,4,5
 660 708 660 708 724 631 c 128,-1,6
 788 554 788 554 788 451.5 c 128,-1,7
 788 349 788 349 718.5 271 c 128,-1,8
 649 193 649 193 532 164 c 1,9,-1
 532 0 l 1,10,-1
 459 0 l 1,11,-1
 459 152 l 1,12,13
 443 150 443 150 408 150 c 2,14,-1
 377 150 l 1,15,-1
 377 0 l 1,16,-1
 303 0 l 1,17,-1
 303 160 l 1,18,19
 222 176 222 176 148 226 c 0,20,21
 122 244 122 244 61 287 c 1,22,-1
 150 362 l 1,23,24
 158 357 158 357 178.5 342 c 128,-1,25
 199 327 199 327 206 322.5 c 128,-1,26
 213 318 213 318 229 307.5 c 128,-1,27
 245 297 245 297 254 292 c 0,28,29
 282 276 282 276 303 270 c 1,30,-1
 303 682 l 1,31,32
 190 720 190 720 125.5 789 c 128,-1,33
 61 858 61 858 61 958 c 128,-1,34
 61 1058 61 1058 127 1126.5 c 128,-1,35
 193 1195 193 1195 303 1210 c 1,36,-1
 303 1352 l 1,37,-1
 377 1352 l 1,38,-1
 377 1214 l 1,39,40
 418 1214 418 1214 459 1208 c 1,41,-1
 459 1352 l 1,42,-1
 532 1352 l 1,43,-1
 532 1192 l 1,44,45
 620 1162 620 1162 729 1087 c 1,0,-1
303 825 m 1,46,-1
 303 1085 l 1,47,48
 225 1038 225 1038 225 955.5 c 128,-1,49
 225 873 225 873 303 825 c 1,46,-1
377 662 m 1,50,-1
 377 254 l 1,51,52
 395 252 395 252 438 252 c 2,53,-1
 459 252 l 1,54,-1
 459 643 l 1,55,56
 433 650 433 650 377 662 c 1,50,-1
377 791 m 1,57,58
 411 781 411 781 459 772 c 1,59,-1
 459 1108 l 1,60,61
 427 1112 427 1112 405 1112 c 128,-1,62
 383 1112 383 1112 377 1110 c 1,63,-1
 377 791 l 1,57,58
532 272 m 1,64,65
 625 321 625 321 625 463 c 0,66,67
 625 551 625 551 532 610 c 1,68,-1
 532 272 l 1,64,65
EndSplineSet
Validated: 1
EndChar

StartChar: bar
Encoding: 124 124 59
Width: 305
VWidth: 0
Flags: W
HStem: 0 43G<92 205> 1393 41G<92 205>
VStem: 92 113<0 1434>
LayerCount: 2
Fore
SplineSet
205 1434 m 25,0,-1
 205 0 l 1,1,-1
 92 0 l 1,2,-1
 92 1434 l 1,3,-1
 205 1434 l 25,0,-1
EndSplineSet
Validated: 1
EndChar

StartChar: slash
Encoding: 47 47 60
Width: 831
VWidth: 0
Flags: W
HStem: 0 43G<61 199> 1393 41G<624 762>
LayerCount: 2
Fore
SplineSet
762 1434 m 1,0,-1
 182 0 l 1,1,-1
 61 0 l 1,2,-1
 641 1434 l 1,3,-1
 762 1434 l 1,0,-1
EndSplineSet
Validated: 1
EndChar

StartChar: backslash
Encoding: 92 92 61
Width: 831
VWidth: 0
Flags: W
HStem: 0 43G<624 762> 1393 41G<61 199>
LayerCount: 2
Fore
SplineSet
61 1434 m 1,0,-1
 182 1434 l 1,1,-1
 762 0 l 1,2,-1
 641 0 l 1,3,-1
 61 1434 l 1,0,-1
EndSplineSet
Validated: 1
EndChar

StartChar: question
Encoding: 63 63 62
Width: 882
VWidth: 0
Flags: W
HStem: 0 164<297 461> 369 215<328 430> 1270 102<226 519>
VStem: 297 164<0 164> 328 102<369 469> 657 164<716 1117>
LayerCount: 2
Fore
SplineSet
297 164 m 1,0,-1
 461 164 l 1,1,-1
 461 0 l 1,2,-1
 297 0 l 1,3,-1
 297 164 l 1,0,-1
446 483 m 1,4,-1
 430 369 l 1,5,-1
 328 369 l 1,6,-1
 297 584 l 1,7,-1
 369 584 l 2,8,9
 494 584 494 584 575.5 663 c 128,-1,10
 657 742 657 742 657 907.5 c 128,-1,11
 657 1073 657 1073 579.5 1171.5 c 128,-1,12
 502 1270 502 1270 358 1270 c 0,13,14
 264 1270 264 1270 212 1214 c 0,15,16
 190 1190 190 1190 164 1147 c 1,17,-1
 41 1194 l 1,18,19
 109 1280 109 1280 190 1326 c 128,-1,20
 271 1372 271 1372 389 1372 c 0,21,22
 588 1372 588 1372 704.5 1244.5 c 128,-1,23
 821 1117 821 1117 821 901 c 0,24,25
 821 626 821 626 585 520 c 0,26,27
 519 490 519 490 446 483 c 1,4,-1
EndSplineSet
Validated: 1
EndChar

StartChar: percent
Encoding: 37 37 65
Width: 1089
VWidth: 0
Flags: W
HStem: 156 109<702 871> 473 109<702 871> 729 109<211 379> 1047 109<211 379>
VStem: 82 109<858 1026> 399 109<858 1026> 573 109<284 453> 891 109<284 453>
LayerCount: 2
Fore
SplineSet
682 369 m 128,-1,1
 682 326 682 326 712.5 295 c 128,-1,2
 743 264 743 264 786 264 c 128,-1,3
 829 264 829 264 860 295 c 128,-1,4
 891 326 891 326 891 369 c 128,-1,5
 891 412 891 412 860 442.5 c 128,-1,6
 829 473 829 473 786 473 c 128,-1,7
 743 473 743 473 712.5 442.5 c 128,-1,0
 682 412 682 412 682 369 c 128,-1,1
573 369 m 128,-1,9
 573 458 573 458 635 520 c 128,-1,10
 697 582 697 582 786 582 c 128,-1,11
 875 582 875 582 937 520 c 128,-1,12
 999 458 999 458 999 369 c 128,-1,13
 999 280 999 280 937 218 c 128,-1,14
 875 156 875 156 786 156 c 128,-1,15
 697 156 697 156 635 218 c 128,-1,8
 573 280 573 280 573 369 c 128,-1,9
190 942 m 128,-1,17
 190 899 190 899 221 868.5 c 128,-1,18
 252 838 252 838 295 838 c 128,-1,19
 338 838 338 838 368.5 868.5 c 128,-1,20
 399 899 399 899 399 942 c 128,-1,21
 399 985 399 985 368.5 1016 c 128,-1,22
 338 1047 338 1047 295 1047 c 128,-1,23
 252 1047 252 1047 221 1016 c 128,-1,16
 190 985 190 985 190 942 c 128,-1,17
82 942 m 128,-1,25
 82 1031 82 1031 144 1093 c 128,-1,26
 206 1155 206 1155 295 1155 c 128,-1,27
 384 1155 384 1155 446 1093 c 128,-1,28
 508 1031 508 1031 508 942 c 128,-1,29
 508 853 508 853 446 791 c 128,-1,30
 384 729 384 729 295 729 c 128,-1,31
 206 729 206 729 144 791 c 128,-1,24
 82 853 82 853 82 942 c 128,-1,25
82 264 m 5,32,-1
 842 1047 l 1,33,-1
 999 1047 l 1,34,-1
 240 264 l 1,35,-1
 82 264 l 5,32,-1
EndSplineSet
Validated: 1
EndChar

StartChar: numbersign
Encoding: 35 35 66
Width: 991
VWidth: 0
Flags: W
HStem: 410 102<102 227 389 526 690 838> 840 102<154 303 465 602 766 889>
LayerCount: 2
Fore
SplineSet
373 410 m 1,0,-1
 322 123 l 1,1,-1
 176 123 l 1,2,-1
 227 410 l 1,3,-1
 102 410 l 1,4,-1
 102 512 l 1,5,-1
 244 512 l 1,6,-1
 303 840 l 1,7,-1
 154 840 l 1,8,-1
 154 942 l 1,9,-1
 319 942 l 1,10,-1
 371 1229 l 1,11,-1
 516 1229 l 1,12,-1
 465 942 l 1,13,-1
 621 942 l 1,14,-1
 670 1229 l 1,15,-1
 815 1229 l 1,16,-1
 766 942 l 1,17,-1
 889 942 l 1,18,-1
 889 840 l 1,19,-1
 748 840 l 1,20,-1
 690 512 l 1,21,-1
 838 512 l 1,22,-1
 838 410 l 1,23,-1
 672 410 l 1,24,-1
 623 123 l 1,25,-1
 477 123 l 1,26,-1
 526 410 l 1,27,-1
 373 410 l 1,0,-1
389 512 m 1,28,-1
 545 512 l 1,29,-1
 602 840 l 1,30,-1
 449 840 l 1,31,-1
 389 512 l 1,28,-1
EndSplineSet
Validated: 1
EndChar

StartChar: zero
Encoding: 48 48 67
Width: 942
VWidth: 0
Flags: W
HStem: -20 102<357 586> 1004 102<375 586>
VStem: 31 164<287 766> 748 164<299 786>
LayerCount: 2
Fore
SplineSet
748 543 m 128,-1,1
 748 653 748 653 714 758 c 0,2,3
 681 864 681 864 619 934 c 128,-1,4
 557 1004 557 1004 482 1004 c 0,5,6
 408 1004 408 1004 341 936 c 128,-1,7
 274 868 274 868 234.5 761 c 128,-1,8
 195 654 195 654 195 555 c 128,-1,9
 195 456 195 456 213 375.5 c 128,-1,10
 231 295 231 295 265.5 228.5 c 128,-1,11
 300 162 300 162 356.5 122 c 128,-1,12
 413 82 413 82 485 82 c 128,-1,13
 557 82 557 82 619 152.5 c 128,-1,14
 681 223 681 223 714.5 328 c 128,-1,0
 748 433 748 433 748 543 c 128,-1,1
911 543 m 128,-1,16
 911 387 911 387 852.5 258.5 c 128,-1,17
 794 130 794 130 688.5 55 c 128,-1,18
 583 -20 583 -20 454 -20 c 128,-1,19
 325 -20 325 -20 227 61.5 c 128,-1,20
 129 143 129 143 80 270 c 128,-1,21
 31 397 31 397 31 540 c 128,-1,22
 31 683 31 683 93.5 814.5 c 128,-1,23
 156 946 156 946 254 1026 c 128,-1,24
 352 1106 352 1106 468 1106 c 128,-1,25
 584 1106 584 1106 689 1031 c 128,-1,26
 794 956 794 956 852.5 827.5 c 128,-1,15
 911 699 911 699 911 543 c 128,-1,16
EndSplineSet
Validated: 1
EndChar

StartChar: one
Encoding: 49 49 68
Width: 942
VWidth: 0
Flags: W
HStem: 0 43G<410 573> 961 102<305 410>
VStem: 410 164<0 973>
LayerCount: 2
Fore
SplineSet
573 1096 m 1,0,-1
 573 0 l 1,1,-1
 410 0 l 1,2,-1
 410 973 l 1,3,-1
 305 961 l 1,4,-1
 305 1063 l 1,5,-1
 573 1096 l 1,0,-1
EndSplineSet
Validated: 1
EndChar

StartChar: two
Encoding: 50 50 69
Width: 942
VWidth: 0
Flags: W
HStem: 0 102<287 819> 983 102<331 582>
VStem: 123 164<102 201> 649 164<627 912>
LayerCount: 2
Fore
SplineSet
123 0 m 1,0,1
 124 184 124 184 228 302 c 0,2,3
 302 385 302 385 400 452.5 c 128,-1,4
 498 520 498 520 544 559 c 0,5,6
 648 647 648 647 649 762 c 0,7,8
 649 875 649 875 596 929 c 128,-1,9
 543 983 543 983 472 983 c 0,10,11
 313 983 313 983 252 827 c 1,12,-1
 123 877 l 1,13,14
 222 1085 222 1085 500 1085 c 0,15,16
 633 1085 633 1085 722.5 993 c 128,-1,17
 812 901 812 901 812 765.5 c 128,-1,18
 812 630 812 630 708 536 c 0,19,20
 649 483 649 483 543.5 413 c 128,-1,21
 438 343 438 343 392 304 c 0,22,23
 288 216 288 216 287 102 c 1,24,-1
 819 102 l 1,25,-1
 819 0 l 1,26,-1
 123 0 l 1,0,1
EndSplineSet
Validated: 1
EndChar

StartChar: three
Encoding: 51 51 70
Width: 942
VWidth: 0
Flags: W
HStem: -258 102<316 565> 422 102<379 553> 983 102<332 572>
VStem: 639 164<606 912> 678 164<-36 295>
LayerCount: 2
Fore
SplineSet
379 422 m 5,0,-1
 379 524 l 1,1,2
 639 524 639 524 639 760 c 0,3,4
 639 872 639 872 585.5 927.5 c 128,-1,5
 532 983 532 983 456.5 983 c 128,-1,6
 381 983 381 983 337 945 c 128,-1,7
 293 907 293 907 262 827 c 1,8,-1
 133 877 l 1,9,10
 180 975 180 975 262 1030 c 128,-1,11
 344 1085 344 1085 483 1085 c 128,-1,12
 622 1085 622 1085 712.5 992 c 128,-1,13
 803 899 803 899 803 760 c 0,14,15
 803 558 803 558 639 473 c 1,16,17
 842 375 842 375 842 115 c 0,18,19
 842 -33 842 -33 732.5 -145.5 c 128,-1,20
 623 -258 623 -258 482 -258 c 128,-1,21
 341 -258 341 -258 243 -198.5 c 128,-1,22
 145 -139 145 -139 100 -45 c 1,23,-1
 229 4 l 1,24,25
 259 -72 259 -72 318.5 -114 c 128,-1,26
 378 -156 378 -156 454.5 -156 c 128,-1,27
 531 -156 531 -156 604.5 -76.5 c 128,-1,28
 678 3 678 3 678 115 c 0,29,30
 678 242 678 242 614 328 c 0,31,32
 542 422 542 422 379 422 c 5,0,-1
EndSplineSet
Validated: 1
EndChar

StartChar: four
Encoding: 52 52 71
Width: 942
VWidth: 0
Flags: W
HStem: 0 102<225 571 735 846>
VStem: 571 164<-238 0 102 844>
LayerCount: 2
Fore
SplineSet
96 68 m 1,0,-1
 571 1085 l 1,1,-1
 735 1085 l 1,2,-1
 735 102 l 1,3,-1
 846 102 l 1,4,-1
 846 0 l 1,5,-1
 735 0 l 1,6,-1
 735 -238 l 1,7,-1
 571 -238 l 1,8,-1
 571 0 l 1,9,-1
 96 0 l 1,10,-1
 96 68 l 1,0,-1
571 102 m 1,11,-1
 571 844 l 1,12,-1
 225 102 l 1,13,-1
 571 102 l 1,11,-1
EndSplineSet
Validated: 1
EndChar

StartChar: five
Encoding: 53 53 72
Width: 942
VWidth: 0
Flags: W
HStem: -258 102<316 565> 983 102<422 733>
VStem: 678 164<-27 366>
LayerCount: 2
Fore
SplineSet
182 555 m 1,0,-1
 274 1085 l 1,1,-1
 733 1085 l 1,2,-1
 733 983 l 1,3,-1
 422 983 l 1,4,-1
 365 647 l 1,5,6
 682 614 682 614 783 434 c 0,7,8
 842 329 842 329 842 166 c 0,9,10
 842 73 842 73 812 -8 c 0,11,12
 782 -88 782 -88 732 -142 c 0,13,14
 625 -258 625 -258 483 -258 c 128,-1,15
 341 -258 341 -258 243 -198.5 c 128,-1,16
 145 -139 145 -139 100 -45 c 1,17,-1
 229 4 l 1,18,19
 259 -72 259 -72 318.5 -114 c 128,-1,20
 378 -156 378 -156 459 -156 c 0,21,22
 532 -156 532 -156 600 -78 c 0,23,24
 678 10 678 10 678 166 c 0,25,26
 678 453 678 453 425 526 c 0,27,28
 325 555 325 555 182 555 c 1,0,-1
EndSplineSet
Validated: 1
EndChar

StartChar: six
Encoding: 54 54 73
Width: 942
VWidth: 0
Flags: W
HStem: -20 102<357 570> 586 102<311 581>
VStem: 111 164<186 545> 668 164<187 496>
LayerCount: 2
Fore
SplineSet
285 555 m 1,0,1
 274 458 274 458 274 385 c 0,2,3
 274 240 274 240 326.5 161 c 128,-1,4
 379 82 379 82 462.5 82 c 128,-1,5
 546 82 546 82 607 162.5 c 128,-1,6
 668 243 668 243 668 342.5 c 128,-1,7
 668 442 668 442 611 514 c 128,-1,8
 554 586 554 586 472 586 c 128,-1,9
 390 586 390 586 285 555 c 1,0,1
309 674 m 1,10,11
 369 688 369 688 446 688 c 0,12,13
 608 688 608 688 719.5 593.5 c 128,-1,14
 831 499 831 499 831 351 c 128,-1,15
 831 203 831 203 730.5 91.5 c 128,-1,16
 630 -20 630 -20 478.5 -20 c 128,-1,17
 327 -20 327 -20 219 90 c 128,-1,18
 111 200 111 200 111 385 c 0,19,20
 112 682 112 682 264 946 c 0,21,22
 335 1069 335 1069 454 1191 c 0,23,24
 520 1257 520 1257 590 1309 c 0,25,26
 660 1360 660 1360 680 1372 c 2,27,-1
 700 1384 l 1,28,-1
 770 1323 l 1,29,30
 717 1292 717 1292 646 1229.5 c 128,-1,31
 575 1167 575 1167 518 1099 c 128,-1,32
 461 1031 461 1031 400.5 916 c 128,-1,33
 340 801 340 801 309 674 c 1,10,11
EndSplineSet
Validated: 1
EndChar

StartChar: seven
Encoding: 55 55 74
Width: 942
VWidth: 0
Flags: W
HStem: 983 102<170 637>
VStem: 139 664
LayerCount: 2
Fore
SplineSet
170 1085 m 1,0,-1
 803 1085 l 1,1,-1
 803 983 l 1,2,-1
 475 -238 l 1,3,-1
 309 -238 l 1,4,-1
 637 983 l 1,5,-1
 139 983 l 1,6,-1
 170 1085 l 1,0,-1
EndSplineSet
Validated: 1
EndChar

StartChar: nine
Encoding: 57 57 75
Width: 942
VWidth: 0
Flags: W
HStem: 397 102<361 631> 1004 102<338 565>
VStem: 111 164<590 910> 668 164<540 890>
LayerCount: 2
Fore
SplineSet
657 530 m 1,0,1
 668 627 668 627 668 700 c 0,2,3
 668 841 668 841 602.5 922.5 c 128,-1,4
 537 1004 537 1004 453 1004 c 0,5,6
 274 1004 274 1004 274 733 c 0,7,8
 274 644 274 644 331 572 c 128,-1,9
 388 500 388 500 471.5 500 c 128,-1,10
 555 500 555 500 657 530 c 1,0,1
633 412 m 1,11,12
 568 397 568 397 496 397 c 0,13,14
 334 397 334 397 222.5 491.5 c 128,-1,15
 111 586 111 586 111 736 c 128,-1,16
 111 886 111 886 215 996 c 128,-1,17
 319 1106 319 1106 483 1106 c 0,18,19
 616 1106 616 1106 722 998 c 0,20,21
 831 887 831 887 831 703 c 0,22,23
 830 403 830 403 678 139 c 0,24,25
 610 20 610 20 488 -106 c 0,26,27
 424 -172 424 -172 353 -224 c 128,-1,28
 282 -276 282 -276 262 -288 c 2,29,-1
 242 -299 l 1,30,-1
 172 -238 l 1,31,32
 284 -172 284 -172 404 -34 c 0,33,34
 570 160 570 160 633 412 c 1,11,12
EndSplineSet
Validated: 1
EndChar

StartChar: eight
Encoding: 56 56 76
Width: 942
VWidth: 0
Flags: W
HStem: -20 102<342 623> 1352 102<368 575>
VStem: 61 174<198 550> 111 174<963 1265> 676 174<937 1242> 707 174<184 523>
LayerCount: 2
Fore
SplineSet
520 821 m 1,0,1
 676 936 676 936 676 1085 c 0,2,3
 676 1196 676 1196 611.5 1274 c 128,-1,4
 547 1352 547 1352 472.5 1352 c 128,-1,5
 398 1352 398 1352 341.5 1284 c 128,-1,6
 285 1216 285 1216 285 1102 c 0,7,8
 286 998 286 998 358 932 c 0,9,10
 416 878 416 878 520 821 c 1,0,1
645 752 m 1,11,12
 818 643 818 643 862 501 c 0,13,14
 880 440 880 440 881 365 c 0,15,16
 881 196 881 196 765.5 88 c 128,-1,17
 650 -20 650 -20 468 -20 c 128,-1,18
 286 -20 286 -20 173.5 93.5 c 128,-1,19
 61 207 61 207 61 365 c 0,20,21
 61 614 61 614 317 760 c 1,22,23
 254 799 254 799 212 840 c 128,-1,24
 170 881 170 881 140.5 948.5 c 128,-1,25
 111 1016 111 1016 111 1107.5 c 128,-1,26
 111 1199 111 1199 163.5 1280.5 c 128,-1,27
 216 1362 216 1362 303.5 1408 c 128,-1,28
 391 1454 391 1454 492 1454 c 0,29,30
 641 1454 641 1454 745.5 1348.5 c 128,-1,31
 850 1243 850 1243 850 1085 c 0,32,33
 850 892 850 892 645 752 c 1,11,12
430 698 m 1,34,35
 236 589 236 589 236 365 c 0,36,37
 236 246 236 246 303 164 c 128,-1,38
 370 82 370 82 484 82 c 0,39,40
 707 82 707 82 707 365 c 0,41,42
 707 483 707 483 642 552 c 0,43,44
 578 619 578 619 490 666 c 0,45,46
 470 677 470 677 430 698 c 1,34,35
EndSplineSet
Validated: 1
EndChar

StartChar: ampersand
Encoding: 38 38 77
Width: 1163
VWidth: 0
Flags: W
HStem: -20 102<390 735> 0 43G<901 1061> 1270 102<499 704>
VStem: 61 164<253 652> 311 139<913 1223> 963 123<452 829>
LayerCount: 2
Fore
SplineSet
889 1208 m 1,0,-1
 731 1174 l 1,1,2
 707 1225 707 1225 689 1242 c 0,3,4
 661 1270 661 1270 591.5 1270 c 128,-1,5
 522 1270 522 1270 486.5 1212.5 c 128,-1,6
 451 1155 451 1155 451 1090 c 0,7,8
 451 1024 451 1024 484 942 c 0,9,10
 528 832 528 832 598 725 c 2,11,-1
 877 289 l 1,12,13
 963 476 963 476 963 877 c 1,14,-1
 1085 829 l 1,15,16
 1085 425 1085 425 934 199 c 1,17,-1
 1061 0 l 1,18,-1
 928 0 l 1,19,-1
 858 109 l 1,20,21
 726 -20 726 -20 524 -20 c 128,-1,22
 322 -20 322 -20 191.5 109.5 c 128,-1,23
 61 239 61 239 61 451 c 0,24,25
 61 615 61 615 147 735 c 128,-1,26
 233 855 233 855 360 899 c 1,27,28
 311 999 311 999 311 1081 c 0,29,30
 311 1236 311 1236 382.5 1304 c 128,-1,31
 454 1372 454 1372 618 1372 c 0,32,33
 815 1372 815 1372 889 1208 c 1,0,-1
418 799 m 1,34,35
 332 762 332 762 278.5 670.5 c 128,-1,36
 225 579 225 579 225 431 c 128,-1,37
 225 283 225 283 316.5 182.5 c 128,-1,38
 408 82 408 82 563 82 c 128,-1,39
 718 82 718 82 809 184 c 1,40,-1
 418 799 l 1,34,35
EndSplineSet
Validated: 1
EndChar

StartChar: parenleft
Encoding: 40 40 78
Width: 548
VWidth: 0
Flags: W
HStem: 0 43G<330 446> 1393 41G<330 446>
VStem: 102 164<373 1061>
LayerCount: 2
Fore
SplineSet
128 446 m 128,-1,1
 102 574 102 574 102 697.5 c 128,-1,2
 102 821 102 821 115.5 917.5 c 128,-1,3
 129 1014 129 1014 150 1083.5 c 128,-1,4
 171 1153 171 1153 197 1213.5 c 128,-1,5
 223 1274 223 1274 249 1314 c 0,6,7
 304 1397 304 1397 344 1434 c 1,8,-1
 446 1434 l 1,9,10
 335 1273 335 1273 286 972 c 0,11,12
 266 848 266 848 266 716 c 128,-1,13
 266 584 266 584 284 462 c 0,14,15
 300 351 300 351 330 260 c 0,16,17
 386 92 386 92 428 28 c 2,18,-1
 446 0 l 1,19,-1
 344 0 l 1,20,21
 314 24 314 24 266 96 c 128,-1,22
 218 168 218 168 186 243 c 128,-1,0
 154 318 154 318 128 446 c 128,-1,1
EndSplineSet
Validated: 1
EndChar

StartChar: parenright
Encoding: 41 41 79
Width: 548
VWidth: 0
Flags: W
HStem: 0 43G<102 219> 1393 41G<102 219>
VStem: 283 164<373 1061>
LayerCount: 2
Fore
SplineSet
420 988 m 128,-1,1
 446 860 446 860 446 736.5 c 128,-1,2
 446 613 446 613 432.5 516.5 c 128,-1,3
 419 420 419 420 398 350 c 128,-1,4
 377 280 377 280 351 220 c 0,5,6
 323 155 323 155 300 120 c 0,7,8
 247 38 247 38 205 0 c 1,9,-1
 102 0 l 1,10,11
 216 164 216 164 264 462 c 0,12,13
 284 583 284 583 284 711 c 0,14,15
 284 714 284 714 284 718 c 0,16,17
 284 850 284 850 265 972 c 128,-1,18
 246 1094 246 1094 219 1174 c 0,19,20
 162 1344 162 1344 120 1406 c 2,21,-1
 102 1434 l 1,22,-1
 205 1434 l 1,23,24
 235 1410 235 1410 282.5 1338 c 128,-1,25
 330 1266 330 1266 362 1191 c 128,-1,0
 394 1116 394 1116 420 988 c 128,-1,1
EndSplineSet
Validated: 1
EndChar

StartChar: asterisk
Encoding: 42 42 80
Width: 864
VWidth: 0
Flags: W
HStem: 678 674
LayerCount: 2
Fore
SplineSet
391 1057 m 1,0,-1
 369 1352 l 1,1,-1
 496 1352 l 1,2,-1
 473 1057 l 1,3,-1
 748 1169 l 1,4,-1
 786 1049 l 1,5,-1
 498 979 l 1,6,-1
 690 754 l 1,7,-1
 588 678 l 1,8,-1
 432 930 l 1,9,-1
 276 678 l 1,10,-1
 174 754 l 1,11,-1
 367 979 l 1,12,-1
 78 1049 l 1,13,-1
 117 1169 l 1,14,-1
 391 1057 l 1,0,-1
391 1057 m 1,15,-1
367 979 m 1,16,-1
432 930 m 1,17,-1
498 979 m 1,18,-1
473 1057 m 1,19,-1
EndSplineSet
Validated: 1
EndChar

StartChar: plus
Encoding: 43 43 81
Width: 856
VWidth: 0
Flags: W
HStem: 348 102<82 377 479 774>
VStem: 377 102<53 348 451 745>
LayerCount: 2
Fore
SplineSet
479 348 m 1,0,-1
 479 53 l 1,1,-1
 377 53 l 1,2,-1
 377 348 l 1,3,-1
 82 348 l 1,4,-1
 82 451 l 1,5,-1
 377 451 l 1,6,-1
 377 745 l 1,7,-1
 479 745 l 1,8,-1
 479 451 l 1,9,-1
 774 451 l 1,10,-1
 774 348 l 1,11,-1
 479 348 l 1,0,-1
EndSplineSet
Validated: 1
EndChar

StartChar: hyphen
Encoding: 45 45 82
Width: 649
VWidth: 0
Flags: W
HStem: 348 102<82 567>
VStem: 82 485<348 451>
LayerCount: 2
Fore
SplineSet
82 451 m 1,0,-1
 567 451 l 1,1,-1
 567 348 l 1,2,-1
 82 348 l 1,3,-1
 82 451 l 1,0,-1
EndSplineSet
Validated: 1
EndChar

StartChar: less
Encoding: 60 60 83
Width: 856
VWidth: 0
Flags: W
HStem: 860 41G<623 711>
VStem: 115 627
LayerCount: 2
Fore
SplineSet
115 504 m 1,0,-1
 682 901 l 1,1,-1
 741 817 l 1,2,-1
 293 504 l 1,3,-1
 741 193 l 1,4,-1
 682 109 l 1,5,-1
 115 504 l 1,0,-1
EndSplineSet
Validated: 1
EndChar

StartChar: greater
Encoding: 62 62 84
Width: 856
VWidth: 0
Flags: W
HStem: 860 41G<145 233>
VStem: 115 627
LayerCount: 2
Fore
SplineSet
741 506 m 5,0,-1
 174 109 l 1,1,-1
 115 193 l 1,2,-1
 563 506 l 1,3,-1
 115 817 l 1,4,-1
 174 901 l 1,5,-1
 741 506 l 5,0,-1
EndSplineSet
Validated: 1
EndChar

StartChar: equal
Encoding: 61 61 85
Width: 708
VWidth: 0
Flags: W
HStem: 348 102<82 627> 573 102<82 627>
VStem: 82 545<348 451 573 676>
LayerCount: 2
Fore
SplineSet
82 676 m 1,0,-1
 627 676 l 1,1,-1
 627 573 l 1,2,-1
 82 573 l 1,3,-1
 82 676 l 1,0,-1
82 451 m 1,4,-1
 627 451 l 1,5,-1
 627 348 l 1,6,-1
 82 348 l 1,7,-1
 82 451 l 1,4,-1
EndSplineSet
Validated: 1
EndChar

StartChar: at
Encoding: 64 64 86
Width: 1331
VWidth: 0
Flags: W
HStem: -20 102<562 954> 262 102<878 998> 279 66<595 758> 860 66<596 734> 1126 102<518 854>
VStem: 82 174<390 840> 426 104<400 801> 766 102<399 837> 1051 174<518 923>
LayerCount: 2
Fore
SplineSet
872 745 m 1,0,1
 868 512 l 1,2,3
 868 426 868 426 882.5 395.5 c 128,-1,4
 897 365 897 365 926 365 c 0,5,6
 1051 365 1051 365 1051 723 c 0,7,8
 1051 816 1051 816 1019 895 c 128,-1,9
 987 974 987 974 937 1023 c 0,10,11
 832 1126 832 1126 727 1126 c 128,-1,12
 622 1126 622 1126 541 1093 c 128,-1,13
 460 1060 460 1060 395.5 998 c 128,-1,14
 331 936 331 936 293.5 836.5 c 128,-1,15
 256 737 256 737 256 621 c 128,-1,16
 256 505 256 505 289 413.5 c 128,-1,17
 322 322 322 322 374 262 c 0,18,19
 428 202 428 202 494 161 c 0,20,21
 619 82 619 82 752 82 c 0,22,23
 990 82 990 82 1108 264 c 1,24,-1
 1229 209 l 1,25,26
 1149 106 1149 106 1015.5 43 c 128,-1,27
 882 -20 882 -20 721 -20 c 0,28,29
 544 -20 544 -20 382 80 c 0,30,31
 196 194 196 194 123 384 c 0,32,33
 82 490 82 490 82 607 c 128,-1,34
 82 724 82 724 118.5 823.5 c 128,-1,35
 155 923 155 923 216 995.5 c 128,-1,36
 277 1068 277 1068 355 1122 c 0,37,38
 511 1229 511 1229 679 1229 c 0,39,-1
 682 1229 l 0,40,41
 926 1229 926 1229 1075.5 1092 c 128,-1,42
 1225 955 1225 955 1225 723 c 0,43,44
 1225 610 1225 610 1175.5 502 c 128,-1,45
 1126 394 1126 394 1049 328 c 128,-1,46
 972 262 972 262 901 262 c 128,-1,47
 830 262 830 262 801 319 c 1,48,49
 743 279 743 279 647 279 c 0,50,51
 426 279 426 279 426 614 c 0,52,53
 426 751 426 751 491 838.5 c 128,-1,54
 556 926 556 926 650.5 926 c 128,-1,55
 745 926 745 926 808.5 881 c 128,-1,56
 872 836 872 836 872 745 c 1,0,1
766 512 m 1,57,-1
 770 745 l 2,58,59
 770 783 770 783 739.5 821.5 c 128,-1,60
 709 860 709 860 676 860 c 0,61,62
 605 860 605 860 567.5 792.5 c 128,-1,63
 530 725 530 725 530 611.5 c 128,-1,64
 530 498 530 498 564 421 c 128,-1,65
 598 344 598 344 666 344 c 0,66,67
 710 344 710 344 731.5 355 c 128,-1,68
 753 366 753 366 774 397 c 1,69,70
 766 438 766 438 766 512 c 1,57,-1
EndSplineSet
Validated: 1
EndChar

StartChar: bracketleft
Encoding: 91 91 87
Width: 432
VWidth: 0
Flags: W
HStem: 0 82<205 340> 1270 82<205 340>
VStem: 92 248<0 82 1270 1352> 92 113<82 1270>
LayerCount: 2
Fore
SplineSet
340 0 m 1,0,-1
 92 0 l 1,1,-1
 92 1352 l 1,2,-1
 340 1352 l 1,3,-1
 340 1270 l 1,4,-1
 205 1270 l 1,5,-1
 205 82 l 1,6,-1
 340 82 l 1,7,-1
 340 0 l 1,0,-1
EndSplineSet
Validated: 1
EndChar

StartChar: bracketright
Encoding: 93 93 88
Width: 432
VWidth: 0
Flags: W
HStem: 0 82<92 227> 1270 82<92 227>
VStem: 92 248<0 82 1270 1352> 227 113<82 1270>
LayerCount: 2
Fore
SplineSet
92 1352 m 1,0,-1
 340 1352 l 1,1,-1
 340 0 l 1,2,-1
 92 0 l 1,3,-1
 92 82 l 1,4,-1
 227 82 l 1,5,-1
 227 1270 l 1,6,-1
 92 1270 l 1,7,-1
 92 1352 l 1,0,-1
EndSplineSet
Validated: 1
EndChar

StartChar: underscore
Encoding: 95 95 89
Width: 692
VWidth: 0
Flags: W
HStem: -184 102<0 692>
LayerCount: 2
Fore
SplineSet
0 -82 m 1,0,-1
 692 -82 l 1,1,-1
 692 -184 l 1,2,-1
 0 -184 l 1,3,-1
 0 -82 l 1,0,-1
EndSplineSet
Validated: 1
EndChar

StartChar: braceleft
Encoding: 123 123 90
Width: 530
VWidth: 0
Flags: W
HStem: 0 43G<208 449> 1393 41G<208 449>
VStem: 82 367
LayerCount: 2
Fore
SplineSet
346 1434 m 1,0,-1
 449 1434 l 1,1,2
 346 1358 346 1358 338 1155 c 0,3,4
 334 1072 334 1072 328 989 c 0,5,6
 314 792 314 792 184 717 c 1,7,8
 244 683 244 683 278 624 c 128,-1,9
 312 565 312 565 320 500.5 c 128,-1,10
 328 436 328 436 334 362 c 0,11,12
 340 286 340 286 344 222 c 0,13,14
 355 68 355 68 449 0 c 1,15,-1
 346 0 l 1,16,17
 236 63 236 63 206 187 c 0,18,19
 185 274 185 274 181 380 c 0,20,21
 176 486 176 486 170 540 c 0,22,23
 155 664 155 664 82 717 c 1,24,25
 156 770 156 770 170 894 c 0,26,27
 176 948 176 948 179 1008.5 c 128,-1,28
 182 1069 182 1069 188 1130 c 0,29,30
 192 1191 192 1191 206 1247 c 0,31,32
 236 1371 236 1371 346 1434 c 1,0,-1
EndSplineSet
Validated: 1
EndChar

StartChar: braceright
Encoding: 125 125 91
Width: 530
VWidth: 0
Flags: W
HStem: 0 43G<82 323> 1393 41G<82 323>
VStem: 82 367
LayerCount: 2
Fore
SplineSet
184 0 m 1,0,-1
 82 0 l 1,1,2
 186 76 186 76 194 279 c 0,3,4
 198 362 198 362 202 445 c 0,5,6
 215 642 215 642 346 717 c 1,7,8
 286 751 286 751 252 810 c 128,-1,9
 218 869 218 869 210 933.5 c 128,-1,10
 202 998 202 998 196 1072 c 0,11,12
 190 1148 190 1148 186 1212 c 0,13,14
 175 1366 175 1366 82 1434 c 1,15,-1
 184 1434 l 1,16,17
 249 1397 249 1397 286 1336 c 128,-1,18
 323 1275 323 1275 332.5 1209.5 c 128,-1,19
 342 1144 342 1144 347.5 1069 c 128,-1,20
 353 994 353 994 356 930 c 0,21,22
 363 780 363 780 449 717 c 1,23,24
 363 654 363 654 356 504 c 0,25,26
 348 330 348 330 335 245 c 0,27,28
 310 72 310 72 184 0 c 1,0,-1
EndSplineSet
Validated: 1
EndChar

StartChar: gravecomb
Encoding: 768 768 92
Width: 0
VWidth: 0
Flags: W
HStem: 1255 387
VStem: -696 350
AnchorPoint: "mktop" -453 1638 basemark 0
AnchorPoint: "mktop" -455 1188 mark 0
AnchorPoint: "top" -455 1188 mark 0
LayerCount: 2
Fore
SplineSet
-586 1642 m 25,0,-1
 -346 1309 l 1,1,-1
 -410 1255 l 1,2,-1
 -696 1550 l 1,3,-1
 -586 1642 l 25,0,-1
EndSplineSet
Validated: 1
EndChar

StartChar: acutecomb
Encoding: 769 769 93
Width: 0
VWidth: 0
Flags: W
HStem: 1255 387
VStem: -696 350
AnchorPoint: "mktop" -586 1638 basemark 0
AnchorPoint: "mktop" -588 1189 mark 0
AnchorPoint: "top" -588 1188 mark 0
LayerCount: 2
Fore
SplineSet
-457 1642 m 25,0,-1
 -346 1550 l 1,1,-1
 -633 1255 l 1,2,-1
 -696 1309 l 1,3,-1
 -457 1642 l 25,0,-1
EndSplineSet
Validated: 1
EndChar

StartChar: uni0302
Encoding: 770 770 94
Width: 0
VWidth: 0
Flags: W
HStem: 1257 299
VStem: -862 551
AnchorPoint: "mktop" -586 1556 basemark 0
AnchorPoint: "mktop" -588 1188 mark 0
AnchorPoint: "top" -588 1188 mark 0
LayerCount: 2
Fore
SplineSet
-311 1348 m 1,0,-1
 -403 1257 l 1,1,-1
 -586 1434 l 1,2,-1
 -770 1257 l 1,3,-1
 -862 1348 l 1,4,-1
 -586 1556 l 1,5,-1
 -311 1348 l 1,0,-1
EndSplineSet
Validated: 1
EndChar

StartChar: tildecomb
Encoding: 771 771 95
Width: 0
VWidth: 0
Flags: W
HStem: 1270 117<-585 -386> 1335 117<-769 -570>
VStem: -860 84<1270 1320> -379 84<1402 1452>
AnchorPoint: "mktop" -586 1479 basemark 0
AnchorPoint: "mktop" -586 1188 mark 0
AnchorPoint: "top" -588 1188 mark 0
LayerCount: 2
Fore
SplineSet
-379 1452 m 1,0,-1
 -295 1452 l 1,1,2
 -304 1372 -304 1372 -357 1321 c 128,-1,3
 -410 1270 -410 1270 -496 1270 c 0,4,5
 -534 1270 -534 1270 -592.5 1302.5 c 128,-1,6
 -651 1335 -651 1335 -670 1335 c 0,7,8
 -767 1335 -767 1335 -776 1270 c 1,9,-1
 -860 1270 l 1,10,11
 -851 1350 -851 1350 -798 1401 c 128,-1,12
 -745 1452 -745 1452 -659 1452 c 0,13,14
 -621 1452 -621 1452 -562.5 1419 c 128,-1,15
 -504 1386 -504 1386 -485 1386 c 0,16,17
 -388 1386 -388 1386 -379 1452 c 1,0,-1
EndSplineSet
Validated: 1
EndChar

StartChar: uni0304
Encoding: 772 772 96
Width: 0
VWidth: 0
Flags: W
HStem: 1270 82<-834 -362>
VStem: -834 471<1270 1352>
AnchorPoint: "mktop" -587 1187 mark 0
AnchorPoint: "mktop" -586 1352 basemark 0
AnchorPoint: "top" -588 1188 mark 0
LayerCount: 2
Fore
SplineSet
-834 1352 m 1,0,-1
 -362 1352 l 1,1,-1
 -362 1270 l 1,2,-1
 -834 1270 l 1,3,-1
 -834 1352 l 1,0,-1
EndSplineSet
Validated: 1
EndChar

StartChar: uni0306
Encoding: 774 774 97
Width: 0
VWidth: 0
Flags: W
HStem: 1270 117<-710 -466>
VStem: -819 78<1427 1464> -434 78<1427 1464>
AnchorPoint: "mktop" -586 1491 basemark 0
AnchorPoint: "mktop" -586 1192 mark 0
AnchorPoint: "top" -588 1188 mark 0
LayerCount: 2
Fore
SplineSet
-689.5 1416 m 128,-1,1
 -643 1386 -643 1386 -587.5 1386 c 128,-1,2
 -532 1386 -532 1386 -485.5 1416 c 128,-1,3
 -439 1446 -439 1446 -434 1481 c 1,4,-1
 -356 1460 l 1,5,6
 -365 1382 -365 1382 -432.5 1326 c 128,-1,7
 -500 1270 -500 1270 -588 1270 c 128,-1,8
 -676 1270 -676 1270 -743 1326 c 128,-1,9
 -810 1382 -810 1382 -819 1460 c 1,10,-1
 -741 1481 l 1,11,0
 -736 1446 -736 1446 -689.5 1416 c 128,-1,1
EndSplineSet
Validated: 1
EndChar

StartChar: uni0307
Encoding: 775 775 98
Width: 0
VWidth: 0
Flags: W
HStem: 1270 178<-674 -510>
VStem: -674 164<1270 1448>
AnchorPoint: "mktop" -586 1454 basemark 0
AnchorPoint: "mktop" -586 1188 mark 0
AnchorPoint: "top" -588 1188 mark 0
LayerCount: 2
Fore
SplineSet
-674 1448 m 1,0,-1
 -510 1448 l 1,1,-1
 -510 1270 l 1,2,-1
 -674 1270 l 1,3,-1
 -674 1448 l 1,0,-1
EndSplineSet
Validated: 1
EndChar

StartChar: uni030A
Encoding: 778 778 100
Width: 0
VWidth: 0
Flags: W
HStem: 1167 61<-655 -520> 1417 61<-655 -520>
VStem: -743 61<1255 1391> -494 61<1255 1391>
AnchorPoint: "mktop" -588 1479 basemark 0
AnchorPoint: "mktop" -588 1188 mark 0
AnchorPoint: "top" -588 1188 mark 0
LayerCount: 2
Fore
SplineSet
-682 1323 m 128,-1,1
 -682 1285 -682 1285 -654 1257 c 128,-1,2
 -626 1229 -626 1229 -588 1229 c 128,-1,3
 -550 1229 -550 1229 -522 1257 c 128,-1,4
 -494 1285 -494 1285 -494 1323 c 128,-1,5
 -494 1361 -494 1361 -522 1389 c 128,-1,6
 -550 1417 -550 1417 -588 1417 c 128,-1,7
 -626 1417 -626 1417 -654 1389 c 128,-1,0
 -682 1361 -682 1361 -682 1323 c 128,-1,1
-743 1323 m 128,-1,9
 -743 1388 -743 1388 -697.5 1433.5 c 128,-1,10
 -652 1479 -652 1479 -588 1479 c 128,-1,11
 -524 1479 -524 1479 -478 1433.5 c 128,-1,12
 -432 1388 -432 1388 -432 1323 c 128,-1,13
 -432 1258 -432 1258 -478 1212.5 c 128,-1,14
 -524 1167 -524 1167 -588 1167 c 128,-1,15
 -652 1167 -652 1167 -697.5 1212.5 c 128,-1,8
 -743 1258 -743 1258 -743 1323 c 128,-1,9
EndSplineSet
Validated: 1
EndChar

StartChar: uni030C
Encoding: 780 780 102
Width: 0
VWidth: 0
Flags: W
HStem: 1139 387
VStem: -827 479
AnchorPoint: "mktop" -586 1526 basemark 0
AnchorPoint: "mktop" -586 1188 mark 0
AnchorPoint: "top" -588 1188 mark 0
LayerCount: 2
Fore
SplineSet
-588 1139 m 1,0,-1
 -827 1473 l 1,1,-1
 -764 1526 l 1,2,-1
 -588 1346 l 1,3,-1
 -412 1526 l 1,4,-1
 -348 1473 l 1,5,-1
 -588 1139 l 1,0,-1
EndSplineSet
Validated: 1
EndChar

StartChar: uni0311
Encoding: 785 785 104
Width: 0
VWidth: 0
Flags: W
HStem: 1343 117<-710 -466>
VStem: -819 78<1266 1303> -434 78<1266 1303>
AnchorPoint: "mktop" -588 1460 basemark 0
AnchorPoint: "mktop" -588 1188 mark 0
AnchorPoint: "top" -588 1188 mark 0
LayerCount: 2
Fore
SplineSet
-588 1343 m 128,-1,1
 -644 1343 -644 1343 -690 1313.5 c 128,-1,2
 -736 1284 -736 1284 -741 1249 c 1,3,-1
 -819 1270 l 1,4,5
 -810 1348 -810 1348 -743 1404 c 128,-1,6
 -676 1460 -676 1460 -588 1460 c 128,-1,7
 -500 1460 -500 1460 -432.5 1404 c 128,-1,8
 -365 1348 -365 1348 -356 1270 c 1,9,-1
 -434 1249 l 1,10,11
 -439 1284 -439 1284 -485.5 1313.5 c 128,-1,0
 -532 1343 -532 1343 -588 1343 c 128,-1,1
EndSplineSet
Validated: 1
EndChar

StartChar: uni0312
Encoding: 786 786 105
Width: 0
VWidth: 0
Flags: W
HStem: 1270 367<-597 -563>
VStem: -668 147<1270 1482>
AnchorPoint: "mktop" -582 1636 basemark 0
AnchorPoint: "mktop" -588 1188 mark 0
AnchorPoint: "top" -588 1188 mark 0
LayerCount: 2
Fore
SplineSet
-520 1270 m 1,0,-1
 -668 1270 l 1,1,2
 -668 1472 -668 1472 -634 1554 c 0,3,4
 -619 1591 -619 1591 -605.5 1611.5 c 128,-1,5
 -592 1632 -592 1632 -590 1636 c 1,6,-1
 -514 1636 l 1,7,8
 -563 1567 -563 1567 -563 1485 c 0,9,10
 -563 1460 -563 1460 -541.5 1390 c 128,-1,11
 -520 1320 -520 1320 -520 1270 c 1,0,-1
EndSplineSet
Validated: 1
EndChar

StartChar: uni0313
Encoding: 787 787 106
Width: 0
VWidth: 0
Flags: W
HStem: 1270 367<-584 -550>
VStem: -627 147<1424 1636>
AnchorPoint: "mktop" -588 1636 basemark 0
AnchorPoint: "mktop" -588 1188 mark 0
AnchorPoint: "top" -588 1188 mark 0
LayerCount: 2
Fore
SplineSet
-627 1636 m 1,0,-1
 -479 1636 l 1,1,2
 -480 1434 -480 1434 -514 1352 c 0,3,4
 -529 1315 -529 1315 -542 1294.5 c 128,-1,5
 -555 1274 -555 1274 -557 1270 c 1,6,-1
 -633 1270 l 1,7,8
 -584 1339 -584 1339 -584 1421 c 0,9,10
 -584 1446 -584 1446 -605.5 1516 c 128,-1,11
 -627 1586 -627 1586 -627 1636 c 1,0,-1
EndSplineSet
Validated: 1
EndChar

StartChar: uni0314
Encoding: 788 788 107
Width: 0
VWidth: 0
Flags: W
HStem: 1270 367<-632 -598>
VStem: -702 147<1424 1636>
AnchorPoint: "top" -588 1188 mark 0
AnchorPoint: "mktop" -588 1188 mark 0
AnchorPoint: "mktop" -588 1636 basemark 0
LayerCount: 2
Fore
SplineSet
-555 1636 m 1,0,1
 -555 1586 -555 1586 -576.5 1516 c 128,-1,2
 -598 1446 -598 1446 -598 1421 c 0,3,4
 -598 1339 -598 1339 -549 1270 c 1,5,-1
 -625 1270 l 1,6,7
 -627 1274 -627 1274 -638.5 1293 c 128,-1,8
 -650 1312 -650 1312 -654 1321 c 2,9,-1
 -668 1352 l 2,10,11
 -678 1374 -678 1374 -682 1398 c 2,12,-1
 -692 1456 l 2,13,14
 -702 1514 -702 1514 -702 1636 c 1,15,-1
 -555 1636 l 1,0,1
EndSplineSet
Validated: 1
EndChar

StartChar: uni0326
Encoding: 806 806 108
Width: 0
VWidth: 0
Flags: W
HStem: -401 49<-745 -571> -164 57<-672 -562>
VStem: -524 127<-328 -188>
AnchorPoint: "cedilla" -590 0 mark 0
LayerCount: 2
Fore
SplineSet
-672 -106 m 17,0,1
 -554 -106 -554 -106 -475.5 -148 c 128,-1,2
 -397 -190 -397 -190 -397 -252 c 0,3,4
 -397 -314 -397 -314 -488.5 -357.5 c 128,-1,5
 -580 -401 -580 -401 -745 -401 c 1,6,-1
 -745 -352 l 1,7,8
 -634 -352 -634 -352 -579 -333 c 128,-1,9
 -524 -314 -524 -314 -524 -265 c 0,10,11
 -524 -216 -524 -216 -556.5 -194.5 c 128,-1,12
 -589 -173 -589 -173 -672 -164 c 1,13,-1
 -672 -106 l 17,0,1
EndSplineSet
Validated: 1
EndChar

StartChar: uni0327
Encoding: 807 807 109
Width: 0
VWidth: 0
Flags: W
HStem: -401 49<-745 -571> -164 164<-643 -550>
VStem: -643 106<-82 0> -524 127<-328 -188>
AnchorPoint: "cedilla" -590 0 mark 0
LayerCount: 2
Fore
SplineSet
-537 0 m 25,0,-1
 -549 -111 l 1,1,2
 -483 -122 -483 -122 -440 -157.5 c 128,-1,3
 -397 -193 -397 -193 -397 -254 c 0,4,5
 -397 -315 -397 -315 -488.5 -358 c 128,-1,6
 -580 -401 -580 -401 -745 -401 c 1,7,-1
 -745 -352 l 1,8,9
 -634 -352 -634 -352 -579 -333 c 128,-1,10
 -524 -314 -524 -314 -524 -265 c 0,11,12
 -524 -216 -524 -216 -556.5 -194.5 c 128,-1,13
 -589 -173 -589 -173 -672 -164 c 1,14,-1
 -643 0 l 1,15,-1
 -537 0 l 25,0,-1
EndSplineSet
Validated: 1
EndChar

StartChar: uni0328
Encoding: 808 808 110
Width: 0
VWidth: 0
Flags: W
HStem: -319 37<-533 -430>
VStem: -713 115<-254 -86>
AnchorPoint: "ogonek" -483 0 mark 0
LayerCount: 2
Fore
SplineSet
-483 25 m 9,0,1
 -483 0 l 1,2,3
 -530 -24 -530 -24 -564 -62.5 c 128,-1,4
 -598 -101 -598 -101 -598 -158.5 c 128,-1,5
 -598 -216 -598 -216 -561.5 -249.5 c 128,-1,6
 -525 -283 -525 -283 -430 -283 c 1,7,-1
 -430 -319 l 1,8,9
 -432 -319 -432 -319 -435 -319 c 0,10,11
 -651 -319 -651 -319 -700 -232 c 0,12,13
 -712 -210 -712 -210 -713 -186 c 0,14,15
 -713 -117 -713 -117 -641 -58.5 c 128,-1,16
 -569 0 -569 0 -483 25 c 9,0,1
EndSplineSet
Validated: 1
EndChar

StartChar: uni0237
Encoding: 567 567 111
Width: 536
VWidth: 0
Flags: W
HStem: -348 102<-3 219> 860 41G<252 416>
VStem: 252 164<-216 901>
AnchorPoint: "bottom" 129 -348 basechar 0
AnchorPoint: "horn" 369 717 basechar 0
AnchorPoint: "ogonek" 287 -266 basechar 0
AnchorPoint: "cedilla" 139 -348 basechar 0
AnchorPoint: "top" 334 1004 basechar 0
LayerCount: 2
Fore
SplineSet
33 -195 m 1,0,1
 69 -246 69 -246 135 -246 c 128,-1,2
 201 -246 201 -246 226.5 -187.5 c 128,-1,3
 252 -129 252 -129 252 0 c 2,4,-1
 252 901 l 1,5,-1
 416 901 l 1,6,-1
 416 -68 l 2,7,8
 416 -272 416 -272 220 -332 c 0,9,10
 168 -348 168 -348 111 -348 c 0,11,12
 -19 -348 -19 -348 -96 -256 c 1,13,-1
 33 -195 l 1,0,1
EndSplineSet
Validated: 1
EndChar

StartChar: dotlessi
Encoding: 305 305 112
Width: 407
VWidth: 0
Flags: W
HStem: 0 43G<123 287> 860 41G<123 287>
VStem: 123 164<0 901>
AnchorPoint: "horn" 250 717 basechar 0
AnchorPoint: "cedilla" 209 0 basechar 0
AnchorPoint: "bottom" 203 0 basechar 0
AnchorPoint: "ogonek" 279 0 basechar 0
AnchorPoint: "top" 207 1004 basechar 0
LayerCount: 2
Fore
SplineSet
123 901 m 1,0,-1
 287 901 l 1,1,-1
 287 0 l 1,2,-1
 123 0 l 1,3,-1
 123 901 l 1,0,-1
EndSplineSet
Validated: 1
EndChar

StartChar: Aring
Encoding: 197 197 143
Width: 1298
VWidth: 0
Flags: W
HStem: 0 21G<39 210.268 1092.68 1264> 410 102<389 913> 1663 62<582.81 719.274>
VStem: 496 61<1501.43 1637.03> 745 62<1501.01 1637.45>
AnchorPoint: "ogonek" 1100 0 basechar 0
AnchorPoint: "bottom" 653 0 basechar 0
AnchorPoint: "cedilla" 631 0 basechar 0
AnchorPoint: "horn" 819 1085 basechar 0
AnchorPoint: "top" 647 1720 basechar 0
LayerCount: 2
Fore
SplineSet
573 1434 m 1,0,1
 496 1480 496 1480 496 1557 c 128,-1,2
 496 1634 496 1634 541.5 1679.5 c 128,-1,3
 587 1725 587 1725 651 1725 c 128,-1,4
 715 1725 715 1725 761 1679.5 c 128,-1,5
 807 1634 807 1634 807 1557 c 128,-1,6
 807 1480 807 1480 730 1434 c 1,7,-1
 741 1434 l 1,8,-1
 1264 0 l 1,9,-1
 1100 0 l 1,10,-1
 950 410 l 1,11,-1
 352 410 l 1,12,-1
 203 0 l 1,13,-1
 39 0 l 1,14,-1
 561 1434 l 1,15,-1
 573 1434 l 1,0,1
557 1569 m 128,-1,17
 557 1531 557 1531 585 1503 c 128,-1,18
 613 1475 613 1475 651 1475 c 128,-1,19
 689 1475 689 1475 717 1503 c 128,-1,20
 745 1531 745 1531 745 1569 c 128,-1,21
 745 1607 745 1607 717 1635 c 128,-1,22
 689 1663 689 1663 651 1663 c 128,-1,23
 613 1663 613 1663 585 1635 c 128,-1,16
 557 1607 557 1607 557 1569 c 128,-1,17
651 1231 m 1,24,-1
 389 512 l 1,25,-1
 913 512 l 1,26,-1
 651 1231 l 1,24,-1
EndSplineSet
Validated: 1
EndChar

StartChar: Thorn
Encoding: 222 222 163
Width: 1089
VWidth: 0
Flags: W
HStem: 0 43G<174 348> 328 102<348 755> 1004 102<348 757> 1393 41G<174 348>
VStem: 174 174<0 328 430 1004 1106 1434> 864 174<545 889>
LayerCount: 2
Fore
SplineSet
348 328 m 1,0,-1
 348 0 l 1,1,-1
 174 0 l 1,2,-1
 174 1434 l 1,3,-1
 348 1434 l 1,4,-1
 348 1106 l 1,5,-1
 594 1106 l 2,6,7
 858 1106 858 1106 976 925 c 0,8,9
 1038 830 1038 830 1038 717 c 0,10,11
 1038 605 1038 605 974 509 c 0,12,13
 854 328 854 328 594 328 c 2,14,-1
 348 328 l 1,0,-1
348 1004 m 1,15,-1
 348 430 l 1,16,-1
 625 430 l 2,17,18
 796 430 796 430 850 620 c 0,19,20
 864 668 864 668 864 717 c 128,-1,21
 864 766 864 766 850.5 814 c 128,-1,22
 837 862 837 862 810 906 c 0,23,24
 750 1004 750 1004 625 1004 c 2,25,-1
 348 1004 l 1,15,-1
EndSplineSet
Validated: 1
EndChar

StartChar: thorn
Encoding: 254 254 164
Width: 1087
VWidth: 0
Flags: W
HStem: 0 102<311 533> 823 102<421 747> 1311 41G<147 311>
VStem: 147 164<-410 0 102 710 866 1352> 838 164<380 734>
LayerCount: 2
Fore
SplineSet
311 0 m 1,0,-1
 311 -410 l 1,1,-1
 147 -410 l 1,2,-1
 147 1352 l 1,3,-1
 311 1352 l 1,4,-1
 311 866 l 1,5,6
 406 926 406 926 588 926 c 128,-1,7
 770 926 770 926 886 840 c 0,8,9
 1001 754 1001 754 1001 566 c 0,10,11
 1001 339 1001 339 820 178 c 0,12,13
 734 100 734 100 602 52.5 c 128,-1,14
 470 5 470 5 311 0 c 1,0,-1
311 102 m 1,15,16
 537 105 537 105 687.5 240.5 c 128,-1,17
 838 376 838 376 838 569 c 0,18,19
 838 695 838 695 773.5 759 c 128,-1,20
 709 823 709 823 598 823 c 0,21,22
 443 823 443 823 377 742.5 c 128,-1,23
 311 662 311 662 311 508 c 2,24,-1
 311 102 l 1,15,16
EndSplineSet
Validated: 1
EndChar

StartChar: multiply
Encoding: 215 215 165
Width: 856
VWidth: 0
Flags: W
HStem: 229 561
VStem: 147 561
LayerCount: 2
Fore
SplineSet
500 510 m 1,0,-1
 709 301 l 1,1,-1
 637 229 l 1,2,-1
 428 438 l 1,3,-1
 219 229 l 1,4,-1
 147 301 l 1,5,-1
 356 510 l 1,6,-1
 147 719 l 1,7,-1
 219 791 l 1,8,-1
 428 582 l 1,9,-1
 637 791 l 1,10,-1
 709 719 l 1,11,-1
 500 510 l 1,0,-1
EndSplineSet
Validated: 1
EndChar

StartChar: Oslash
Encoding: 216 216 166
Width: 1435
VWidth: 0
UnlinkRmOvrlpSave: 1
Flags: W
HStem: -20 102<564 877> 0 43G<373 502> 1352 102<551 881> 1393 41G<942 1073>
VStem: 102 174<433 1012> 1163 174<438 1008>
AnchorPoint: "top" 707 1434 basechar 0
AnchorPoint: "cedilla" 700 0 basechar 0
AnchorPoint: "horn" 1217 1085 basechar 0
AnchorPoint: "bottom" 721 0 basechar 0
AnchorPoint: "ogonek" 725 0 basechar 0
LayerCount: 2
Fore
SplineSet
470 1252 m 0,0,1
 276 1069 276 1069 276 730.5 c 128,-1,2
 276 392 276 392 457 207 c 1,3,-1
 897 1298 l 1,4,5
 805 1352 805 1352 690.5 1352 c 128,-1,6
 576 1352 576 1352 470 1252 c 0,0,1
989 1227 m 1,7,-1
 549 135 l 1,8,9
 634 82 634 82 706.5 82 c 128,-1,10
 779 82 779 82 841 106 c 128,-1,11
 903 130 903 130 961 182 c 128,-1,12
 1019 234 1019 234 1064 307 c 0,13,14
 1163 468 1163 468 1163 717 c 0,15,16
 1163 1053 1163 1053 989 1227 c 1,7,-1
942 1407 m 1,17,-1
 952 1434 l 1,18,-1
 1073 1434 l 1,19,-1
 1040 1354 l 1,20,21
 1178 1266 1178 1266 1257.5 1106 c 128,-1,22
 1337 946 1337 946 1337 738.5 c 128,-1,23
 1337 531 1337 531 1286 387 c 0,24,25
 1234 244 1234 244 1146 156 c 0,26,27
 968 -20 968 -20 705 -20 c 1,28,29
 596 -20 596 -20 502 20 c 1,30,-1
 494 0 l 1,31,-1
 373 0 l 1,32,-1
 401 72 l 1,33,34
 266 162 266 162 184 324 c 128,-1,35
 102 486 102 486 102 717 c 0,36,37
 102 1142 102 1142 362 1342 c 0,38,39
 508 1454 508 1454 686 1454 c 0,40,41
 818 1454 818 1454 942 1407 c 1,17,-1
EndSplineSet
EndChar

StartChar: oslash
Encoding: 248 248 167
Width: 1056
VWidth: 0
Flags: W
HStem: -20 102<453 673> 819 102<404 618>
VStem: 90 164<225 648> 807 164<241 665>
AnchorPoint: "top" 535 1004 basechar 0
AnchorPoint: "ogonek" 537 0 basechar 0
AnchorPoint: "bottom" 516 0 basechar 0
AnchorPoint: "horn" 881 635 basechar 0
AnchorPoint: "cedilla" 506 0 basechar 0
LayerCount: 2
Fore
SplineSet
971 451 m 0,0,1
 971 222 971 222 845 101 c 128,-1,2
 719 -20 719 -20 512 -20 c 0,3,4
 465 -20 465 -20 410 -10 c 1,5,-1
 373 -102 l 1,6,-1
 252 -102 l 1,7,-1
 303 27 l 1,8,9
 200 81 200 81 145 190.5 c 128,-1,10
 90 300 90 300 90 427.5 c 128,-1,11
 90 555 90 555 127 645 c 0,12,13
 164 734 164 734 224 794 c 0,14,15
 353 922 353 922 512 922 c 0,16,17
 586 922 586 922 657 903 c 1,18,-1
 698 1004 l 1,19,-1
 819 1004 l 1,20,-1
 762 862 l 1,21,22
 971 745 971 745 971 451 c 0,0,1
354 150 m 1,23,-1
 618 807 l 1,24,25
 581 819 581 819 543 819 c 0,26,27
 423 819 423 819 338.5 717 c 128,-1,28
 254 615 254 615 254 429 c 128,-1,29
 254 243 254 243 354 150 c 1,23,-1
453 94 m 1,30,31
 493 82 493 82 543 82 c 0,32,33
 659 82 659 82 733 185.5 c 128,-1,34
 807 289 807 289 807 462.5 c 128,-1,35
 807 636 807 636 713 741 c 1,36,-1
 453 94 l 1,30,31
EndSplineSet
Validated: 1
EndChar

StartChar: AE
Encoding: 198 198 168
Width: 1730
VWidth: 0
Flags: W
HStem: 0 102<960 1647> 410 102<389 786> 799 102<960 1429> 1331 103<687 786 960 1614>
VStem: 786 174<102 410 512 799 901 1331>
AnchorPoint: "horn" 1569 1384 basechar 0
AnchorPoint: "ogonek" 1515 0 basechar 0
AnchorPoint: "cedilla" 1008 0 basechar 0
AnchorPoint: "bottom" 983 0 basechar 0
AnchorPoint: "top" 946 1434 basechar 0
LayerCount: 2
Fore
SplineSet
786 512 m 1,0,-1
 786 1331 l 1,1,-1
 687 1331 l 1,2,-1
 389 512 l 1,3,-1
 786 512 l 1,0,-1
786 410 m 1,4,-1
 352 410 l 1,5,-1
 203 0 l 1,6,-1
 39 0 l 1,7,-1
 561 1434 l 1,8,-1
 1614 1434 l 1,9,-1
 1614 1331 l 1,10,-1
 960 1331 l 1,11,-1
 960 901 l 1,12,-1
 1429 901 l 1,13,-1
 1429 799 l 1,14,-1
 960 799 l 1,15,-1
 960 102 l 1,16,-1
 1647 102 l 1,17,-1
 1647 0 l 1,18,-1
 786 0 l 1,19,-1
 786 410 l 1,4,-1
EndSplineSet
Validated: 1
EndChar

StartChar: ae
Encoding: 230 230 169
Width: 1632
VWidth: 0
Flags: W
HStem: -20 102<356 690 1019 1337> 451 102<868 1374> 520 102<343 688> 819 102<304 637 1007 1266>
VStem: 94 164<178 440> 694 164<250 451>
AnchorPoint: "horn" 1438 717 basechar 0
AnchorPoint: "cedilla" 1167 0 basechar 0
AnchorPoint: "ogonek" 1167 0 basechar 0
AnchorPoint: "bottom" 842 0 basechar 0
AnchorPoint: "top" 823 997 basechar 0
LayerCount: 2
Fore
SplineSet
1536 158 m 1,0,1
 1395 -20 1395 -20 1157 -20 c 0,2,3
 969 -20 969 -20 844 90 c 1,4,5
 767 38 767 38 666.5 9 c 128,-1,6
 566 -20 566 -20 471 -20 c 0,7,8
 297 -20 297 -20 195.5 58.5 c 128,-1,9
 94 137 94 137 94 311 c 0,10,11
 94 508 94 508 268 584 c 0,12,13
 357 624 357 624 463 624 c 0,14,-1
 466 624 l 0,15,16
 574 624 574 624 690 606 c 1,17,18
 684 726 684 726 638.5 772.5 c 128,-1,19
 593 819 593 819 473.5 819 c 128,-1,20
 354 819 354 819 217 723 c 1,21,-1
 115 829 l 1,22,23
 293 922 293 922 447.5 922 c 128,-1,24
 602 922 602 922 688 889.5 c 128,-1,25
 774 857 774 857 811 776 c 1,26,27
 873 845 873 845 953 883.5 c 128,-1,28
 1033 922 1033 922 1126 922 c 128,-1,29
 1219 922 1219 922 1303 880 c 0,30,31
 1386 838 1386 838 1438 770 c 0,32,33
 1546 627 1546 627 1546 451 c 1,34,-1
 858 451 l 1,35,36
 858 283 858 283 949.5 182.5 c 128,-1,37
 1041 82 1041 82 1189 82 c 128,-1,38
 1337 82 1337 82 1413 205 c 1,39,-1
 1536 158 l 1,0,1
694 125 m 1,40,-1
 694 498 l 1,41,42
 601 520 601 520 501 520 c 128,-1,43
 401 520 401 520 329.5 466 c 128,-1,44
 258 412 258 412 258 310 c 128,-1,45
 258 208 258 208 331 145 c 128,-1,46
 404 82 404 82 504 82 c 128,-1,47
 604 82 604 82 694 125 c 1,40,-1
868 553 m 1,48,-1
 1374 553 l 1,49,50
 1356 673 1356 673 1298 746 c 128,-1,51
 1240 819 1240 819 1144 819 c 128,-1,52
 1048 819 1048 819 971 747 c 128,-1,53
 894 675 894 675 868 553 c 1,48,-1
EndSplineSet
Validated: 1
EndChar

StartChar: eth
Encoding: 240 240 170
Width: 1034
VWidth: 0
Flags: W
HStem: -20 102<407 673> 819 102<406 682> 1311 41G<613 695>
VStem: 90 164<258 643> 780 164<212 701>
AnchorPoint: "top" 565 1434 basechar 0
AnchorPoint: "bottom" 516 0 basechar 0
LayerCount: 2
Fore
SplineSet
612 1212 m 1,0,1
 944 863 944 863 944 434 c 0,2,3
 944 162 944 162 747 44 c 0,4,5
 640 -19 640 -19 504 -20 c 0,6,7
 331 -20 331 -20 210.5 118.5 c 128,-1,8
 90 257 90 257 90 451 c 0,9,10
 90 729 90 729 278 857 c 0,11,12
 374 922 374 922 491.5 922 c 128,-1,13
 609 922 609 922 694 883 c 1,14,15
 628 1027 628 1027 516 1133 c 1,16,-1
 410 1044 l 1,17,-1
 362 1100 l 1,18,-1
 461 1184 l 1,19,20
 407 1230 407 1230 324 1286 c 1,21,-1
 426 1380 l 1,22,23
 499 1323 499 1323 559 1266 c 1,24,-1
 662 1352 l 1,25,-1
 709 1294 l 1,26,-1
 612 1212 l 1,0,1
780 369 m 1,27,28
 780 621 780 621 728 720 c 128,-1,29
 676 819 676 819 535 819 c 0,30,31
 452 819 452 819 386 762.5 c 128,-1,32
 320 706 320 706 287 623 c 128,-1,33
 254 540 254 540 254 451 c 128,-1,34
 254 362 254 362 287 278.5 c 128,-1,35
 320 195 320 195 386 138.5 c 128,-1,36
 452 82 452 82 547.5 82 c 128,-1,37
 643 82 643 82 710 157 c 128,-1,38
 777 232 777 232 780 369 c 1,27,28
EndSplineSet
Validated: 1
EndChar

StartChar: Ccedilla
Encoding: 199 199 171
Width: 1331
VWidth: 0
Flags: W
HStem: -401 49<602 777> -164 164<705 797> -20 102<600 974> 1352 102<556 933>
VStem: 102 174<451 1012> 705 106<-82 0> 823 127<-328 -188>
AnchorPoint: "top" 717 1434 basechar 0
AnchorPoint: "ogonek" 772 -369 basechar 0
AnchorPoint: "horn" 1143 1282 basechar 0
AnchorPoint: "bottom" 717 -393 basechar 0
LayerCount: 2
Fore
SplineSet
701 -19 m 1,0,1
 525 -4 525 -4 377 110 c 0,2,3
 208 240 208 240 140 456 c 0,4,5
 102 576 102 576 102 720.5 c 128,-1,6
 102 865 102 865 139 989.5 c 128,-1,7
 176 1114 176 1114 236 1198 c 128,-1,8
 296 1282 296 1282 375 1341 c 0,9,10
 526 1454 526 1454 702 1454 c 0,11,12
 1075 1454 1075 1454 1243 1245 c 1,13,-1
 1090 1178 l 1,14,15
 1035 1256 1035 1256 945 1304 c 128,-1,16
 855 1352 855 1352 748.5 1352 c 128,-1,17
 642 1352 642 1352 561 1312.5 c 128,-1,18
 480 1273 480 1273 415.5 1197 c 128,-1,19
 351 1121 351 1121 313.5 997 c 128,-1,20
 276 873 276 873 276 730 c 128,-1,21
 276 587 276 587 309 478 c 0,22,23
 342 370 342 370 394 298 c 0,24,25
 448 226 448 226 514 176 c 0,26,27
 684 90 684 90 772 82 c 1,28,29
 1010 82 1010 82 1128 264 c 1,30,-1
 1249 209 l 1,31,32
 1178 117 1178 117 1063.5 56.5 c 128,-1,33
 949 -4 949 -4 809 -17 c 1,34,-1
 799 -111 l 1,35,36
 865 -122 865 -122 907.5 -157.5 c 128,-1,37
 950 -193 950 -193 950 -254 c 128,-1,38
 950 -315 950 -315 858.5 -358 c 128,-1,39
 767 -401 767 -401 602 -401 c 1,40,-1
 602 -352 l 1,41,42
 713 -352 713 -352 768 -333 c 128,-1,43
 823 -314 823 -314 823 -265 c 128,-1,44
 823 -216 823 -216 791 -194.5 c 128,-1,45
 759 -173 759 -173 676 -164 c 1,46,-1
 701 -19 l 1,0,1
EndSplineSet
Validated: 1
EndChar

StartChar: ccedilla
Encoding: 231 231 172
Width: 1017
VWidth: 0
Flags: W
HStem: -401 49<414 589> -164 164<516 609> -20 102<418 733> 819 102<404 664>
VStem: 90 164<253 648> 516 106<-82 0> 635 127<-328 -188>
AnchorPoint: "top" 532 1004 basechar 0
AnchorPoint: "ogonek" 571 -375 basechar 0
AnchorPoint: "horn" 840 717 basechar 0
AnchorPoint: "bottom" 553 -393 basechar 0
LayerCount: 2
Fore
SplineSet
760 608 m 1,0,1
 734 705 734 705 679 762 c 128,-1,2
 624 819 624 819 543 819 c 0,3,4
 423 819 423 819 338.5 717 c 128,-1,5
 254 615 254 615 254 449 c 128,-1,6
 254 283 254 283 345.5 182.5 c 128,-1,7
 437 82 437 82 585 82 c 128,-1,8
 733 82 733 82 809 205 c 1,9,-1
 932 158 l 1,10,11
 814 8 814 8 621 -16 c 1,12,-1
 610 -111 l 1,13,14
 676 -122 676 -122 719 -157.5 c 128,-1,15
 762 -193 762 -193 762 -254 c 128,-1,16
 762 -315 762 -315 670.5 -358 c 128,-1,17
 579 -401 579 -401 414 -401 c 1,18,-1
 414 -352 l 1,19,20
 525 -352 525 -352 580 -333 c 128,-1,21
 635 -314 635 -314 635 -265 c 128,-1,22
 635 -216 635 -216 602.5 -194.5 c 128,-1,23
 570 -173 570 -173 487 -164 c 1,24,-1
 513 -19 l 1,25,26
 326 -5 326 -5 208 122.5 c 128,-1,27
 90 250 90 250 90 451 c 0,28,29
 90 555 90 555 127 645 c 0,30,31
 164 734 164 734 224 794 c 0,32,33
 353 922 353 922 499.5 922 c 128,-1,34
 646 922 646 922 743 854.5 c 128,-1,35
 840 787 840 787 893 676 c 1,36,-1
 760 608 l 1,0,1
EndSplineSet
Validated: 1
EndChar

StartChar: Eth
Encoding: 208 208 173
Width: 1304
VWidth: 0
Flags: W
HStem: 0 102<348 826> 725 102<61 174 348 664> 1331 102<348 841>
VStem: 174 174<102 725 827 1331> 1030 174<394 1073>
AnchorPoint: "horn" 1102 1085 basechar 0
AnchorPoint: "ogonek" 549 0 basechar 0
AnchorPoint: "cedilla" 549 0 basechar 0
AnchorPoint: "top" 582 1434 basechar 0
AnchorPoint: "bottom" 594 0 basechar 0
LayerCount: 2
Fore
SplineSet
670 0 m 2,0,-1
 174 0 l 1,1,-1
 174 725 l 1,2,-1
 61 725 l 1,3,-1
 61 827 l 1,4,-1
 174 827 l 1,5,-1
 174 1434 l 1,6,-1
 670 1434 l 2,7,8
 1204 1434 1204 1434 1204 737 c 0,9,10
 1204 376 1204 376 1061.5 188 c 128,-1,11
 919 0 919 0 670 0 c 2,0,-1
348 725 m 1,12,-1
 348 102 l 1,13,-1
 700 102 l 2,14,15
 837 102 837 102 930 249 c 0,16,17
 1030 406 1030 406 1030 737 c 0,18,19
 1030 1112 1030 1112 891 1252 c 0,20,21
 813 1331 813 1331 703 1331 c 0,22,-1
 700 1331 l 2,23,-1
 348 1331 l 1,24,-1
 348 827 l 1,25,-1
 664 827 l 1,26,-1
 664 725 l 1,27,-1
 348 725 l 1,12,-1
EndSplineSet
Validated: 1
EndChar

StartChar: germandbls
Encoding: 223 223 174
Width: 919
VWidth: 0
Flags: W
HStem: 0 21G<139 303> 799 102<303 616> 1270 102<354.115 640.238>
VStem: 139 164<0 799 901 1217.92> 686 164<-12.6799 237.406>
LayerCount: 2
Fore
SplineSet
571 502 m 1,0,1
 850 280 850 280 850 102 c 0,2,3
 850 16 850 16 774 -56 c 0,4,5
 699 -127 699 -127 637 -157 c 0,6,7
 533 -208 533 -208 486 -226 c 2,8,-1
 465 -233 l 1,9,-1
 414 -152 l 1,10,11
 449 -143 449 -143 502.5 -116.5 c 128,-1,12
 556 -90 556 -90 591.5 -63.5 c 128,-1,13
 627 -37 627 -37 656.5 8 c 128,-1,14
 686 53 686 53 686 102 c 128,-1,15
 686 151 686 151 658 208 c 128,-1,16
 630 265 630 265 590 311 c 0,17,18
 508 405 508 405 442 457 c 2,19,-1
 414 479 l 1,20,-1
 616 799 l 1,21,-1
 303 799 l 1,22,-1
 303 0 l 1,23,-1
 139 0 l 1,24,-1
 139 864 l 2,25,26
 139 1079 139 1079 150 1133 c 128,-1,27
 161 1187 161 1187 172 1220 c 128,-1,28
 183 1253 183 1253 197.5 1272.5 c 128,-1,29
 212 1292 212 1292 234.5 1311 c 128,-1,30
 257 1330 257 1330 284 1340 c 0,31,32
 310 1350 310 1350 348 1358 c 0,33,34
 414 1372 414 1372 498 1372 c 128,-1,35
 582 1372 582 1372 636 1358 c 0,36,37
 713 1338 713 1338 821 1280 c 1,38,-1
 719 1174 l 1,39,40
 644 1227 644 1227 596.5 1248.5 c 128,-1,41
 549 1270 549 1270 506 1270 c 128,-1,42
 463 1270 463 1270 436 1266 c 128,-1,43
 409 1262 409 1262 388.5 1250 c 128,-1,44
 368 1238 368 1238 354 1225 c 128,-1,45
 340 1212 340 1212 330 1186 c 128,-1,46
 320 1160 320 1160 315 1137 c 128,-1,47
 310 1114 310 1114 307 1072 c 0,48,49
 303 1016 303 1016 303 901 c 1,50,-1
 823 901 l 1,51,-1
 571 502 l 1,0,1
EndSplineSet
Validated: 1
EndChar

StartChar: Scaron
Encoding: 352 352 177
Width: 1187
VWidth: 0
Flags: W
HStem: -20 102<442 777> 1352 102<441 740> 1384 387
VStem: 162 174<985 1247> 330 479 907 174<203 504>
AnchorPoint: "top" 569 1769 basechar 0
AnchorPoint: "cedilla" 573 0 basechar 0
AnchorPoint: "bottom" 578 0 basechar 0
AnchorPoint: "horn" 897 1290 basechar 0
AnchorPoint: "ogonek" 602 0 basechar 0
LayerCount: 2
Fore
SplineSet
102 350 m 1,0,-1
 262 381 l 1,1,2
 277 264 277 264 378 173 c 128,-1,3
 479 82 479 82 580 82 c 0,4,5
 737 82 737 82 822 157 c 128,-1,6
 907 232 907 232 907 365 c 0,7,8
 907 486 907 486 813 564 c 0,9,10
 739 625 739 625 636.5 667.5 c 128,-1,11
 534 710 534 710 472.5 736.5 c 128,-1,12
 411 763 411 763 355 796.5 c 128,-1,13
 299 830 299 830 256 870 c 0,14,15
 162 959 162 959 162 1096.5 c 128,-1,16
 162 1234 162 1234 269.5 1332.5 c 128,-1,17
 377 1431 377 1431 522 1450 c 1,18,-1
 330 1718 l 1,19,-1
 393 1772 l 1,20,-1
 569 1591 l 1,21,-1
 745 1772 l 1,22,-1
 809 1718 l 1,23,-1
 618 1453 l 1,24,25
 745 1444 745 1444 849 1381.5 c 128,-1,26
 953 1319 953 1319 1012 1225 c 1,27,-1
 860 1182 l 1,28,29
 768 1352 768 1352 561 1352 c 0,30,31
 445 1352 445 1352 373 1236 c 0,32,33
 336 1176 336 1176 336 1112 c 128,-1,34
 336 1048 336 1048 361.5 1004 c 128,-1,35
 387 960 387 960 430 928.5 c 128,-1,36
 473 897 473 897 529 869 c 128,-1,37
 585 841 585 841 646.5 814.5 c 128,-1,38
 708 788 708 788 770 760 c 128,-1,39
 832 732 832 732 888 695 c 128,-1,40
 944 658 944 658 987 614 c 0,41,42
 1081 517 1081 517 1081 357 c 128,-1,43
 1081 197 1081 197 939.5 88.5 c 128,-1,44
 798 -20 798 -20 565 -20 c 0,45,46
 416 -20 416 -20 277.5 91 c 128,-1,47
 139 202 139 202 102 350 c 1,0,-1
EndSplineSet
Validated: 1
EndChar

StartChar: Scedilla
Encoding: 350 350 178
Width: 1187
VWidth: 0
Flags: W
HStem: -401 49<418 593> -164 164<520 613> -20 102<442 777> 1352 102<441 740>
VStem: 162 174<985 1247> 520 106<-82 0> 639 127<-328 -188> 907 174<203 504>
AnchorPoint: "top" 569 1434 basechar 0
AnchorPoint: "horn" 897 1290 basechar 0
LayerCount: 2
Fore
SplineSet
102 350 m 1,0,-1
 262 381 l 1,1,2
 277 264 277 264 378 173 c 128,-1,3
 479 82 479 82 580 82 c 0,4,5
 737 82 737 82 822 157 c 128,-1,6
 907 232 907 232 907 365 c 0,7,8
 907 486 907 486 813 564 c 0,9,10
 739 625 739 625 636.5 667.5 c 128,-1,11
 534 710 534 710 472.5 736.5 c 128,-1,12
 411 763 411 763 355 796.5 c 128,-1,13
 299 830 299 830 256 870 c 0,14,15
 162 959 162 959 162 1102 c 0,16,17
 162 1198 162 1198 223.5 1280.5 c 128,-1,18
 285 1363 285 1363 380.5 1408.5 c 128,-1,19
 476 1454 476 1454 597 1454 c 128,-1,20
 718 1454 718 1454 833 1390.5 c 128,-1,21
 948 1327 948 1327 1012 1225 c 1,22,-1
 860 1182 l 1,23,24
 768 1352 768 1352 561 1352 c 0,25,26
 445 1352 445 1352 373 1236 c 0,27,28
 336 1176 336 1176 336 1112 c 128,-1,29
 336 1048 336 1048 361.5 1004 c 128,-1,30
 387 960 387 960 430 928.5 c 128,-1,31
 473 897 473 897 529 869 c 128,-1,32
 585 841 585 841 646.5 814.5 c 128,-1,33
 708 788 708 788 770 760 c 128,-1,34
 832 732 832 732 888 695 c 128,-1,35
 944 658 944 658 987 614 c 0,36,37
 1081 517 1081 517 1081 362.5 c 128,-1,38
 1081 208 1081 208 957 102 c 128,-1,39
 833 -4 833 -4 625 -18 c 1,40,-1
 614 -111 l 1,41,42
 680 -122 680 -122 723 -157.5 c 128,-1,43
 766 -193 766 -193 766 -254 c 128,-1,44
 766 -315 766 -315 674.5 -358 c 128,-1,45
 583 -401 583 -401 418 -401 c 1,46,-1
 418 -352 l 1,47,48
 529 -352 529 -352 584 -333 c 128,-1,49
 639 -314 639 -314 639 -265 c 128,-1,50
 639 -216 639 -216 607 -194.5 c 128,-1,51
 575 -173 575 -173 492 -164 c 1,52,-1
 517 -17 l 1,53,54
 378 2 378 2 257 108.5 c 128,-1,55
 136 215 136 215 102 350 c 1,0,-1
EndSplineSet
Validated: 1
EndChar

StartChar: Tcaron
Encoding: 356 356 179
Width: 1280
VWidth: 0
Flags: W
HStem: 0 43<553 727> 1331 102<41 553 727 1243> 1384 387
VStem: 406 479 553 174<0 1331>
AnchorPoint: "top" 643 1765 basechar 0
AnchorPoint: "cedilla" 639 0 basechar 0
AnchorPoint: "bottom" 643 0 basechar 0
AnchorPoint: "ogonek" 659 0 basechar 0
AnchorPoint: "horn" 1200 1389 basechar 0
LayerCount: 2
Fore
SplineSet
610 1434 m 1,0,-1
 406 1718 l 1,1,-1
 469 1772 l 1,2,-1
 645 1591 l 1,3,-1
 821 1772 l 1,4,-1
 885 1718 l 1,5,-1
 680 1434 l 1,6,-1
 1243 1434 l 1,7,-1
 1243 1331 l 1,8,-1
 727 1331 l 1,9,-1
 727 0 l 1,10,-1
 553 0 l 1,11,-1
 553 1331 l 1,12,-1
 41 1331 l 1,13,-1
 41 1434 l 1,14,-1
 610 1434 l 1,0,-1
EndSplineSet
Validated: 1
EndChar

StartChar: Zcaron
Encoding: 381 381 181
Width: 1040
VWidth: 0
Flags: W
HStem: 0 102<285 983> 1331 102<102 750> 1384 387
VStem: 272 479
AnchorPoint: "horn" 758 1085 basechar 0
AnchorPoint: "cedilla" 569 0 basechar 0
AnchorPoint: "ogonek" 799 0 basechar 0
AnchorPoint: "bottom" 549 0 basechar 0
AnchorPoint: "top" 512 1767 basechar 0
LayerCount: 2
Fore
SplineSet
750 1331 m 1,0,-1
 72 1331 l 1,1,-1
 102 1434 l 1,2,-1
 477 1434 l 1,3,-1
 272 1718 l 1,4,-1
 336 1772 l 1,5,-1
 512 1591 l 1,6,-1
 688 1772 l 1,7,-1
 752 1718 l 1,8,-1
 547 1434 l 1,9,-1
 975 1434 l 1,10,-1
 285 102 l 1,11,-1
 983 102 l 1,12,-1
 983 0 l 1,13,-1
 61 0 l 1,14,-1
 750 1331 l 1,0,-1
EndSplineSet
Validated: 1
EndChar

StartChar: scedilla
Encoding: 351 351 186
Width: 897
VWidth: 0
Flags: W
HStem: -401 49<293 468> -164 164<395 488> -20 102<276 603> 819 102<316 571>
VStem: 125 164<595 792> 395 106<-82 0> 514 127<-328 -188> 651 164<128 358>
AnchorPoint: "top" 416 1004 basechar 0
AnchorPoint: "horn" 647 793 basechar 0
LayerCount: 2
Fore
SplineSet
756 795 m 1,0,-1
 637 723 l 1,1,2
 555 795 555 795 536.5 800 c 128,-1,3
 518 805 518 805 500 811 c 0,4,5
 477 819 477 819 418 819 c 128,-1,6
 359 819 359 819 324 785 c 128,-1,7
 289 751 289 751 289 688 c 0,8,9
 289 576 289 576 453 547 c 1,10,11
 815 480 815 480 815 262 c 0,12,13
 815 135 815 135 729.5 65 c 128,-1,14
 644 -5 644 -5 500 -18 c 1,15,-1
 489 -111 l 1,16,17
 555 -122 555 -122 598 -157.5 c 128,-1,18
 641 -193 641 -193 641 -254 c 128,-1,19
 641 -315 641 -315 549.5 -358 c 128,-1,20
 458 -401 458 -401 293 -401 c 1,21,-1
 293 -352 l 1,22,23
 404 -352 404 -352 459 -333 c 128,-1,24
 514 -314 514 -314 514 -265 c 128,-1,25
 514 -216 514 -216 482 -194.5 c 128,-1,26
 450 -173 450 -173 367 -164 c 1,27,-1
 392 -19 l 1,28,29
 280 -12 280 -12 191 45 c 0,30,31
 158 66 158 66 88 117 c 1,32,-1
 176 193 l 1,33,34
 267 129 267 129 315.5 105.5 c 128,-1,35
 364 82 364 82 464 82 c 128,-1,36
 564 82 564 82 607.5 128 c 128,-1,37
 651 174 651 174 651 262 c 0,38,39
 651 388 651 388 434 424 c 1,40,41
 284 452 284 452 204.5 520.5 c 128,-1,42
 125 589 125 589 125 684 c 128,-1,43
 125 779 125 779 197 850.5 c 128,-1,44
 269 922 269 922 383 922 c 128,-1,45
 497 922 497 922 580.5 891.5 c 128,-1,46
 664 861 664 861 756 795 c 1,0,-1
EndSplineSet
Validated: 1
EndChar

StartChar: Ccaron
Encoding: 268 268 195
Width: 1331
VWidth: 0
Flags: W
HStem: -20 102<600 974> 1352 102<556 933> 1384 387
VStem: 102 174<451 1012> 477 479
AnchorPoint: "horn" 1143 1282 basechar 0
AnchorPoint: "ogonek" 741 0 basechar 0
AnchorPoint: "bottom" 758 0 basechar 0
AnchorPoint: "cedilla" 758 0 basechar 0
AnchorPoint: "top" 717 1769 basechar 0
LayerCount: 2
Fore
SplineSet
1249 209 m 1,0,1
 1169 106 1169 106 1035.5 43 c 128,-1,2
 902 -20 902 -20 741 -20 c 0,3,4
 564 -20 564 -20 401 93 c 0,5,6
 216 222 216 222 143 444 c 0,7,8
 102 570 102 570 102 714.5 c 128,-1,9
 102 859 102 859 136 979.5 c 128,-1,10
 170 1100 170 1100 226 1183 c 128,-1,11
 282 1266 282 1266 356 1326 c 0,12,13
 497 1440 497 1440 668 1453 c 1,14,-1
 477 1718 l 1,15,-1
 541 1772 l 1,16,-1
 717 1591 l 1,17,-1
 893 1772 l 1,18,-1
 956 1718 l 1,19,-1
 766 1452 l 1,20,21
 1090 1435 1090 1435 1243 1245 c 1,22,-1
 1090 1178 l 1,23,24
 1035 1256 1035 1256 945 1304 c 128,-1,25
 855 1352 855 1352 748.5 1352 c 128,-1,26
 642 1352 642 1352 561 1312.5 c 128,-1,27
 480 1273 480 1273 415.5 1197 c 128,-1,28
 351 1121 351 1121 313.5 997 c 128,-1,29
 276 873 276 873 276 730 c 128,-1,30
 276 587 276 587 309 478 c 0,31,32
 342 370 342 370 394 298 c 0,33,34
 448 226 448 226 514 176 c 0,35,36
 684 90 684 90 772 82 c 1,37,38
 1010 82 1010 82 1128 264 c 1,39,-1
 1249 209 l 1,0,1
EndSplineSet
Validated: 1
EndChar

StartChar: Ecaron
Encoding: 282 282 196
Width: 1118
VWidth: 0
Flags: W
HStem: 0 102<348 1034> 799 102<348 817> 1331 102<348 1001> 1384 387
VStem: 174 174<102 799 901 1331> 375 479
AnchorPoint: "top" 614 1761 basechar 0
AnchorPoint: "ogonek" 846 0 basechar 0
AnchorPoint: "bottom" 629 0 basechar 0
AnchorPoint: "cedilla" 641 0 basechar 0
AnchorPoint: "horn" 942 1384 basechar 0
LayerCount: 2
Fore
SplineSet
1034 0 m 1,0,-1
 174 0 l 1,1,-1
 174 1434 l 1,2,-1
 579 1434 l 1,3,-1
 375 1718 l 1,4,-1
 438 1772 l 1,5,-1
 614 1591 l 1,6,-1
 791 1772 l 1,7,-1
 854 1718 l 1,8,-1
 650 1434 l 1,9,-1
 1001 1434 l 1,10,-1
 1001 1331 l 1,11,-1
 348 1331 l 1,12,-1
 348 901 l 1,13,-1
 817 901 l 1,14,-1
 817 799 l 1,15,-1
 348 799 l 1,16,-1
 348 102 l 1,17,-1
 1034 102 l 1,18,-1
 1034 0 l 1,0,-1
EndSplineSet
Validated: 1
EndChar

StartChar: Dcaron
Encoding: 270 270 197
Width: 1304
VWidth: 0
Flags: W
HStem: 0 102<348 826> 1331 102<348 841> 1384 387
VStem: 174 174<102 1331> 342 479 1030 174<394 1073>
AnchorPoint: "bottom" 594 0 basechar 0
AnchorPoint: "top" 582 1769 basechar 0
AnchorPoint: "cedilla" 549 0 basechar 0
AnchorPoint: "ogonek" 549 0 basechar 0
AnchorPoint: "horn" 1102 1085 basechar 0
LayerCount: 2
Fore
SplineSet
348 1331 m 1,0,-1
 348 102 l 1,1,-1
 700 102 l 2,2,3
 837 102 837 102 930 249 c 0,4,5
 1030 406 1030 406 1030 737 c 0,6,7
 1030 1112 1030 1112 891 1252 c 0,8,9
 813 1331 813 1331 703 1331 c 0,10,-1
 700 1331 l 2,11,-1
 348 1331 l 1,0,-1
670 0 m 2,12,-1
 174 0 l 1,13,-1
 174 1434 l 1,14,-1
 546 1434 l 1,15,-1
 342 1718 l 1,16,-1
 406 1772 l 1,17,-1
 582 1591 l 1,18,-1
 758 1772 l 1,19,-1
 821 1718 l 1,20,-1
 617 1434 l 1,21,-1
 670 1434 l 2,22,23
 1204 1434 1204 1434 1204 737 c 0,24,25
 1204 376 1204 376 1061.5 188 c 128,-1,26
 919 0 919 0 670 0 c 2,12,-1
EndSplineSet
Validated: 1
EndChar

StartChar: Rcaron
Encoding: 344 344 202
Width: 1118
VWidth: 0
Flags: W
HStem: 0 43<174 348 901 1069> 655 102<348 615> 1331 102<348 757> 1384 387
VStem: 174 174<0 655 758 1331> 322 479 864 174<873 1217> 901 168<0 202>
AnchorPoint: "horn" 954 1085 basechar 0
AnchorPoint: "ogonek" 975 0 basechar 0
AnchorPoint: "bottom" 594 0 basechar 0
AnchorPoint: "cedilla" 590 0 basechar 0
AnchorPoint: "top" 561 1888 basechar 0
LayerCount: 2
Fore
SplineSet
348 1331 m 1,0,-1
 348 758 l 1,1,-1
 625 758 l 2,2,3
 749 758 749 758 810 856 c 0,4,5
 864 943 864 943 864 1044 c 0,6,7
 864 1145 864 1145 810 1233 c 0,8,9
 750 1331 750 1331 625 1331 c 2,10,-1
 348 1331 l 1,0,-1
348 655 m 1,11,-1
 348 0 l 1,12,-1
 174 0 l 1,13,-1
 174 1434 l 1,14,-1
 526 1434 l 1,15,-1
 322 1718 l 1,16,-1
 385 1772 l 1,17,-1
 561 1591 l 1,18,-1
 737 1772 l 1,19,-1
 801 1718 l 1,20,-1
 596 1434 l 1,21,22
 856 1434 856 1434 976 1251 c 0,23,24
 1038 1156 1038 1156 1038 1044 c 0,25,26
 1038 937 1038 937 976 836 c 0,27,28
 907 725 907 725 762 680 c 1,29,30
 866 576 866 576 967.5 358 c 128,-1,31
 1069 140 1069 140 1069 0 c 1,32,-1
 901 0 l 1,33,34
 901 142 901 142 793 355 c 128,-1,35
 685 568 685 568 571 655 c 1,36,-1
 348 655 l 1,11,-1
EndSplineSet
Validated: 1
EndChar

StartChar: Tcommaaccent
Encoding: 354 354 205
Width: 1280
VWidth: 0
Flags: W
HStem: -401 49<504 679> -164 164<606 699> 0 43<553 727> 1331 102<41 553 727 1243>
VStem: 553 174<0 1331> 606 106<-82 0> 725 127<-328 -188>
AnchorPoint: "top" 643 1434 basechar 0
AnchorPoint: "horn" 1200 1389 basechar 0
LayerCount: 2
Fore
SplineSet
41 1434 m 1,0,-1
 1243 1434 l 1,1,-1
 1243 1331 l 1,2,-1
 727 1331 l 1,3,-1
 727 0 l 1,4,-1
 713 0 l 1,5,-1
 700 -111 l 1,6,7
 766 -122 766 -122 809 -157.5 c 128,-1,8
 852 -193 852 -193 852 -254 c 0,9,10
 852 -315 852 -315 760.5 -358 c 128,-1,11
 669 -401 669 -401 504 -401 c 1,12,-1
 504 -352 l 1,13,14
 615 -352 615 -352 670 -333 c 128,-1,15
 725 -314 725 -314 725 -265 c 0,16,17
 725 -216 725 -216 693 -194.5 c 128,-1,18
 661 -173 661 -173 578 -164 c 1,19,-1
 606 0 l 1,20,-1
 553 0 l 1,21,-1
 553 1331 l 1,22,-1
 41 1331 l 1,23,-1
 41 1434 l 1,0,-1
EndSplineSet
Validated: 1
EndChar

StartChar: tcommaaccent
Encoding: 355 355 219
Width: 567
VWidth: 0
Flags: W
HStem: -401 49<109 283> -164 164<211 304> 0 43<188 352> 799 102<84 188 352 514>
VStem: 188 164<0 799 901 1198> 211 106<-82 0> 330 127<-328 -188>
AnchorPoint: "top" 272 1352 basechar 0
AnchorPoint: "horn" 319 1085 basechar 0
LayerCount: 2
Fore
SplineSet
352 799 m 1,0,-1
 352 0 l 1,1,-1
 317 0 l 1,2,-1
 305 -111 l 1,3,4
 371 -122 371 -122 414 -157.5 c 128,-1,5
 457 -193 457 -193 457 -254 c 0,6,7
 457 -315 457 -315 365.5 -358 c 128,-1,8
 274 -401 274 -401 109 -401 c 1,9,-1
 109 -352 l 1,10,11
 220 -352 220 -352 275 -333 c 128,-1,12
 330 -314 330 -314 330 -265 c 0,13,14
 330 -216 330 -216 297.5 -194.5 c 128,-1,15
 265 -173 265 -173 182 -164 c 1,16,-1
 211 0 l 1,17,-1
 188 0 l 1,18,-1
 188 799 l 1,19,-1
 53 799 l 1,20,-1
 84 901 l 1,21,-1
 188 901 l 1,22,-1
 188 1198 l 1,23,-1
 352 1229 l 1,24,-1
 352 901 l 1,25,-1
 514 901 l 1,26,-1
 514 799 l 1,27,-1
 352 799 l 1,0,-1
EndSplineSet
Validated: 1
EndChar

StartChar: Aogonek
Encoding: 260 260 220
Width: 1298
VWidth: 0
Flags: W
HStem: -319 37<1050 1153> 0 43<39 218 1085 1264> 410 102<389 913> 1393 41<546 756>
VStem: 870 115<-254 -86>
AnchorPoint: "bottom" 653 0 basechar 0
AnchorPoint: "cedilla" 631 0 basechar 0
AnchorPoint: "horn" 819 1085 basechar 0
AnchorPoint: "top" 657 1720 basechar 0
LayerCount: 2
Fore
SplineSet
651 1231 m 1,0,-1
 389 512 l 1,1,-1
 913 512 l 1,2,-1
 651 1231 l 1,0,-1
39 0 m 1,3,-1
 561 1434 l 1,4,-1
 741 1434 l 1,5,-1
 1264 0 l 1,6,-1
 1100 0 l 1,7,8
 1053 -24 1053 -24 1019 -62.5 c 128,-1,9
 985 -101 985 -101 985 -158.5 c 128,-1,10
 985 -216 985 -216 1021.5 -249.5 c 128,-1,11
 1058 -283 1058 -283 1153 -283 c 1,12,-1
 1153 -319 l 1,13,14
 1151 -319 1151 -319 1148 -319 c 0,15,16
 931 -319 931 -319 882 -232 c 0,17,18
 870 -210 870 -210 870 -186 c 0,19,20
 870 -118 870 -118 938.5 -61.5 c 128,-1,21
 1007 -5 1007 -5 1092 22 c 1,22,-1
 950 410 l 1,23,-1
 352 410 l 1,24,-1
 203 0 l 1,25,-1
 39 0 l 1,3,-1
EndSplineSet
Validated: 1
EndChar

StartChar: Eogonek
Encoding: 280 280 221
Width: 1118
VWidth: 0
Flags: W
HStem: -319 37<796 899> 0 102<348 1034> 799 102<348 817> 1331 102<348 1001>
VStem: 174 174<102 799 901 1331> 616 115<-254 -86>
AnchorPoint: "top" 614 1434 basechar 0
AnchorPoint: "horn" 942 1384 basechar 0
AnchorPoint: "cedilla" 641 0 basechar 0
AnchorPoint: "bottom" 629 0 basechar 0
LayerCount: 2
Fore
SplineSet
846 0 m 1,0,1
 799 -24 799 -24 765 -62.5 c 128,-1,2
 731 -101 731 -101 731 -158.5 c 128,-1,3
 731 -216 731 -216 767.5 -249.5 c 128,-1,4
 804 -283 804 -283 899 -283 c 1,5,-1
 899 -319 l 1,6,7
 897 -319 897 -319 894 -319 c 0,8,9
 677 -319 677 -319 628 -232 c 0,10,11
 616 -210 616 -210 616 -186 c 0,12,13
 616 -131 616 -131 663.5 -82 c 128,-1,14
 711 -33 711 -33 781 0 c 1,15,-1
 174 0 l 1,16,-1
 174 1434 l 1,17,-1
 1001 1434 l 1,18,-1
 1001 1331 l 1,19,-1
 348 1331 l 1,20,-1
 348 901 l 1,21,-1
 817 901 l 1,22,-1
 817 799 l 1,23,-1
 348 799 l 1,24,-1
 348 102 l 1,25,-1
 1034 102 l 1,26,-1
 1034 0 l 1,27,-1
 846 0 l 1,0,1
EndSplineSet
Validated: 1
EndChar

StartChar: aogonek
Encoding: 261 261 222
Width: 974
VWidth: 0
Flags: W
HStem: -319 37<796 899> -20 102<356 691> 0 43<694 858> 520 102<343 688> 819 102<304 636>
VStem: 94 164<178 440> 616 115<-254 -86> 694 164<0 16 107 507 606 754>
AnchorPoint: "top" 489 1004 basechar 0
AnchorPoint: "bottom" 473 0 basechar 0
AnchorPoint: "cedilla" 483 0 basechar 0
AnchorPoint: "horn" 811 717 basechar 0
LayerCount: 2
Fore
SplineSet
694 125 m 1,0,-1
 694 498 l 1,1,2
 601 520 601 520 501 520 c 128,-1,3
 401 520 401 520 329.5 466 c 128,-1,4
 258 412 258 412 258 310 c 128,-1,5
 258 208 258 208 331 145 c 128,-1,6
 404 82 404 82 504 82 c 128,-1,7
 604 82 604 82 694 125 c 1,0,-1
115 829 m 1,8,9
 293 922 293 922 438 922 c 0,10,11
 626 922 626 922 708 881 c 0,12,13
 756 857 756 857 784 822.5 c 128,-1,14
 812 788 812 788 830 727 c 0,15,16
 858 628 858 628 858 414 c 2,17,-1
 858 0 l 1,18,-1
 846 0 l 1,19,20
 799 -24 799 -24 765 -62.5 c 128,-1,21
 731 -101 731 -101 731 -158.5 c 128,-1,22
 731 -216 731 -216 767.5 -249.5 c 128,-1,23
 804 -283 804 -283 899 -283 c 1,24,-1
 899 -319 l 1,25,26
 897 -319 897 -319 894 -319 c 0,27,28
 677 -319 677 -319 628 -232 c 0,29,30
 616 -210 616 -210 616 -186 c 0,31,32
 616 -131 616 -131 663.5 -82 c 128,-1,33
 711 -33 711 -33 781 0 c 1,34,-1
 694 0 l 1,35,-1
 694 16 l 1,36,37
 581 -20 581 -20 471 -20 c 0,38,39
 297 -20 297 -20 195.5 58.5 c 128,-1,40
 94 137 94 137 94 311 c 0,41,42
 94 508 94 508 268 584 c 0,43,44
 357 624 357 624 463 624 c 0,45,-1
 466 624 l 0,46,47
 574 624 574 624 690 606 c 1,48,49
 684 726 684 726 638.5 772.5 c 128,-1,50
 593 819 593 819 473.5 819 c 128,-1,51
 354 819 354 819 217 723 c 1,52,-1
 115 829 l 1,8,9
EndSplineSet
Validated: 1
EndChar

StartChar: eogonek
Encoding: 281 281 223
Width: 1028
VWidth: 0
Flags: W
HStem: -319 37<538 641> -20 102<418 733> 451 102<264 770> 819 102<404 661>
VStem: 90 164<256 451> 358 115<-254 -86>
AnchorPoint: "top" 530 1004 basechar 0
AnchorPoint: "horn" 840 717 basechar 0
AnchorPoint: "bottom" 532 -287 basechar 0
LayerCount: 2
Fore
SplineSet
264 553 m 1,0,-1
 770 553 l 1,1,2
 752 673 752 673 694 746 c 128,-1,3
 636 819 636 819 540 819 c 128,-1,4
 444 819 444 819 367 747 c 128,-1,5
 290 675 290 675 264 553 c 1,0,-1
358 -186 m 0,6,7
 358 -92 358 -92 490 -17 c 1,8,9
 312 4 312 4 201 130 c 128,-1,10
 90 256 90 256 90 451 c 0,11,12
 90 555 90 555 127 645 c 0,13,14
 164 734 164 734 224 794 c 0,15,16
 353 922 353 922 512 922 c 0,17,18
 615 922 615 922 699 880 c 0,19,20
 782 838 782 838 834 770 c 0,21,22
 942 627 942 627 942 451 c 1,23,-1
 254 451 l 1,24,25
 254 283 254 283 345.5 182.5 c 128,-1,26
 437 82 437 82 585 82 c 128,-1,27
 733 82 733 82 809 205 c 1,28,-1
 932 158 l 1,29,30
 791 -20 791 -20 553 -20 c 1,31,32
 473 -75 473 -75 473 -145.5 c 128,-1,33
 473 -216 473 -216 509.5 -249.5 c 128,-1,34
 546 -283 546 -283 641 -283 c 1,35,-1
 641 -319 l 1,36,37
 639 -319 639 -319 636 -319 c 0,38,39
 419 -319 419 -319 370 -232 c 0,40,41
 358 -210 358 -210 358 -186 c 0,6,7
EndSplineSet
Validated: 1
EndChar

StartChar: Lslash
Encoding: 321 321 224
Width: 1083
VWidth: 0
UnlinkRmOvrlpSave: 1
Flags: W
HStem: 0 102<348 1034> 1393 41G<174 348>
VStem: 174 174<102 705 840 850 985 1434>
AnchorPoint: "top" 440 1434 basechar 0
AnchorPoint: "cedilla" 596 0 basechar 0
AnchorPoint: "bottom" 604 0 basechar 0
AnchorPoint: "ogonek" 745 0 basechar 0
AnchorPoint: "horn" 283 1085 basechar 0
LayerCount: 2
Fore
SplineSet
348 102 m 1,0,-1
 1034 102 l 1,1,-1
 1034 0 l 1,2,-1
 174 0 l 1,3,-1
 174 705 l 1,4,-1
 74 621 l 1,5,-1
 8 700 l 1,6,-1
 174 840 l 1,7,-1
 174 1434 l 1,8,-1
 348 1434 l 1,9,-1
 348 985 l 1,10,-1
 461 1079 l 1,11,-1
 526 999 l 1,12,-1
 348 850 l 1,13,-1
 348 102 l 1,0,-1
EndSplineSet
EndChar

StartChar: lslash
Encoding: 322 322 225
Width: 456
VWidth: 0
UnlinkRmOvrlpSave: 1
Flags: W
HStem: 0 43G<147 311> 1311 41G<147 311>
VStem: 147 164<0 713 848 850 985 1352>
AnchorPoint: "top" 229 1434 basechar 0
AnchorPoint: "cedilla" 223 0 basechar 0
AnchorPoint: "bottom" 227 0 basechar 0
AnchorPoint: "ogonek" 233 0 basechar 0
AnchorPoint: "horn" 266 1085 basechar 0
LayerCount: 2
Fore
SplineSet
147 713 m 1,0,-1
 37 621 l 1,1,-1
 -29 700 l 1,2,-1
 147 848 l 1,3,-1
 147 1352 l 1,4,-1
 311 1352 l 1,5,-1
 311 985 l 1,6,-1
 424 1079 l 1,7,-1
 489 999 l 1,8,-1
 311 850 l 1,9,-1
 311 0 l 1,10,-1
 147 0 l 1,11,-1
 147 713 l 1,0,-1
EndSplineSet
EndChar

StartChar: dcroat
Encoding: 273 273 226
Width: 1089
VWidth: 0
UnlinkRmOvrlpSave: 1
Flags: W
HStem: -20 102<403 666> 0 43G<780 944> 819 102<403 659> 1085 102<590 780 944 1012> 1311 41G<780 944>
VStem: 90 164<258 643> 780 164<0 47 207 666 823 1085 1188 1352>
AnchorPoint: "top" 532 1004 basechar 0
AnchorPoint: "bottom" 514 0 basechar 0
AnchorPoint: "cedilla" 512 0 basechar 0
AnchorPoint: "ogonek" 864 0 basechar 0
AnchorPoint: "horn" 975 1135 basechar 0
LayerCount: 2
Fore
SplineSet
780 397 m 2,0,-1
 780 401 l 2,1,2
 780 558 780 558 730 680 c 0,3,4
 704 744 704 744 653.5 781.5 c 128,-1,5
 603 819 603 819 527.5 819 c 128,-1,6
 452 819 452 819 386 762.5 c 128,-1,7
 320 706 320 706 287 623 c 128,-1,8
 254 540 254 540 254 451 c 128,-1,9
 254 362 254 362 287 278.5 c 128,-1,10
 320 195 320 195 386 138.5 c 128,-1,11
 452 82 452 82 546.5 82 c 128,-1,12
 641 82 641 82 710.5 168.5 c 128,-1,13
 780 255 780 255 780 397 c 2,0,-1
944 1085 m 1,14,-1
 944 0 l 1,15,-1
 780 0 l 1,16,-1
 780 47 l 1,17,18
 675 -20 675 -20 504 -20 c 0,19,20
 314 -20 314 -20 200 120 c 0,21,22
 90 256 90 256 90 451 c 0,23,24
 90 580 90 580 139.5 686.5 c 128,-1,25
 189 793 189 793 285 857.5 c 128,-1,26
 381 922 381 922 520.5 922 c 128,-1,27
 660 922 660 922 780 823 c 1,28,-1
 780 1085 l 1,29,-1
 590 1085 l 1,30,-1
 590 1188 l 1,31,-1
 780 1188 l 1,32,-1
 780 1352 l 1,33,-1
 944 1352 l 1,34,-1
 944 1188 l 1,35,-1
 1012 1188 l 1,36,-1
 1012 1085 l 1,37,-1
 944 1085 l 1,14,-1
EndSplineSet
EndChar

StartChar: Hbar
Encoding: 294 294 246
Width: 1351
VWidth: 0
UnlinkRmOvrlpSave: 1
Flags: W
HStem: 0 43G<174 348 1008 1182> 717 102<348 1008> 1159 102<92 174 348 1008 1182 1264> 1393 41G<174 348 1008 1182>
VStem: 174 174<0 717 819 1159 1262 1434> 1008 174<0 717 819 1159 1262 1434>
AnchorPoint: "top" 686 1434 basechar 0
AnchorPoint: "bottom" 674 0 basechar 0
AnchorPoint: "cedilla" 651 0 basechar 0
AnchorPoint: "ogonek" 1102 0 basechar 0
AnchorPoint: "horn" 1147 1352 basechar 0
LayerCount: 2
Fore
SplineSet
174 1159 m 1,0,-1
 92 1159 l 1,1,-1
 92 1262 l 1,2,-1
 174 1262 l 1,3,-1
 174 1434 l 1,4,-1
 348 1434 l 1,5,-1
 348 1262 l 1,6,-1
 1008 1262 l 1,7,-1
 1008 1434 l 1,8,-1
 1182 1434 l 1,9,-1
 1182 1262 l 1,10,-1
 1264 1262 l 1,11,-1
 1264 1159 l 1,12,-1
 1182 1159 l 1,13,-1
 1182 0 l 1,14,-1
 1008 0 l 1,15,-1
 1008 717 l 1,16,-1
 348 717 l 1,17,-1
 348 0 l 1,18,-1
 174 0 l 1,19,-1
 174 1159 l 1,0,-1
1008 1159 m 1,20,-1
 348 1159 l 1,21,-1
 348 819 l 1,22,-1
 1008 819 l 1,23,-1
 1008 1159 l 1,20,-1
EndSplineSet
EndChar

StartChar: hbar
Encoding: 295 295 247
Width: 1087
VWidth: 0
UnlinkRmOvrlpSave: 1
Flags: W
HStem: 0 43G<147 311 784 948> 819 102<385 697> 1085 102<66 147 311 487> 1311 41G<147 311>
VStem: 147 164<0 756 870 1085 1188 1352> 784 164<0 717>
AnchorPoint: "top" 387 1434 basechar 0
AnchorPoint: "bottom" 532 0 basechar 0
AnchorPoint: "cedilla" 532 0 basechar 0
AnchorPoint: "ogonek" 860 0 basechar 0
AnchorPoint: "horn" 856 717 basechar 0
LayerCount: 2
Fore
SplineSet
311 723 m 1,0,-1
 311 0 l 1,1,-1
 147 0 l 1,2,-1
 147 1085 l 1,3,-1
 66 1085 l 1,4,-1
 66 1188 l 1,5,-1
 147 1188 l 1,6,-1
 147 1352 l 1,7,-1
 311 1352 l 1,8,-1
 311 1188 l 1,9,-1
 487 1188 l 1,10,-1
 487 1085 l 1,11,-1
 311 1085 l 1,12,-1
 311 870 l 1,13,14
 410 922 410 922 520 922 c 0,15,16
 736 922 736 922 842 816 c 128,-1,17
 948 710 948 710 948 492 c 2,18,-1
 948 0 l 1,19,-1
 784 0 l 1,20,-1
 784 467 l 2,21,22
 784 677 784 677 720 751 c 0,23,24
 662 819 662 819 542 819 c 128,-1,25
 422 819 422 819 311 723 c 1,0,-1
EndSplineSet
EndChar

StartChar: Iogonek
Encoding: 302 302 248
Width: 514
VWidth: 0
Flags: W
HStem: -319 37<185 289> 0 43<172 346> 1393 41<172 346>
VStem: 6 115<-254 -86> 172 174<0 1434>
AnchorPoint: "top" 262 1434 basechar 0
AnchorPoint: "horn" 291 1085 basechar 0
AnchorPoint: "bottom" 178 -287 basechar 0
LayerCount: 2
Fore
SplineSet
346 1434 m 1,0,-1
 346 0 l 1,1,-1
 236 0 l 1,2,3
 189 -24 189 -24 155 -62.5 c 128,-1,4
 121 -101 121 -101 121 -158.5 c 128,-1,5
 121 -216 121 -216 157.5 -249.5 c 128,-1,6
 194 -283 194 -283 289 -283 c 1,7,-1
 289 -319 l 1,8,9
 287 -319 287 -319 284 -319 c 0,10,11
 67 -319 67 -319 18 -232 c 0,12,13
 6 -210 6 -210 6 -186 c 0,14,15
 6 -130 6 -130 54 -81 c 128,-1,16
 102 -32 102 -32 172 1 c 1,17,-1
 172 1434 l 1,18,-1
 346 1434 l 1,0,-1
EndSplineSet
Validated: 1
EndChar

StartChar: Uogonek
Encoding: 370 370 249
Width: 1402
VWidth: 0
Flags: W
HStem: -319 37<736 840> -20 102<539 873> 1393 41<156 330 1073 1247>
VStem: 156 174<328 1434> 557 115<-254 -86> 1073 174<328 1434>
AnchorPoint: "horn" 1247 1085 basechar 0
AnchorPoint: "top" 700 1434 basechar 0
LayerCount: 2
Fore
SplineSet
557 -186 m 0,0,1
 557 -94 557 -94 683 -20 c 1,2,3
 528 -16 528 -16 404 60 c 0,4,5
 332 104 332 104 278.5 172 c 128,-1,6
 225 240 225 240 190.5 353 c 128,-1,7
 156 466 156 466 156 610 c 2,8,-1
 156 1434 l 1,9,-1
 330 1434 l 1,10,-1
 330 610 l 2,11,12
 330 203 330 203 574 108 c 0,13,14
 641 82 641 82 700.5 82 c 128,-1,15
 760 82 760 82 807 95 c 128,-1,16
 854 108 854 108 904 144.5 c 128,-1,17
 954 181 954 181 990 238 c 0,18,19
 1073 369 1073 369 1073 610 c 2,20,-1
 1073 1434 l 1,21,-1
 1247 1434 l 1,22,-1
 1247 610 l 2,23,24
 1247 110 1247 110 910 6 c 0,25,26
 845 -14 845 -14 754 -19 c 1,27,28
 672 -74 672 -74 672 -145 c 128,-1,29
 672 -216 672 -216 708.5 -249.5 c 128,-1,30
 745 -283 745 -283 840 -283 c 1,31,-1
 840 -319 l 1,32,33
 838 -319 838 -319 835 -319 c 0,34,35
 619 -319 619 -319 570 -232 c 0,36,37
 558 -210 558 -210 557 -186 c 0,0,1
EndSplineSet
Validated: 1
EndChar

StartChar: iogonek
Encoding: 303 303 250
Width: 407
VWidth: 0
UnlinkRmOvrlpSave: 1
Flags: W
HStem: -319 37<228 332> 0 43<123 287> 860 41<123 287> 1085 164<123 287>
VStem: 49 115<-254 -86> 123 164<0 901 1085 1249>
AnchorPoint: "horn" 250 717 basechar 0
AnchorPoint: "top" 205 1167 basechar 0
LayerCount: 2
Fore
SplineSet
123 901 m 1,0,-1
 287 901 l 1,1,-1
 287 0 l 1,2,-1
 279 0 l 1,3,4
 232 -24 232 -24 198 -62.5 c 128,-1,5
 164 -101 164 -101 164 -158.5 c 128,-1,6
 164 -216 164 -216 200.5 -249.5 c 128,-1,7
 237 -283 237 -283 332 -283 c 1,8,-1
 332 -319 l 1,9,10
 330 -319 330 -319 327 -319 c 0,11,12
 111 -319 111 -319 62 -232 c 0,13,14
 50 -210 50 -210 49 -186 c 0,15,16
 49 -131 49 -131 96.5 -82 c 128,-1,17
 144 -33 144 -33 213 0 c 1,18,-1
 123 0 l 1,19,-1
 123 901 l 1,0,-1
123 1249 m 1,20,-1
 287 1249 l 1,21,-1
 287 1085 l 1,22,-1
 123 1085 l 1,23,-1
 123 1249 l 1,20,-1
EndSplineSet
EndChar

StartChar: uogonek
Encoding: 371 371 251
Width: 1067
VWidth: 0
Flags: W
HStem: -319 37<886 989> -20 102<417 723> 0 43<780 944> 860 41<143 307 780 944>
VStem: 143 164<204 901> 707 115<-254 -86> 780 164<0 33 135 901>
AnchorPoint: "top" 549 1004 basechar 0
AnchorPoint: "bottom" 532 0 basechar 0
AnchorPoint: "horn" 944 635 basechar 0
AnchorPoint: "cedilla" 522 0 basechar 0
LayerCount: 2
Fore
SplineSet
780 172 m 1,0,-1
 780 901 l 1,1,-1
 944 901 l 1,2,-1
 944 0 l 1,3,-1
 936 0 l 1,4,5
 889 -24 889 -24 855 -62.5 c 128,-1,6
 821 -101 821 -101 821 -158.5 c 128,-1,7
 821 -216 821 -216 857.5 -249.5 c 128,-1,8
 894 -283 894 -283 989 -283 c 1,9,-1
 989 -319 l 1,10,11
 987 -319 987 -319 984 -319 c 0,12,13
 769 -319 769 -319 720 -232 c 0,14,15
 708 -210 708 -210 707 -186 c 0,16,17
 707 -131 707 -131 754.5 -82 c 128,-1,18
 802 -33 802 -33 871 0 c 1,19,-1
 780 0 l 1,20,-1
 780 33 l 1,21,22
 668 -20 668 -20 541 -20 c 0,23,24
 329 -20 329 -20 236 84 c 128,-1,25
 143 188 143 188 143 410 c 2,26,-1
 143 901 l 1,27,-1
 307 901 l 1,28,-1
 307 434 l 2,29,30
 307 227 307 227 386 150 c 0,31,32
 456 82 456 82 571.5 82 c 128,-1,33
 687 82 687 82 780 172 c 1,0,-1
EndSplineSet
Validated: 1
EndChar

StartChar: kgreenlandic
Encoding: 312 312 305
Width: 980
VWidth: 0
Flags: W
HStem: 0 43G<147 311 705 913> 860 41G<147 311 652 877>
VStem: 147 164<0 268 477 901>
AnchorPoint: "top" 387 901 basechar 0
AnchorPoint: "cedilla" 508 0 basechar 0
AnchorPoint: "bottom" 508 0 basechar 0
AnchorPoint: "ogonek" 819 0 basechar 0
AnchorPoint: "horn" 668 717 basechar 0
LayerCount: 2
Fore
SplineSet
311 268 m 1,0,-1
 311 0 l 1,1,-1
 147 0 l 1,2,-1
 147 901 l 1,3,-1
 311 901 l 1,4,-1
 311 477 l 1,5,-1
 688 901 l 1,6,-1
 877 901 l 1,7,-1
 520 502 l 1,8,-1
 913 0 l 1,9,-1
 737 0 l 1,10,-1
 424 395 l 1,11,-1
 311 268 l 1,0,-1
EndSplineSet
Validated: 1
EndChar

StartChar: Tbar
Encoding: 358 358 306
Width: 1280
VWidth: 0
Flags: W
HStem: 0 43G<553 727> 901 102<348 553 727 932> 1331 102<41 553 727 1243>
VStem: 553 174<0 901 1004 1331>
AnchorPoint: "horn" 1200 1389 basechar 0
AnchorPoint: "ogonek" 659 0 basechar 0
AnchorPoint: "bottom" 643 0 basechar 0
AnchorPoint: "cedilla" 639 0 basechar 0
AnchorPoint: "top" 643 1434 basechar 0
LayerCount: 2
Fore
SplineSet
41 1434 m 1,0,-1
 1243 1434 l 1,1,-1
 1243 1331 l 1,2,-1
 727 1331 l 1,3,-1
 727 1004 l 1,4,-1
 932 1004 l 1,5,-1
 932 901 l 1,6,-1
 727 901 l 1,7,-1
 727 0 l 1,8,-1
 553 0 l 1,9,-1
 553 901 l 1,10,-1
 348 901 l 1,11,-1
 348 1004 l 1,12,-1
 553 1004 l 1,13,-1
 553 1331 l 1,14,-1
 41 1331 l 1,15,-1
 41 1434 l 1,0,-1
EndSplineSet
Validated: 1
EndChar

StartChar: tbar
Encoding: 359 359 307
Width: 567
VWidth: 0
Flags: W
HStem: 0 43G<186 350> 500 102<31 186 350 528> 799 102<82 186 350 512>
VStem: 186 164<0 500 602 799 901 1198>
AnchorPoint: "top" 272 1352 basechar 0
AnchorPoint: "cedilla" 264 0 basechar 0
AnchorPoint: "bottom" 264 0 basechar 0
AnchorPoint: "ogonek" 279 0 basechar 0
AnchorPoint: "horn" 319 1085 basechar 0
LayerCount: 2
Fore
SplineSet
186 500 m 1,0,-1
 31 500 l 1,1,-1
 31 602 l 1,2,-1
 186 602 l 1,3,-1
 186 799 l 1,4,-1
 51 799 l 1,5,-1
 82 901 l 1,6,-1
 186 901 l 1,7,-1
 186 1198 l 1,8,-1
 350 1229 l 1,9,-1
 350 901 l 1,10,-1
 512 901 l 1,11,-1
 512 799 l 1,12,-1
 350 799 l 1,13,-1
 350 602 l 1,14,-1
 528 602 l 1,15,-1
 528 500 l 1,16,-1
 350 500 l 1,17,-1
 350 0 l 1,18,-1
 186 0 l 1,19,-1
 186 500 l 1,0,-1
EndSplineSet
Validated: 1
EndChar

StartChar: Eng
Encoding: 330 330 308
Width: 1251
VWidth: 0
Flags: W
HStem: -20 102<609 862> 0 43G<147 322> 1270 102<464 826> 1311 41G<147 322>
VStem: 147 174<0 1169 1282 1352> 946 174<237 1132>
AnchorPoint: "horn" 1053 1085 basechar 0
AnchorPoint: "ogonek" 715 0 basechar 0
AnchorPoint: "bottom" 688 0 basechar 0
AnchorPoint: "cedilla" 688 0 basechar 0
AnchorPoint: "top" 672 1354 basechar 0
LayerCount: 2
Fore
SplineSet
528 178 m 1,0,1
 663 82 663 82 756 82 c 0,2,3
 853 82 853 82 890 157 c 0,4,5
 910 198 910 198 922 234 c 0,6,7
 934 272 934 272 939 344 c 0,8,9
 946 446 946 446 946 594 c 2,10,-1
 946 918 l 2,11,12
 946 1270 946 1270 659 1270 c 0,13,14
 560 1270 560 1270 472.5 1230 c 128,-1,15
 385 1190 385 1190 322 1135 c 1,16,-1
 322 0 l 1,17,-1
 147 0 l 1,18,-1
 147 1352 l 1,19,-1
 322 1352 l 1,20,-1
 322 1282 l 1,21,22
 324 1283 324 1283 343.5 1293.5 c 128,-1,23
 363 1304 363 1304 369.5 1307 c 128,-1,24
 376 1310 376 1310 395.5 1319.5 c 128,-1,25
 415 1329 415 1329 427 1333 c 128,-1,26
 439 1337 439 1337 459.5 1345 c 128,-1,27
 480 1353 480 1353 497 1356.5 c 128,-1,28
 514 1360 514 1360 536 1364 c 0,29,30
 573 1372 573 1372 629 1372 c 0,31,32
 853 1372 853 1372 986.5 1262.5 c 128,-1,33
 1120 1153 1120 1153 1120 942 c 2,34,-1
 1120 639 l 2,35,36
 1120 235 1120 235 1002 93 c 0,37,38
 908 -20 908 -20 725 -20 c 1,39,40
 648 -20 648 -20 580 3.5 c 128,-1,41
 512 27 512 27 426 72 c 1,42,-1
 528 178 l 1,0,1
EndSplineSet
Validated: 1
Substitution2: "'locl' Localized Forms for Sami-1" Engsami
EndChar

StartChar: eng
Encoding: 331 331 309
Width: 1087
VWidth: 0
Flags: W
HStem: -348 102<530 751> 0 43G<147 311> 819 102<385 697> 860 41G<147 311>
VStem: 147 164<0 756 870 901> 784 164<-216 717>
AnchorPoint: "top" 561 1004 basechar 0
AnchorPoint: "cedilla" 598 -311 basechar 0
AnchorPoint: "bottom" 598 -311 basechar 0
AnchorPoint: "ogonek" 598 -311 basechar 0
AnchorPoint: "horn" 856 717 basechar 0
LayerCount: 2
Fore
SplineSet
948 492 m 2,0,-1
 948 -68 l 2,1,2
 948 -272 948 -272 752 -332 c 0,3,4
 700 -348 700 -348 643 -348 c 0,5,6
 513 -348 513 -348 436 -256 c 1,7,-1
 565 -195 l 1,8,9
 601 -246 601 -246 667.5 -246 c 128,-1,10
 734 -246 734 -246 759 -187.5 c 128,-1,11
 784 -129 784 -129 784 0 c 2,12,-1
 784 467 l 2,13,14
 784 677 784 677 720 751 c 0,15,16
 662 819 662 819 542 819 c 128,-1,17
 422 819 422 819 311 723 c 1,18,-1
 311 0 l 1,19,-1
 147 0 l 1,20,-1
 147 901 l 1,21,-1
 311 901 l 1,22,-1
 311 870 l 1,23,24
 410 922 410 922 520 922 c 0,25,26
 736 922 736 922 842 816 c 128,-1,27
 948 710 948 710 948 492 c 2,0,-1
EndSplineSet
Validated: 1
EndChar

StartChar: asciicircum
Encoding: 94 94 310
Width: 856
VWidth: 0
Flags: W
HStem: 193 627
LayerCount: 2
Fore
SplineSet
426 819 m 1,0,-1
 823 250 l 1,1,-1
 741 193 l 1,2,-1
 426 639 l 1,3,-1
 115 193 l 1,4,-1
 33 250 l 1,5,-1
 426 819 l 1,0,-1
EndSplineSet
Validated: 1
EndChar

StartChar: asciitilde
Encoding: 126 126 312
Width: 831
VWidth: 0
Flags: W
HStem: 420 117<397 657> 485 117<175 435>
VStem: 82 84<420 466> 666 84<556 602>
LayerCount: 2
Fore
SplineSet
666 602 m 1,0,-1
 750 602 l 1,1,2
 741 524 741 524 678.5 472 c 128,-1,3
 616 420 616 420 528 420 c 0,4,5
 490 420 490 420 401 452.5 c 128,-1,6
 312 485 312 485 278 485 c 0,7,8
 244 485 244 485 207 468.5 c 128,-1,9
 170 452 170 452 166 420 c 1,10,-1
 82 420 l 1,11,12
 91 498 91 498 153 550 c 128,-1,13
 215 602 215 602 303 602 c 0,14,15
 341 602 341 602 430.5 569.5 c 128,-1,16
 520 537 520 537 554 537 c 0,17,18
 588 537 588 537 625 553.5 c 128,-1,19
 662 570 662 570 666 602 c 1,0,-1
EndSplineSet
Validated: 1
EndChar

StartChar: exclamdown
Encoding: 161 161 313
Width: 356
VWidth: 0
Flags: W
HStem: 1032 164<92 256>
VStem: 92 164<-238 259 1032 1196> 123 102<330 827>
LayerCount: 2
Fore
SplineSet
256 1032 m 1,0,-1
 92 1032 l 1,1,-1
 92 1196 l 1,2,-1
 256 1196 l 1,3,-1
 256 1032 l 1,0,-1
92 -238 m 25,4,-1
 123 827 l 1,5,-1
 225 827 l 1,6,-1
 256 -238 l 1,7,-1
 92 -238 l 25,4,-1
EndSplineSet
Validated: 1
EndChar

StartChar: questiondown
Encoding: 191 191 314
Width: 882
VWidth: 0
Flags: W
HStem: -238 102<343 636> -53 41G<675 805> 551 215<432 535> 971 164<401 565>
VStem: 41 164<18 419> 401 164<971 1135> 432 102<666 766>
LayerCount: 2
Fore
SplineSet
565 971 m 1,0,-1
 401 971 l 1,1,-1
 401 1135 l 1,2,-1
 565 1135 l 1,3,-1
 565 971 l 1,0,-1
416 651 m 1,4,-1
 432 766 l 1,5,-1
 535 766 l 1,6,-1
 565 551 l 1,7,-1
 494 551 l 2,8,9
 369 551 369 551 287 471.5 c 128,-1,10
 205 392 205 392 205 226.5 c 128,-1,11
 205 61 205 61 282.5 -37 c 128,-1,12
 360 -135 360 -135 504 -135 c 0,13,14
 598 -135 598 -135 650 -79 c 0,15,16
 672 -55 672 -55 698 -12 c 1,17,-1
 821 -59 l 1,18,19
 753 -146 753 -146 672 -192 c 128,-1,20
 591 -238 591 -238 473 -238 c 0,21,22
 274 -238 274 -238 157.5 -110.5 c 128,-1,23
 41 17 41 17 41 233 c 0,24,25
 41 508 41 508 277 614 c 0,26,27
 343 644 343 644 416 651 c 1,4,-1
EndSplineSet
Validated: 1
EndChar

StartChar: cent
Encoding: 162 162 315
Width: 944
VWidth: 0
Flags: W
HStem: 20 102<446 526 600 678> 778 102<444 526>
VStem: 102 164<241 665> 371 74<-102 25 172 735 879 1004> 526 74<-102 20 127 754 879 1004>
LayerCount: 2
Fore
SplineSet
371 39 m 1,0,1
 102 115 102 115 102 451 c 0,2,3
 102 618 102 618 176 724 c 128,-1,4
 250 830 250 830 371 864 c 1,5,-1
 371 1004 l 1,6,-1
 444 1004 l 1,7,-1
 444 879 l 1,8,9
 456 881 456 881 484 881 c 128,-1,10
 512 881 512 881 526 879 c 1,11,-1
 526 1004 l 1,12,-1
 600 1004 l 1,13,-1
 600 864 l 1,14,15
 678 840 678 840 730 782 c 128,-1,16
 782 724 782 724 823 635 c 1,17,-1
 690 567 l 1,18,19
 669 645 669 645 650.5 687.5 c 128,-1,20
 632 730 632 730 600 754 c 1,21,-1
 600 127 l 1,22,23
 648 135 648 135 676 162 c 128,-1,24
 704 189 704 189 739 246 c 1,25,-1
 862 199 l 1,26,27
 802 124 802 124 743 81.5 c 128,-1,28
 684 39 684 39 600 27 c 1,29,-1
 600 -102 l 1,30,-1
 526 -102 l 1,31,-1
 526 20 l 1,32,-1
 524 20 l 2,33,34
 507 20 507 20 444 25 c 1,35,-1
 444 -102 l 1,36,-1
 371 -102 l 1,37,-1
 371 39 l 1,0,1
371 172 m 1,38,-1
 371 735 l 1,39,40
 266 659 266 659 266 453.5 c 128,-1,41
 266 248 266 248 371 172 c 1,38,-1
444 137 m 1,42,43
 478 126 478 126 526 123 c 1,44,-1
 526 778 l 1,45,-1
 514 778 l 2,46,47
 475 778 475 778 444 770 c 1,48,-1
 444 137 l 1,42,43
EndSplineSet
Validated: 1
EndChar

StartChar: brokenbar
Encoding: 166 166 316
Width: 305
VWidth: 0
Flags: W
HStem: 0 43G<92 205> 1393 41G<92 205>
VStem: 92 113<0 655 778 1434>
LayerCount: 2
Fore
SplineSet
205 1434 m 25,0,-1
 205 778 l 1,1,-1
 92 778 l 1,2,-1
 92 1434 l 1,3,-1
 205 1434 l 25,0,-1
205 655 m 25,4,-1
 205 0 l 1,5,-1
 92 0 l 1,6,-1
 92 655 l 1,7,-1
 205 655 l 25,4,-1
EndSplineSet
Validated: 1
EndChar

StartChar: OE
Encoding: 338 338 317
Width: 1955
VWidth: 0
Flags: W
HStem: -20 102<572 883> 0 102<1186 1872> 799 102<1186 1655> 1331 102<1186 1839> 1352 102<551 876>
VStem: 102 174<441 1012> 1012 174<189 799 901 1246>
AnchorPoint: "top" 948 1432 basechar 0
AnchorPoint: "ogonek" 1591 0 basechar 0
AnchorPoint: "bottom" 975 0 basechar 0
AnchorPoint: "horn" 1798 1380 basechar 0
AnchorPoint: "cedilla" 1100 -2 basechar 0
LayerCount: 2
Fore
SplineSet
1872 0 m 1,0,-1
 1012 0 l 1,1,-1
 1012 53 l 1,2,3
 875 -20 875 -20 705 -20 c 0,4,5
 526 -20 526 -20 375 93 c 0,6,7
 204 220 204 220 138 444 c 0,8,9
 102 568 102 568 102 716.5 c 128,-1,10
 102 865 102 865 136 990 c 0,11,12
 170 1114 170 1114 228 1198 c 0,13,14
 289 1286 289 1286 362 1342 c 0,15,16
 508 1454 508 1454 687 1454 c 128,-1,17
 866 1454 866 1454 1012 1372 c 1,18,-1
 1012 1434 l 1,19,-1
 1839 1434 l 1,20,-1
 1839 1331 l 1,21,-1
 1186 1331 l 1,22,-1
 1186 901 l 1,23,-1
 1655 901 l 1,24,-1
 1655 799 l 1,25,-1
 1186 799 l 1,26,-1
 1186 102 l 1,27,-1
 1872 102 l 1,28,-1
 1872 0 l 1,0,-1
1012 1202 m 1,29,30
 878 1352 878 1352 698 1352 c 0,31,32
 576 1352 576 1352 470 1252 c 0,33,34
 276 1069 276 1069 276 717 c 0,35,36
 276 588 276 588 306 478.5 c 128,-1,37
 336 369 336 369 384 298 c 0,38,39
 432 226 432 226 491 176 c 0,40,41
 603 82 603 82 717 82 c 0,42,43
 793 82 793 82 871.5 120.5 c 128,-1,44
 950 159 950 159 1012 233 c 1,45,-1
 1012 1202 l 1,29,30
EndSplineSet
Validated: 1
EndChar

StartChar: oe
Encoding: 339 339 318
Width: 1746
VWidth: 0
Flags: W
HStem: -20 102<384 672 1135 1452> 451 102<983 1489> 819 102<404 672 1121 1380>
VStem: 90 164<231 648> 807 166<253 451>
AnchorPoint: "ogonek" 1311 0 basechar 0
AnchorPoint: "horn" 1573 635 basechar 0
AnchorPoint: "cedilla" 932 -4 basechar 0
AnchorPoint: "top" 901 1004 basechar 0
AnchorPoint: "bottom" 895 0 basechar 0
LayerCount: 2
Fore
SplineSet
807 451 m 128,-1,1
 807 613 807 613 733 716 c 128,-1,2
 659 819 659 819 541 819 c 128,-1,3
 423 819 423 819 338.5 717 c 128,-1,4
 254 615 254 615 254 446.5 c 128,-1,5
 254 278 254 278 327 180 c 128,-1,6
 400 82 400 82 529.5 82 c 128,-1,7
 659 82 659 82 733 185.5 c 128,-1,0
 807 289 807 289 807 451 c 128,-1,1
895 162 m 1,8,9
 777 -20 777 -20 512 -20 c 0,10,11
 314 -20 314 -20 202 107 c 128,-1,12
 90 234 90 234 90 451 c 0,13,14
 90 555 90 555 127 645 c 0,15,16
 164 734 164 734 224 794 c 0,17,18
 353 922 353 922 512 922 c 0,19,20
 638 922 638 922 738 875 c 128,-1,21
 838 828 838 828 897 737 c 1,22,23
 958 824 958 824 1047 873 c 128,-1,24
 1136 922 1136 922 1235 922 c 128,-1,25
 1334 922 1334 922 1418 880 c 128,-1,26
 1502 838 1502 838 1554 770 c 0,27,28
 1661 627 1661 627 1661 451 c 1,29,-1
 973 451 l 1,30,31
 973 283 973 283 1064.5 182.5 c 128,-1,32
 1156 82 1156 82 1304 82 c 128,-1,33
 1452 82 1452 82 1528 205 c 1,34,-1
 1651 158 l 1,35,36
 1510 -20 1510 -20 1272 -20 c 0,37,38
 1153 -20 1153 -20 1055 27.5 c 128,-1,39
 957 75 957 75 895 162 c 1,8,9
983 553 m 1,40,-1
 1489 553 l 1,41,42
 1471 673 1471 673 1413 746 c 128,-1,43
 1355 819 1355 819 1259 819 c 128,-1,44
 1163 819 1163 819 1086 747 c 128,-1,45
 1009 675 1009 675 983 553 c 1,40,-1
EndSplineSet
Validated: 1
EndChar

StartChar: Euro
Encoding: 8364 8364 319
Width: 1204
VWidth: 0
Flags: W
HStem: -20 102<592 884> 512 102<102 176 354 729> 819 102<102 176 352 729> 1331 102<552 879>
VStem: 172 164<614 819>
LayerCount: 2
Fore
SplineSet
733 82 m 0,0,1
 907 82 907 82 1001 264 c 1,2,-1
 1122 209 l 1,3,4
 1058 107 1058 107 948 43.5 c 128,-1,5
 838 -20 838 -20 709 -20 c 0,6,7
 590 -20 590 -20 469 62 c 0,8,9
 334 154 334 154 254 316 c 0,10,11
 210 406 210 406 190 512 c 1,12,-1
 72 512 l 1,13,-1
 102 614 l 1,14,-1
 176 614 l 1,15,16
 172 680 172 680 172 716.5 c 128,-1,17
 172 753 172 753 176 819 c 1,18,-1
 72 819 l 1,19,-1
 102 922 l 1,20,-1
 190 922 l 1,21,22
 244 1218 244 1218 446 1358 c 0,23,24
 556 1434 556 1434 676 1434 c 0,25,26
 995 1434 995 1434 1118 1245 c 1,27,-1
 987 1178 l 1,28,29
 899 1331 899 1331 700 1331 c 0,30,31
 575 1331 575 1331 479.5 1228 c 128,-1,32
 384 1125 384 1125 352 922 c 1,33,-1
 729 922 l 1,34,-1
 729 819 l 1,35,-1
 340 819 l 1,36,37
 336 753 336 753 336 716.5 c 128,-1,38
 336 680 336 680 340 614 c 1,39,-1
 729 614 l 1,40,-1
 729 512 l 1,41,-1
 354 512 l 1,42,43
 375 404 375 404 419.5 318 c 128,-1,44
 464 232 464 232 518 182 c 0,45,46
 628 82 628 82 733 82 c 0,0,1
EndSplineSet
Validated: 1
EndChar

StartChar: yen
Encoding: 165 165 320
Width: 1075
VWidth: 0
Flags: W
HStem: 0 43G<451 625> 258 102<262 451 625 805> 479 102<262 451 625 805> 1393 41G<82 287 790 995>
VStem: 451 174<0 258 360 479 582 709>
LayerCount: 2
Fore
SplineSet
539 899 m 1,0,-1
 811 1434 l 1,1,-1
 995 1434 l 1,2,-1
 625 709 l 1,3,-1
 625 582 l 1,4,-1
 805 582 l 1,5,-1
 805 479 l 1,6,-1
 625 479 l 1,7,-1
 625 360 l 1,8,-1
 805 360 l 1,9,-1
 805 258 l 1,10,-1
 625 258 l 1,11,-1
 625 0 l 1,12,-1
 451 0 l 1,13,-1
 451 258 l 1,14,-1
 262 258 l 1,15,-1
 262 360 l 1,16,-1
 451 360 l 1,17,-1
 451 479 l 1,18,-1
 262 479 l 1,19,-1
 262 582 l 1,20,-1
 451 582 l 1,21,-1
 451 711 l 1,22,-1
 82 1434 l 1,23,-1
 266 1434 l 1,24,-1
 539 899 l 1,0,-1
EndSplineSet
Validated: 1
EndChar

StartChar: sterling
Encoding: 163 163 321
Width: 903
VWidth: 0
Flags: W
HStem: 0 102<51 100 205 821> 696 102<147 199 352 567> 1169 102<393 616>
VStem: 199 154<251 696 799 1133>
LayerCount: 2
Fore
SplineSet
473 1169 m 0,0,1
 352 1169 352 1169 352 924 c 2,2,-1
 352 799 l 1,3,-1
 567 799 l 1,4,-1
 567 696 l 1,5,-1
 352 696 l 1,6,-1
 352 446 l 2,7,8
 352 272 352 272 236 134 c 0,9,10
 216 110 216 110 205 102 c 1,11,-1
 821 102 l 1,12,-1
 821 0 l 1,13,-1
 51 0 l 1,14,-1
 51 102 l 1,15,16
 71 102 71 102 106 154 c 128,-1,17
 141 206 141 206 170 290 c 128,-1,18
 199 374 199 374 199 446 c 2,19,-1
 199 696 l 1,20,-1
 117 696 l 1,21,-1
 147 799 l 1,22,-1
 199 799 l 1,23,-1
 199 991 l 2,24,25
 199 1196 199 1196 394 1256 c 0,26,27
 446 1272 446 1272 502 1272 c 0,28,29
 634 1272 634 1272 711 1180 c 1,30,-1
 580 1118 l 1,31,32
 544 1169 544 1169 473 1169 c 0,0,1
EndSplineSet
Validated: 1
EndChar

StartChar: section
Encoding: 167 167 322
Width: 808
VWidth: 0
Flags: W
HStem: -18 102<246 477> 1268 102<322 553>
VStem: 127 152<592 842 986 1226> 516 152<121 370 510 763>
LayerCount: 2
Fore
SplineSet
294 97 m 0,0,1
 330 84 330 84 380 84 c 0,2,3
 432 84 432 84 464 114 c 0,4,5
 516 162 516 162 516 262 c 0,6,7
 516 383 516 383 354 436 c 1,8,9
 246 473 246 473 186.5 552 c 128,-1,10
 127 631 127 631 127 738 c 128,-1,11
 127 845 127 845 203 926 c 1,12,13
 131 1004 131 1004 131 1098 c 0,14,15
 131 1190 131 1190 194 1274 c 0,16,17
 226 1316 226 1316 286 1343 c 128,-1,18
 346 1370 346 1370 406 1370 c 0,19,20
 464 1370 464 1370 500 1360 c 0,21,22
 542 1348 542 1348 575 1328 c 0,23,24
 656 1279 656 1279 709 1135 c 1,25,-1
 616 1114 l 1,26,27
 584 1204 584 1204 542 1234 c 0,28,29
 494 1268 494 1268 431 1268 c 128,-1,30
 368 1268 368 1268 336 1238 c 0,31,32
 284 1190 284 1190 283 1090 c 0,33,34
 283 968 283 968 444 915 c 1,35,36
 552 877 552 877 612 799 c 128,-1,37
 672 721 672 721 672 614 c 128,-1,38
 672 507 672 507 596 426 c 1,39,40
 668 348 668 348 668 254 c 0,41,42
 668 162 668 162 605 78 c 0,43,44
 573 36 573 36 513 9 c 128,-1,45
 453 -18 453 -18 393.5 -18 c 128,-1,46
 334 -18 334 -18 298 -8 c 0,47,48
 262 0 262 0 224 24 c 0,49,50
 143 73 143 73 90 217 c 1,51,-1
 182 238 l 1,52,53
 226 122 226 122 294 97 c 0,0,1
307 844 m 1,54,55
 279 798 279 798 279 735 c 128,-1,56
 279 672 279 672 289 641 c 128,-1,57
 299 610 299 610 322 591.5 c 128,-1,58
 345 573 345 573 366.5 563 c 128,-1,59
 388 553 388 553 426.5 538 c 128,-1,60
 465 523 465 523 492 508 c 1,61,62
 520 554 520 554 520 617 c 128,-1,63
 520 680 520 680 510 711 c 128,-1,64
 500 742 500 742 477 760.5 c 128,-1,65
 454 779 454 779 432.5 789 c 128,-1,66
 411 799 411 799 372.5 814 c 128,-1,67
 334 829 334 829 307 844 c 1,54,55
EndSplineSet
Validated: 1
EndChar

StartChar: copyright
Encoding: 169 169 323
Width: 1101
VWidth: 0
Flags: W
HStem: -20 82<424 665> 193 61<473 660> 733 61<458 655> 946 82<424 665>
VStem: 119 115<283 725> 285 90<339 666> 856 115<283 725>
LayerCount: 2
Fore
SplineSet
233 504 m 128,-1,1
 233 318 233 318 328.5 189.5 c 128,-1,2
 424 61 424 61 545 61 c 128,-1,3
 666 61 666 61 761 189.5 c 128,-1,4
 856 318 856 318 856 504 c 128,-1,5
 856 690 856 690 761 818 c 128,-1,6
 666 946 666 946 545 946 c 128,-1,7
 424 946 424 946 328.5 818 c 128,-1,0
 233 690 233 690 233 504 c 128,-1,1
119 504 m 128,-1,9
 119 619 119 619 158.5 719.5 c 128,-1,10
 198 820 198 820 260 886 c 128,-1,11
 322 952 322 952 397 990 c 128,-1,12
 472 1028 472 1028 545 1028 c 128,-1,13
 618 1028 618 1028 693 990 c 128,-1,14
 768 952 768 952 830 886 c 128,-1,15
 892 820 892 820 931.5 719.5 c 128,-1,16
 971 619 971 619 971 504 c 128,-1,17
 971 389 971 389 931.5 288.5 c 128,-1,18
 892 188 892 188 830 122 c 128,-1,19
 768 56 768 56 693 18 c 128,-1,20
 618 -20 618 -20 545 -20 c 128,-1,21
 472 -20 472 -20 397 18 c 128,-1,22
 322 56 322 56 260 122 c 128,-1,23
 198 188 198 188 158.5 288.5 c 128,-1,8
 119 389 119 389 119 504 c 128,-1,9
686 670 m 1,24,25
 642 733 642 733 558.5 733 c 128,-1,26
 475 733 475 733 425 674 c 128,-1,27
 375 615 375 615 375 497 c 128,-1,28
 375 379 375 379 436 316.5 c 128,-1,29
 497 254 497 254 574 254 c 128,-1,30
 651 254 651 254 702 330 c 1,31,-1
 770 299 l 1,32,33
 690 193 690 193 551 193 c 0,34,35
 458 194 458 194 376 266 c 0,36,37
 336 302 336 302 310.5 362.5 c 128,-1,38
 285 423 285 423 285 498.5 c 128,-1,39
 285 574 285 574 308 633 c 128,-1,40
 331 692 331 692 368 726 c 0,41,42
 443 795 443 795 535 795 c 128,-1,43
 627 795 627 795 679.5 773 c 128,-1,44
 732 751 732 751 768 705 c 1,45,-1
 686 670 l 1,24,25
EndSplineSet
Validated: 1
EndChar

StartChar: registered
Encoding: 174 174 324
Width: 1101
VWidth: 0
Flags: W
HStem: -20 82<424 665> 469 61<455 558> 739 61<455 617> 946 82<424 665>
VStem: 119 115<283 725> 365 90<207 469 530 739> 641 90<542 727> 655 88<207 355> 856 115<283 725>
LayerCount: 2
Fore
SplineSet
233 504 m 128,-1,1
 233 318 233 318 328.5 189.5 c 128,-1,2
 424 61 424 61 545 61 c 128,-1,3
 666 61 666 61 761 189.5 c 128,-1,4
 856 318 856 318 856 504 c 128,-1,5
 856 690 856 690 761 818 c 128,-1,6
 666 946 666 946 545 946 c 128,-1,7
 424 946 424 946 328.5 818 c 128,-1,0
 233 690 233 690 233 504 c 128,-1,1
119 504 m 128,-1,9
 119 619 119 619 158.5 719.5 c 128,-1,10
 198 820 198 820 260 886 c 128,-1,11
 322 952 322 952 397 990 c 128,-1,12
 472 1028 472 1028 545 1028 c 128,-1,13
 618 1028 618 1028 693 990 c 128,-1,14
 768 952 768 952 830 886 c 128,-1,15
 892 820 892 820 931.5 719.5 c 128,-1,16
 971 619 971 619 971 504 c 128,-1,17
 971 389 971 389 931.5 288.5 c 128,-1,18
 892 188 892 188 830 122 c 128,-1,19
 768 56 768 56 693 18 c 128,-1,20
 618 -20 618 -20 545 -20 c 128,-1,21
 472 -20 472 -20 397 18 c 128,-1,22
 322 56 322 56 260 122 c 128,-1,23
 198 188 198 188 158.5 288.5 c 128,-1,8
 119 389 119 389 119 504 c 128,-1,9
455 469 m 1,24,-1
 455 207 l 1,25,-1
 365 207 l 1,26,-1
 365 801 l 1,27,-1
 543 801 l 2,28,29
 638 801 638 801 684.5 748.5 c 128,-1,30
 731 696 731 696 731 644 c 0,31,32
 731 592 731 592 705 548.5 c 128,-1,33
 679 505 679 505 629 485 c 1,34,35
 662 447 662 447 702.5 363.5 c 128,-1,36
 743 280 743 280 743 207 c 1,37,-1
 655 207 l 1,38,39
 655 277 655 277 611.5 357.5 c 128,-1,40
 568 438 568 438 530 469 c 1,41,-1
 455 469 l 1,24,-1
455 739 m 1,42,-1
 455 530 l 1,43,-1
 555 530 l 2,44,45
 597 530 597 530 619 562 c 128,-1,46
 641 594 641 594 641 634 c 0,47,48
 641 674 641 674 619 706.5 c 128,-1,49
 597 739 597 739 555 739 c 2,50,-1
 455 739 l 1,42,-1
EndSplineSet
Validated: 1
EndChar

StartChar: ordfeminine
Encoding: 170 170 325
Width: 620
VWidth: 0
Flags: W
HStem: 348 61<72 549> 516 61<235 404> 786 61<228 402> 938 61<204 385>
VStem: 106 92<601 767> 406 92<528 535 583 785 842 927>
LayerCount: 2
Fore
SplineSet
72 410 m 1,0,-1
 549 410 l 1,1,-1
 549 348 l 1,2,-1
 72 348 l 1,3,-1
 72 410 l 1,0,-1
299 516 m 0,4,5
 106 516 106 516 106 688 c 0,6,7
 106 810 106 810 232 840 c 0,8,9
 264 848 264 848 309 848 c 128,-1,10
 354 848 354 848 403 842 c 1,11,12
 400 896 400 896 378 917 c 128,-1,13
 356 938 356 938 300 938 c 128,-1,14
 244 938 244 938 172 887 c 1,15,-1
 113 948 l 1,16,17
 206 999 206 999 280.5 999 c 128,-1,18
 355 999 355 999 395.5 988.5 c 128,-1,19
 436 978 436 978 460 946 c 128,-1,20
 484 914 484 914 491 868 c 128,-1,21
 498 822 498 822 498 739 c 2,22,-1
 498 528 l 1,23,-1
 406 528 l 1,24,-1
 406 535 l 1,25,26
 354 516 354 516 299 516 c 0,4,5
406 598 m 1,27,-1
 406 778 l 1,28,29
 367 786 367 786 316.5 786 c 128,-1,30
 266 786 266 786 232.5 761 c 128,-1,31
 199 736 199 736 199 687.5 c 128,-1,32
 199 639 199 639 233.5 608.5 c 128,-1,33
 268 578 268 578 313 578 c 128,-1,34
 358 578 358 578 406 598 c 1,27,-1
EndSplineSet
Validated: 1
EndChar

StartChar: ordmasculine
Encoding: 186 186 326
Width: 620
VWidth: 0
Flags: W
HStem: 348 61<72 549> 516 61<230 390> 938 61<240 390>
VStem: 84 94<616 890> 444 90<620 896>
LayerCount: 2
Fore
SplineSet
72 410 m 1,0,-1
 549 410 l 1,1,-1
 549 348 l 1,2,-1
 72 348 l 1,3,-1
 72 410 l 1,0,-1
444 758 m 128,-1,5
 444 837 444 837 407.5 887.5 c 128,-1,6
 371 938 371 938 315 938 c 128,-1,7
 259 938 259 938 218.5 888.5 c 128,-1,8
 178 839 178 839 178 756 c 128,-1,9
 178 673 178 673 213 625.5 c 128,-1,10
 248 578 248 578 309.5 578 c 128,-1,11
 371 578 371 578 407.5 628.5 c 128,-1,4
 444 679 444 679 444 758 c 128,-1,5
471 578.5 m 128,-1,13
 407 516 407 516 303.5 516 c 128,-1,14
 200 516 200 516 142 581.5 c 128,-1,15
 84 647 84 647 84 754.5 c 128,-1,16
 84 862 84 862 151 930.5 c 128,-1,17
 218 999 218 999 312.5 999 c 128,-1,18
 407 999 407 999 471 937 c 128,-1,19
 535 875 535 875 535 758 c 128,-1,12
 535 641 535 641 471 578.5 c 128,-1,13
EndSplineSet
Validated: 1
EndChar

StartChar: guilsinglright
Encoding: 8250 8250 327
Width: 589
VWidth: 0
Flags: W
VStem: 102 385
LayerCount: 2
Fore
SplineSet
377 451 m 1,0,-1
 102 778 l 1,1,-1
 180 817 l 1,2,-1
 487 451 l 1,3,-1
 180 86 l 1,4,-1
 102 125 l 1,5,-1
 377 451 l 1,0,-1
EndSplineSet
Validated: 1
EndChar

StartChar: guilsinglleft
Encoding: 8249 8249 328
Width: 589
VWidth: 0
Flags: W
VStem: 102 385
LayerCount: 2
Fore
SplineSet
213 453 m 1,0,-1
 487 125 l 1,1,-1
 410 86 l 1,2,-1
 102 453 l 1,3,-1
 410 817 l 1,4,-1
 487 778 l 1,5,-1
 213 453 l 1,0,-1
EndSplineSet
Validated: 1
EndChar

StartChar: quoteleft
Encoding: 8216 8216 331
Width: 356
VWidth: 0
Flags: W
HStem: 985 367<163 197>
VStem: 92 147<985 1197>
LayerCount: 2
Fore
SplineSet
240 985 m 1,0,-1
 92 985 l 1,1,2
 92 1222 92 1222 156 1329 c 0,3,4
 168 1348 168 1348 170 1352 c 1,5,-1
 246 1352 l 1,6,7
 197 1283 197 1283 197 1200 c 0,8,9
 197 1175 197 1175 218.5 1105 c 128,-1,10
 240 1035 240 1035 240 985 c 1,0,-1
EndSplineSet
Validated: 1
EndChar

StartChar: quoteright
Encoding: 8217 8217 332
Width: 356
VWidth: 0
Flags: W
HStem: 985 367<141 175>
VStem: 98 147<1139 1352>
LayerCount: 2
Fore
SplineSet
98 1352 m 1,0,-1
 246 1352 l 1,1,2
 246 1115 246 1115 182 1008 c 0,3,4
 170 989 170 989 168 985 c 1,5,-1
 92 985 l 1,6,7
 141 1054 141 1054 141 1137 c 0,8,9
 141 1162 141 1162 119.5 1232 c 128,-1,10
 98 1302 98 1302 98 1352 c 1,0,-1
EndSplineSet
Validated: 1
EndChar

StartChar: bullet
Encoding: 8226 8226 338
Width: 620
VWidth: 0
Flags: W
HStem: 287 483<178 449>
VStem: 84 451<373 670>
LayerCount: 2
Fore
SplineSet
471 349 m 128,-1,1
 407 287 407 287 303.5 287 c 128,-1,2
 200 287 200 287 142 352 c 128,-1,3
 84 417 84 417 84 524.5 c 128,-1,4
 84 632 84 632 151 701 c 128,-1,5
 218 770 218 770 312.5 770 c 128,-1,6
 407 770 407 770 471 707.5 c 128,-1,7
 535 645 535 645 535 528 c 128,-1,0
 535 411 535 411 471 349 c 128,-1,1
EndSplineSet
Validated: 1
EndChar

StartChar: endash
Encoding: 8211 8211 339
Width: 802
VWidth: 0
Flags: W
HStem: 348 102<82 721>
VStem: 82 639<348 451>
LayerCount: 2
Fore
SplineSet
82 451 m 1,0,-1
 721 451 l 1,1,-1
 721 348 l 1,2,-1
 82 348 l 1,3,-1
 82 451 l 1,0,-1
EndSplineSet
Validated: 1
EndChar

StartChar: emdash
Encoding: 8212 8212 340
Width: 1110
VWidth: 0
Flags: W
HStem: 348 102<82 1028>
LayerCount: 2
Fore
SplineSet
82 451 m 1,0,-1
 1028 451 l 1,1,-1
 1028 348 l 1,2,-1
 82 348 l 1,3,-1
 82 451 l 1,0,-1
EndSplineSet
Validated: 1
EndChar

StartChar: degree
Encoding: 176 176 342
Width: 577
VWidth: 0
Flags: W
HStem: 1010 96<212 365> 1286 96<212 365>
VStem: 102 96<1119 1273> 379 96<1119 1273>
LayerCount: 2
Fore
SplineSet
199 1196 m 128,-1,1
 199 1159 199 1159 225.5 1132.5 c 128,-1,2
 252 1106 252 1106 289 1106 c 128,-1,3
 326 1106 326 1106 352.5 1132.5 c 128,-1,4
 379 1159 379 1159 379 1196 c 128,-1,5
 379 1233 379 1233 352.5 1259.5 c 128,-1,6
 326 1286 326 1286 289 1286 c 128,-1,7
 252 1286 252 1286 225.5 1259.5 c 128,-1,0
 199 1233 199 1233 199 1196 c 128,-1,1
102 1196 m 128,-1,9
 102 1272 102 1272 157 1327 c 128,-1,10
 212 1382 212 1382 289 1382 c 128,-1,11
 366 1382 366 1382 420.5 1327 c 128,-1,12
 475 1272 475 1272 475 1196 c 128,-1,13
 475 1120 475 1120 420.5 1065 c 128,-1,14
 366 1010 366 1010 289 1010 c 128,-1,15
 212 1010 212 1010 157 1065 c 128,-1,8
 102 1120 102 1120 102 1196 c 128,-1,9
EndSplineSet
Validated: 1
EndChar

StartChar: currency
Encoding: 164 164 343
Width: 724
VWidth: 0
Flags: W
HStem: 248 96<276 449> 561 96<276 449>
VStem: 158 96<366 539> 471 96<366 539>
LayerCount: 2
Fore
SplineSet
254 453 m 128,-1,1
 254 409 254 409 286 376.5 c 128,-1,2
 318 344 318 344 362 344 c 128,-1,3
 406 344 406 344 438.5 376.5 c 128,-1,4
 471 409 471 409 471 453 c 128,-1,5
 471 497 471 497 438.5 529 c 128,-1,6
 406 561 406 561 362 561 c 128,-1,7
 318 561 318 561 286 529 c 128,-1,0
 254 497 254 497 254 453 c 128,-1,1
186 348 m 1,8,9
 158 396 158 396 158 452 c 0,10,11
 158 508 158 508 186 557 c 1,12,-1
 82 662 l 1,13,-1
 154 733 l 1,14,-1
 258 629 l 1,15,16
 306 657 306 657 362 657 c 0,17,18
 418 657 418 657 467 629 c 1,19,-1
 571 733 l 1,20,-1
 643 662 l 1,21,-1
 539 557 l 1,22,23
 567 508 567 508 567 452 c 0,24,25
 567 396 567 396 539 348 c 1,26,-1
 643 244 l 1,27,-1
 571 172 l 1,28,-1
 467 276 l 1,29,30
 418 248 418 248 362 248 c 0,31,32
 306 248 306 248 258 276 c 1,33,-1
 154 172 l 1,34,-1
 82 244 l 1,35,-1
 186 348 l 1,8,9
EndSplineSet
Validated: 1
EndChar

StartChar: logicalnot
Encoding: 172 172 349
Width: 696
VWidth: 0
Flags: W
HStem: 348 102<82 532>
VStem: 532 82<195 348>
LayerCount: 2
Fore
SplineSet
82 451 m 1,0,-1
 614 451 l 1,1,-1
 614 195 l 1,2,-1
 532 195 l 1,3,-1
 532 348 l 1,4,-1
 82 348 l 1,5,-1
 82 451 l 1,0,-1
EndSplineSet
Validated: 1
EndChar

StartChar: plusminus
Encoding: 177 177 350
Width: 856
VWidth: 0
Flags: W
HStem: 53 102<82 774> 453 102<82 377 479 774>
VStem: 377 102<260 453 555 748>
LayerCount: 2
Fore
SplineSet
82 156 m 1,0,-1
 774 156 l 1,1,-1
 774 53 l 1,2,-1
 82 53 l 1,3,-1
 82 156 l 1,0,-1
479 453 m 1,4,-1
 479 260 l 1,5,-1
 377 260 l 1,6,-1
 377 453 l 1,7,-1
 82 453 l 1,8,-1
 82 555 l 1,9,-1
 377 555 l 1,10,-1
 377 748 l 1,11,-1
 479 748 l 1,12,-1
 479 555 l 1,13,-1
 774 555 l 1,14,-1
 774 453 l 1,15,-1
 479 453 l 1,4,-1
EndSplineSet
Validated: 1
EndChar

StartChar: uni00B5
Encoding: 181 181 351
Width: 972
VWidth: 0
Flags: W
HStem: -20 102<368 654> 0 43G<719 883> 860 41G<82 246 719 883>
VStem: 82 164<-293 37 227 901> 719 164<0 49 142 901>
LayerCount: 2
Fore
SplineSet
719 186 m 1,0,-1
 719 901 l 1,1,-1
 883 901 l 1,2,-1
 883 0 l 1,3,-1
 719 0 l 1,4,-1
 719 49 l 1,5,6
 606 -20 606 -20 472 -20 c 0,7,8
 338 -20 338 -20 246 37 c 1,9,-1
 246 -293 l 1,10,-1
 82 -293 l 1,11,-1
 82 901 l 1,12,-1
 246 901 l 1,13,-1
 246 467 l 2,14,15
 246 265 246 265 319 173.5 c 128,-1,16
 392 82 392 82 510 82 c 0,17,18
 628 82 628 82 719 186 c 1,0,-1
EndSplineSet
Validated: 1
EndChar

StartChar: divide
Encoding: 247 247 352
Width: 710
VWidth: 0
Flags: W
HStem: 117 150<274 424> 348 102<82 629> 532 150<274 424>
VStem: 274 150<117 266 532 682>
CounterMasks: 1 e0
LayerCount: 2
Fore
SplineSet
274 266 m 1,0,-1
 424 266 l 1,1,-1
 424 117 l 1,2,-1
 274 117 l 1,3,-1
 274 266 l 1,0,-1
274 682 m 1,4,-1
 424 682 l 1,5,-1
 424 532 l 1,6,-1
 274 532 l 1,7,-1
 274 682 l 1,4,-1
82 451 m 1,8,-1
 629 451 l 1,9,-1
 629 348 l 1,10,-1
 82 348 l 1,11,-1
 82 451 l 1,8,-1
EndSplineSet
Validated: 1
EndChar

StartChar: paragraph
Encoding: 182 182 353
Width: 995
VWidth: 0
Flags: W
HStem: 0 43G<518 641 772 895> 655 102<372 518> 1331 102<370 518 641 772>
VStem: 82 174<874 1217> 518 123<0 655 758 1331> 772 123<0 1331>
LayerCount: 2
Fore
SplineSet
772 1331 m 1,0,-1
 641 1331 l 1,1,-1
 641 0 l 1,2,-1
 518 0 l 1,3,-1
 518 655 l 1,4,5
 262 658 262 658 144 838 c 0,6,7
 82 934 82 934 82 1044 c 0,8,9
 82 1155 82 1155 143 1251 c 0,10,11
 259 1434 259 1434 518 1434 c 2,12,-1
 895 1434 l 1,13,-1
 895 0 l 1,14,-1
 772 0 l 1,15,-1
 772 1331 l 1,0,-1
518 758 m 1,16,-1
 518 1331 l 1,17,18
 346 1331 346 1331 284 1188 c 0,19,20
 256 1121 256 1121 256 1066.5 c 128,-1,21
 256 1012 256 1012 261 979 c 128,-1,22
 266 946 266 946 283 904.5 c 128,-1,23
 300 863 300 863 328 832 c 0,24,25
 394 758 394 758 518 758 c 1,16,-1
EndSplineSet
Validated: 1
EndChar

StartChar: uni00B9
Encoding: 185 185 354
Width: 321
VWidth: 0
Flags: W
HStem: 1282 66<82 139>
VStem: 82 158<1288 1348> 139 100<754 1288>
LayerCount: 2
Fore
SplineSet
240 1366 m 1,0,-1
 240 754 l 1,1,-1
 139 754 l 1,2,-1
 139 1288 l 1,3,-1
 82 1282 l 1,4,-1
 82 1348 l 1,5,-1
 240 1366 l 1,0,-1
EndSplineSet
Validated: 1
EndChar

StartChar: uni00B2
Encoding: 178 178 355
Width: 559
VWidth: 0
Flags: W
HStem: 752 66<184 477> 1292 66<195 346>
VStem: 84 100<817 900> 373 100<1081 1276>
LayerCount: 2
Fore
SplineSet
82 1235 m 1,0,1
 142 1358 142 1358 297 1358 c 0,2,3
 371 1358 371 1358 422 1305.5 c 128,-1,4
 473 1253 473 1253 473 1172 c 0,5,6
 473 1090 473 1090 400 1035 c 0,7,8
 343 992 343 992 286.5 954 c 128,-1,9
 230 916 230 916 207.5 884.5 c 128,-1,10
 185 853 185 853 184 817 c 1,11,-1
 477 817 l 1,12,-1
 477 752 l 1,13,-1
 84 752 l 1,14,15
 84 858 84 858 142 924 c 0,16,17
 184 972 184 972 237 1008 c 0,18,19
 290 1046 290 1046 316 1066 c 0,20,21
 374 1112 374 1112 374 1172 c 0,22,23
 374 1234 374 1234 345 1263 c 0,24,25
 317 1292 317 1292 279 1292 c 0,26,27
 194 1292 194 1292 164 1204 c 1,28,-1
 82 1235 l 1,0,1
EndSplineSet
Validated: 1
EndChar

StartChar: uni00B3
Encoding: 179 179 356
Width: 583
VWidth: 0
Flags: W
HStem: 741 68<199 368> 1034 66<238 354> 1290 68<210 361>
VStem: 381 100<1119 1278> 401 100<835 1004>
LayerCount: 2
Fore
SplineSet
100 1235 m 5,0,1
 128 1294 128 1294 174 1326 c 0,2,3
 220 1358 220 1358 298 1358 c 128,-1,4
 376 1358 376 1358 428.5 1307 c 128,-1,5
 481 1256 481 1256 481 1202 c 128,-1,6
 481 1148 481 1148 464 1120 c 128,-1,7
 447 1092 447 1092 406 1067 c 1,8,9
 502 1016 502 1016 502 927 c 128,-1,10
 502 838 502 838 442.5 789.5 c 128,-1,11
 383 741 383 741 303 741 c 0,12,13
 143 741 143 741 82 866 c 1,14,-1
 164 897 l 1,15,16
 194 809 194 809 287 809 c 0,17,18
 326 809 326 809 363.5 838.5 c 128,-1,19
 401 868 401 868 401 916 c 128,-1,20
 401 964 401 964 364 999 c 128,-1,21
 327 1034 327 1034 238 1034 c 1,22,-1
 238 1100 l 1,23,24
 381 1100 381 1100 381 1194 c 0,25,26
 381 1242 381 1242 353 1266 c 0,27,28
 326 1290 326 1290 284 1290 c 128,-1,29
 242 1290 242 1290 220 1269 c 128,-1,30
 198 1248 198 1248 180 1204 c 1,31,-1
 100 1235 l 5,0,1
EndSplineSet
Validated: 1
EndChar

StartChar: threequarters
Encoding: 190 190 357
Width: 1081
VWidth: 0
Flags: W
HStem: 0 43G<731 831> 131 66<565 731 831 893> 741 68<199 368> 1034 66<238 354> 1290 68<210 361>
VStem: 381 100<1119 1278> 401 100<835 1004> 731 100<0 131 197 473>
LayerCount: 2
Fore
SplineSet
100 1235 m 1,0,1
 128 1294 128 1294 174 1326 c 0,2,3
 220 1358 220 1358 298 1358 c 128,-1,4
 376 1358 376 1358 428.5 1307 c 128,-1,5
 481 1256 481 1256 481 1202 c 128,-1,6
 481 1148 481 1148 464 1120 c 128,-1,7
 447 1092 447 1092 406 1067 c 1,8,9
 502 1016 502 1016 502 927 c 128,-1,10
 502 838 502 838 442.5 789.5 c 128,-1,11
 383 741 383 741 303 741 c 0,12,13
 143 741 143 741 82 866 c 1,14,-1
 164 897 l 1,15,16
 194 809 194 809 287 809 c 0,17,18
 326 809 326 809 363.5 838.5 c 128,-1,19
 401 868 401 868 401 916 c 128,-1,20
 401 964 401 964 364 999 c 128,-1,21
 327 1034 327 1034 238 1034 c 1,22,-1
 238 1100 l 1,23,24
 381 1100 381 1100 381 1194 c 0,25,26
 381 1242 381 1242 353 1266 c 0,27,28
 326 1290 326 1290 284 1290 c 128,-1,29
 242 1290 242 1290 220 1269 c 128,-1,30
 198 1248 198 1248 180 1204 c 1,31,-1
 100 1235 l 1,0,1
82 264 m 1,32,-1
 842 1047 l 1,33,-1
 999 1047 l 1,34,-1
 240 264 l 1,35,-1
 82 264 l 1,32,-1
471 174 m 1,36,-1
 733 606 l 1,37,-1
 831 606 l 1,38,-1
 831 197 l 1,39,-1
 893 197 l 1,40,-1
 893 131 l 1,41,-1
 831 131 l 1,42,-1
 831 0 l 1,43,-1
 731 0 l 1,44,-1
 731 131 l 1,45,-1
 471 131 l 1,46,-1
 471 174 l 1,36,-1
731 473 m 1,47,-1
 565 197 l 1,48,-1
 731 197 l 1,49,-1
 731 473 l 1,47,-1
EndSplineSet
Validated: 1
EndChar

StartChar: onequarter
Encoding: 188 188 358
Width: 1081
VWidth: 0
Flags: W
HStem: 0 43G<731 831> 131 66<565 731 831 893> 1282 66<260 317>
VStem: 260 158<1288 1348> 317 100<754 1288> 731 100<0 131 197 473>
LayerCount: 2
Fore
SplineSet
418 1366 m 1,0,-1
 418 754 l 1,1,-1
 317 754 l 1,2,-1
 317 1288 l 1,3,-1
 260 1282 l 1,4,-1
 260 1348 l 1,5,-1
 418 1366 l 1,0,-1
82 264 m 1,6,-1
 842 1047 l 1,7,-1
 999 1047 l 1,8,-1
 240 264 l 1,9,-1
 82 264 l 1,6,-1
471 174 m 1,10,-1
 733 606 l 1,11,-1
 831 606 l 1,12,-1
 831 197 l 1,13,-1
 893 197 l 1,14,-1
 893 131 l 1,15,-1
 831 131 l 1,16,-1
 831 0 l 1,17,-1
 731 0 l 1,18,-1
 731 131 l 1,19,-1
 471 131 l 1,20,-1
 471 174 l 1,10,-1
731 473 m 1,21,-1
 565 197 l 1,22,-1
 731 197 l 1,23,-1
 731 473 l 1,21,-1
EndSplineSet
Validated: 1
EndChar

StartChar: onehalf
Encoding: 189 189 359
Width: 1085
VWidth: 0
Flags: W
HStem: 0 66<711 1004> 541 66<722 873> 1282 66<260 317>
VStem: 260 158<1288 1348> 317 100<754 1288> 610 100<66 148> 899 100<329 525>
LayerCount: 2
Fore
SplineSet
418 1366 m 1,0,-1
 418 754 l 1,1,-1
 317 754 l 1,2,-1
 317 1288 l 1,3,-1
 260 1282 l 1,4,-1
 260 1348 l 1,5,-1
 418 1366 l 1,0,-1
82 264 m 1,6,-1
 842 1047 l 1,7,-1
 999 1047 l 1,8,-1
 240 264 l 1,9,-1
 82 264 l 1,6,-1
608 483 m 1,10,11
 668 606 668 606 823 606 c 0,12,13
 897 606 897 606 948 553.5 c 128,-1,14
 999 501 999 501 999 436.5 c 128,-1,15
 999 372 999 372 970 331 c 128,-1,16
 941 290 941 290 899 261.5 c 128,-1,17
 857 233 857 233 815 206 c 0,18,19
 715 141 715 141 711 66 c 1,20,-1
 1004 66 l 1,21,-1
 1004 0 l 1,22,-1
 610 0 l 1,23,24
 610 106 610 106 668 172 c 0,25,26
 710 220 710 220 763 256 c 0,27,28
 816 294 816 294 842 314 c 0,29,30
 900 360 900 360 900 420 c 0,31,32
 900 482 900 482 871 512 c 0,33,34
 843 541 843 541 805 541 c 0,35,36
 720 541 720 541 690 453 c 1,37,-1
 608 483 l 1,10,11
EndSplineSet
Validated: 1
EndChar

StartChar: afii00208
Encoding: 8213 8213 365
Width: 1384
VWidth: 0
Flags: W
HStem: 348 102<82 1303>
LayerCount: 2
Fore
SplineSet
82 451 m 1,0,-1
 1303 451 l 1,1,-1
 1303 348 l 1,2,-1
 82 348 l 1,3,-1
 82 451 l 1,0,-1
EndSplineSet
Validated: 1
EndChar

StartChar: longs
Encoding: 383 383 370
Width: 731
VWidth: 0
Flags: W
HStem: 0 43G<139 303> 1270 102<355 638>
VStem: 139 164<0 1214>
AnchorPoint: "top" 469 1434 basechar 0
LayerCount: 2
Fore
SplineSet
139 0 m 1,0,-1
 139 864 l 2,1,2
 139 1079 139 1079 150 1133 c 128,-1,3
 161 1187 161 1187 172 1220 c 128,-1,4
 183 1253 183 1253 197.5 1272.5 c 128,-1,5
 212 1292 212 1292 234.5 1311 c 128,-1,6
 257 1330 257 1330 284 1340 c 0,7,8
 310 1350 310 1350 348 1358 c 0,9,10
 414 1372 414 1372 498 1372 c 0,11,12
 582 1372 582 1372 636 1358 c 0,13,14
 713 1338 713 1338 821 1280 c 1,15,-1
 719 1174 l 1,16,17
 644 1227 644 1227 596.5 1248.5 c 128,-1,18
 549 1270 549 1270 509 1270 c 128,-1,19
 469 1270 469 1270 445.5 1267.5 c 128,-1,20
 422 1265 422 1265 403.5 1257.5 c 128,-1,21
 385 1250 385 1250 371 1243.5 c 128,-1,22
 357 1237 357 1237 346 1220 c 128,-1,23
 335 1203 335 1203 328 1191 c 128,-1,24
 321 1179 321 1179 316 1152 c 128,-1,25
 311 1125 311 1125 308.5 1106.5 c 128,-1,26
 306 1088 306 1088 304.5 1049.5 c 128,-1,27
 303 1011 303 1011 303 985 c 2,28,-1
 303 0 l 1,29,-1
 139 0 l 1,0,-1
EndSplineSet
Validated: 1
EndChar

StartChar: uniFB00
Encoding: 64256 64256 372
Width: 1134
VWidth: 0
Flags: W
HStem: 0 43G<166 330 741 905> 799 102<61 166 330 741 905 1067> 1270 102<363 538 939 1113>
VStem: 166 164<0 799 901 1238> 741 164<0 799 901 1238>
LayerCount: 2
Fore
SplineSet
524 1239 m 1,0,1
 500 1270 500 1270 444 1270 c 0,2,3
 388 1270 388 1270 359 1221 c 128,-1,4
 330 1172 330 1172 330 1042 c 2,5,-1
 330 901 l 1,6,-1
 741 901 l 1,7,-1
 741 1096 l 2,8,9
 741 1221 741 1221 808.5 1296.5 c 128,-1,10
 876 1372 876 1372 997 1372 c 0,11,12
 1082 1372 1082 1372 1143 1350 c 1,13,-1
 1100 1239 l 1,14,15
 1075 1270 1075 1270 1019 1270 c 0,16,17
 963 1270 963 1270 934 1221 c 128,-1,18
 905 1172 905 1172 905 1042 c 2,19,-1
 905 901 l 1,20,-1
 1067 901 l 1,21,-1
 1067 799 l 1,22,-1
 905 799 l 1,23,-1
 905 0 l 1,24,-1
 741 0 l 1,25,-1
 741 799 l 1,26,-1
 330 799 l 1,27,-1
 330 0 l 1,28,-1
 166 0 l 1,29,-1
 166 799 l 1,30,-1
 31 799 l 1,31,-1
 61 901 l 1,32,-1
 166 901 l 1,33,-1
 166 1096 l 2,34,35
 166 1221 166 1221 233.5 1296.5 c 128,-1,36
 301 1372 301 1372 422 1372 c 0,37,38
 506 1372 506 1372 567 1350 c 1,39,-1
 524 1239 l 1,0,1
EndSplineSet
Validated: 1
LCarets2: 1 590 
Ligature2: "'liga' Standard Ligatures in Latin lookup 0-1" f f
EndChar

StartChar: fi
Encoding: 64257 64257 373
Width: 985
VWidth: 0
Flags: W
HStem: 0 43G<166 330 700 864> 799 102<61 166 330 700> 1065 164<700 864> 1270 102<363 538>
VStem: 166 164<0 799 901 1238> 700 164<0 799 1065 1229>
LayerCount: 2
Fore
SplineSet
524 1239 m 1,0,1
 500 1270 500 1270 444 1270 c 0,2,3
 388 1270 388 1270 359 1221 c 128,-1,4
 330 1172 330 1172 330 1042 c 2,5,-1
 330 901 l 1,6,-1
 864 901 l 1,7,-1
 864 0 l 1,8,-1
 700 0 l 1,9,-1
 700 799 l 1,10,-1
 330 799 l 1,11,-1
 330 0 l 1,12,-1
 166 0 l 1,13,-1
 166 799 l 1,14,-1
 31 799 l 1,15,-1
 61 901 l 1,16,-1
 166 901 l 1,17,-1
 166 1096 l 2,18,19
 166 1221 166 1221 233.5 1296.5 c 128,-1,20
 301 1372 301 1372 422 1372 c 0,21,22
 506 1372 506 1372 567 1350 c 1,23,-1
 524 1239 l 1,0,1
700 1229 m 1,24,-1
 864 1229 l 1,25,-1
 864 1065 l 1,26,-1
 700 1065 l 1,27,-1
 700 1229 l 1,24,-1
EndSplineSet
Validated: 1
LCarets2: 1 639 
Ligature2: "'liga' Standard Ligatures in Latin lookup 0-1" f i
EndChar

StartChar: fl
Encoding: 64258 64258 374
Width: 985
VWidth: 0
Flags: W
HStem: 0 43G<166 330 651 815> 799 102<61 166 330 492> 1270 102<373 625> 1311 41G<651 815>
VStem: 166 164<0 799 901 1226> 651 164<0 1238 1335 1352>
LayerCount: 2
Fore
SplineSet
815 1352 m 1,0,-1
 815 0 l 1,1,-1
 651 0 l 1,2,-1
 651 1194 l 1,3,4
 633 1228 633 1228 586 1249 c 128,-1,5
 539 1270 539 1270 471 1270 c 128,-1,6
 403 1270 403 1270 366.5 1219.5 c 128,-1,7
 330 1169 330 1169 330 1042 c 2,8,-1
 330 901 l 1,9,-1
 492 901 l 1,10,-1
 492 799 l 1,11,-1
 330 799 l 1,12,-1
 330 0 l 1,13,-1
 166 0 l 1,14,-1
 166 799 l 1,15,-1
 31 799 l 1,16,-1
 61 901 l 1,17,-1
 166 901 l 1,18,-1
 166 1096 l 2,19,20
 166 1220 166 1220 243 1296 c 128,-1,21
 320 1372 320 1372 452 1372 c 0,22,23
 584 1372 584 1372 651 1335 c 1,24,-1
 651 1352 l 1,25,-1
 815 1352 l 1,0,-1
EndSplineSet
Validated: 1
LCarets2: 1 602 
Ligature2: "'liga' Standard Ligatures in Latin lookup 0-1" f l
EndChar

StartChar: uniFB03
Encoding: 64259 64259 375
Width: 1560
VWidth: 0
Flags: W
HStem: 0 43G<166 330 741 905 1276 1440> 799 102<61 166 330 741 905 1276> 1065 164<1276 1440> 1270 102<363 538 939 1113>
VStem: 166 164<0 799 901 1238> 741 164<0 799 901 1238> 1276 164<0 799 1065 1229>
LayerCount: 2
Fore
SplineSet
1276 1229 m 1,0,-1
 1440 1229 l 1,1,-1
 1440 1065 l 1,2,-1
 1276 1065 l 1,3,-1
 1276 1229 l 1,0,-1
524 1239 m 1,4,5
 500 1270 500 1270 444 1270 c 0,6,7
 388 1270 388 1270 359 1221 c 128,-1,8
 330 1172 330 1172 330 1042 c 2,9,-1
 330 901 l 1,10,-1
 741 901 l 1,11,-1
 741 1096 l 2,12,13
 741 1221 741 1221 808.5 1296.5 c 128,-1,14
 876 1372 876 1372 997 1372 c 0,15,16
 1082 1372 1082 1372 1143 1350 c 1,17,-1
 1100 1239 l 1,18,19
 1075 1270 1075 1270 1019 1270 c 0,20,21
 963 1270 963 1270 934 1221 c 128,-1,22
 905 1172 905 1172 905 1042 c 2,23,-1
 905 901 l 1,24,-1
 1440 901 l 1,25,-1
 1440 0 l 1,26,-1
 1276 0 l 1,27,-1
 1276 799 l 1,28,-1
 905 799 l 1,29,-1
 905 0 l 1,30,-1
 741 0 l 1,31,-1
 741 799 l 1,32,-1
 330 799 l 1,33,-1
 330 0 l 1,34,-1
 166 0 l 1,35,-1
 166 799 l 1,36,-1
 31 799 l 1,37,-1
 61 901 l 1,38,-1
 166 901 l 1,39,-1
 166 1096 l 2,40,41
 166 1221 166 1221 233.5 1296.5 c 128,-1,42
 301 1372 301 1372 422 1372 c 0,43,44
 506 1372 506 1372 567 1350 c 1,45,-1
 524 1239 l 1,4,5
EndSplineSet
Validated: 1
LCarets2: 2 635 1159 
Ligature2: "'liga' Standard Ligatures in Latin lookup 0-1" f f i
EndChar

StartChar: uniFB04
Encoding: 64260 64260 376
Width: 1511
VWidth: 0
Flags: W
HStem: 0 43G<166 330 741 905 1227 1391> 799 102<61 166 330 741 905 1067> 1270 102<363 538 948 1201> 1311 41G<1227 1391>
VStem: 166 164<0 799 901 1238> 741 164<0 799 901 1226> 1227 164<0 1238 1335 1352>
LayerCount: 2
Fore
SplineSet
330 799 m 1,0,-1
 330 0 l 1,1,-1
 166 0 l 1,2,-1
 166 799 l 1,3,-1
 31 799 l 1,4,-1
 61 901 l 1,5,-1
 166 901 l 1,6,-1
 166 1096 l 2,7,8
 166 1221 166 1221 233.5 1296.5 c 128,-1,9
 301 1372 301 1372 422 1372 c 0,10,11
 506 1372 506 1372 567 1350 c 1,12,-1
 524 1239 l 1,13,14
 500 1270 500 1270 444 1270 c 0,15,16
 388 1270 388 1270 359 1221 c 128,-1,17
 330 1172 330 1172 330 1042 c 2,18,-1
 330 901 l 1,19,-1
 741 901 l 1,20,-1
 741 1096 l 2,21,22
 741 1220 741 1220 818 1296 c 128,-1,23
 895 1372 895 1372 1027 1372 c 0,24,25
 1159 1372 1159 1372 1227 1335 c 1,26,-1
 1227 1352 l 1,27,-1
 1391 1352 l 1,28,-1
 1391 0 l 1,29,-1
 1227 0 l 1,30,-1
 1227 1194 l 1,31,32
 1209 1228 1209 1228 1162 1249 c 128,-1,33
 1115 1270 1115 1270 1047 1270 c 128,-1,34
 979 1270 979 1270 942 1219.5 c 128,-1,35
 905 1169 905 1169 905 1042 c 2,36,-1
 905 901 l 1,37,-1
 1067 901 l 1,38,-1
 1067 799 l 1,39,-1
 905 799 l 1,40,-1
 905 0 l 1,41,-1
 741 0 l 1,42,-1
 741 799 l 1,43,-1
 330 799 l 1,0,-1
EndSplineSet
Validated: 1
LCarets2: 2 627 1114 
Ligature2: "'liga' Standard Ligatures in Latin lookup 0-1" f f l
EndChar

StartChar: uni01EA
Encoding: 490 490 380
Width: 1435
VWidth: 0
Flags: W
HStem: -319 37<820 924> -20 102<572 877> 1352 102<551 871>
VStem: 102 174<441 1012> 641 115<-254 -86> 1163 174<438 1009>
AnchorPoint: "top" 707 1434 basechar 0
LayerCount: 2
Fore
SplineSet
703 1352 m 0,0,1
 641 1352 641 1352 583 1328 c 128,-1,2
 525 1304 525 1304 470 1252 c 0,3,4
 416 1200 416 1200 372 1127 c 0,5,6
 276 967 276 967 276 717 c 0,7,8
 276 588 276 588 306 478.5 c 128,-1,9
 336 369 336 369 384 298 c 0,10,11
 432 226 432 226 491 176 c 0,12,13
 603 82 603 82 717 82 c 0,14,15
 849 82 849 82 961 182 c 0,16,17
 1163 363 1163 363 1163 717 c 0,18,19
 1163 1087 1163 1087 954 1258 c 0,20,21
 839 1352 839 1352 703 1352 c 0,0,1
641 -186 m 0,22,23
 641 -92 641 -92 772 -17 c 1,24,25
 739 -20 739 -20 680 -20 c 128,-1,26
 621 -20 621 -20 537.5 7 c 128,-1,27
 454 34 454 34 375 93 c 128,-1,28
 296 152 296 152 235.5 236 c 128,-1,29
 175 320 175 320 138.5 444.5 c 128,-1,30
 102 569 102 569 102 717 c 128,-1,31
 102 865 102 865 136 990 c 0,32,33
 170 1114 170 1114 228 1198 c 0,34,35
 289 1286 289 1286 362 1342 c 0,36,37
 508 1454 508 1454 686 1454 c 0,38,39
 900 1454 900 1454 1060 1342 c 0,40,41
 1337 1149 1337 1149 1337 720 c 0,42,43
 1337 355 1337 355 1146 156 c 0,44,45
 1034 39 1034 39 867 -2 c 1,46,47
 821 -26 821 -26 788.5 -64 c 128,-1,48
 756 -102 756 -102 756 -159 c 128,-1,49
 756 -216 756 -216 792.5 -249.5 c 128,-1,50
 829 -283 829 -283 924 -283 c 1,51,-1
 924 -319 l 1,52,53
 922 -319 922 -319 919 -319 c 0,54,55
 703 -319 703 -319 654 -232 c 0,56,57
 642 -210 642 -210 641 -186 c 0,22,23
EndSplineSet
Validated: 1
EndChar

StartChar: uni01EB
Encoding: 491 491 381
Width: 1056
VWidth: 0
Flags: W
HStem: -319 37<556 659> -20 102<384 673> 819 102<404 673>
VStem: 90 164<231 648> 377 115<-254 -86> 807 164<241 660>
AnchorPoint: "top" 535 1004 basechar 0
LayerCount: 2
Fore
SplineSet
807 451 m 128,-1,1
 807 613 807 613 733 716 c 128,-1,2
 659 819 659 819 541 819 c 128,-1,3
 423 819 423 819 338.5 717 c 128,-1,4
 254 615 254 615 254 446.5 c 128,-1,5
 254 278 254 278 327 180 c 128,-1,6
 400 82 400 82 529.5 82 c 128,-1,7
 659 82 659 82 733 185.5 c 128,-1,0
 807 289 807 289 807 451 c 128,-1,1
502 -20 m 1,8,9
 309 -17 309 -17 199.5 110 c 128,-1,10
 90 237 90 237 90 451 c 0,11,12
 90 555 90 555 127 645 c 0,13,14
 164 734 164 734 224 794 c 0,15,16
 353 922 353 922 512 922 c 0,17,18
 719 922 719 922 845 801 c 128,-1,19
 971 680 971 680 971 460.5 c 128,-1,20
 971 241 971 241 864 121.5 c 128,-1,21
 757 2 757 2 576 -17 c 1,22,23
 492 -72 492 -72 492 -144 c 128,-1,24
 492 -216 492 -216 528 -249.5 c 128,-1,25
 564 -283 564 -283 659 -283 c 1,26,-1
 659 -319 l 1,27,28
 657 -319 657 -319 654 -319 c 0,29,30
 439 -319 439 -319 390 -232 c 0,31,32
 378 -210 378 -210 377 -186 c 0,33,34
 377 -94 377 -94 502 -20 c 1,8,9
EndSplineSet
Validated: 1
EndChar

StartChar: afii10028
Encoding: 1050 1050 400
Width: 1239
VWidth: 0
Flags: W
HStem: 0 119<1091 1192> 1393 41G<174 348 967 1208>
VStem: 174 174<0 469 696 1434>
AnchorPoint: "top" 606 1434 basechar 0
LayerCount: 2
Fore
SplineSet
1192 119 m 1,0,-1
 1192 0 l 1,1,2
 1042 0 1042 0 943 82 c 0,3,4
 850 160 850 160 792 274 c 0,5,6
 746 366 746 366 710 457 c 128,-1,7
 674 548 674 548 654 591 c 0,8,9
 610 685 610 685 557 705 c 1,10,-1
 348 469 l 1,11,-1
 348 0 l 1,12,-1
 174 0 l 1,13,-1
 174 1434 l 1,14,-1
 348 1434 l 1,15,-1
 348 696 l 1,16,-1
 1004 1434 l 1,17,-1
 1208 1434 l 1,18,-1
 647 805 l 1,19,20
 758 756 758 756 832 615 c 0,21,22
 864 553 864 553 894 483.5 c 128,-1,23
 924 414 924 414 952 350 c 0,24,25
 982 286 982 286 1014 234 c 0,26,27
 1086 119 1086 119 1192 119 c 1,0,-1
EndSplineSet
Validated: 1
EndChar

StartChar: afii10051
Encoding: 1026 1026 412
Width: 1503
VWidth: 0
Flags: W
HStem: -348 102<810 1141> 0 43G<553 727> 819 102<801 1113> 1331 102<41 553 727 1239>
VStem: 553 174<0 756 870 1331> 1200 164<-181 717>
AnchorPoint: "top" 643 1434 basechar 0
LayerCount: 2
Fore
SplineSet
41 1434 m 1,0,-1
 1243 1434 l 1,1,-1
 1239 1331 l 1,2,-1
 727 1331 l 1,3,-1
 727 870 l 1,4,5
 826 922 826 922 936 922 c 0,6,7
 1152 922 1152 922 1258 816 c 128,-1,8
 1364 710 1364 710 1364 492 c 2,9,-1
 1364 160 l 2,10,11
 1364 -54 1364 -54 1341 -134 c 128,-1,12
 1318 -214 1318 -214 1290 -248.5 c 128,-1,13
 1262 -283 1262 -283 1214 -307 c 0,14,15
 1131 -348 1131 -348 964 -348 c 128,-1,16
 797 -348 797 -348 621 -256 c 1,17,-1
 723 -150 l 1,18,19
 860 -246 860 -246 975 -246 c 0,20,21
 1060 -246 1060 -246 1092.5 -231 c 128,-1,22
 1125 -216 1125 -216 1141 -203.5 c 128,-1,23
 1157 -191 1157 -191 1168 -166 c 128,-1,24
 1179 -141 1179 -141 1185.5 -118.5 c 128,-1,25
 1192 -96 1192 -96 1195 -55 c 0,26,27
 1200 13 1200 13 1200 115 c 2,28,-1
 1200 467 l 2,29,30
 1200 677 1200 677 1136 751 c 0,31,32
 1078 819 1078 819 958 819 c 128,-1,33
 838 819 838 819 727 723 c 1,34,-1
 727 0 l 1,35,-1
 553 0 l 1,36,-1
 553 1331 l 1,37,-1
 41 1331 l 1,38,-1
 41 1434 l 1,0,-1
EndSplineSet
Validated: 1
EndChar

StartChar: afii10053
Encoding: 1028 1028 414
Width: 1331
VWidth: 0
Flags: W
HStem: -20 102<600 974> 713 102<281 938> 1352 102<558 933>
VStem: 102 174<459 713 815 1012>
AnchorPoint: "top" 717 1434 basechar 0
LayerCount: 2
Fore
SplineSet
1249 209 m 1,0,1
 1169 106 1169 106 1035.5 43 c 128,-1,2
 902 -20 902 -20 741 -20 c 0,3,4
 564 -20 564 -20 401 93 c 0,5,6
 216 222 216 222 143 444 c 0,7,8
 102 570 102 570 102 717.5 c 128,-1,9
 102 865 102 865 139 989.5 c 128,-1,10
 176 1114 176 1114 236 1198 c 128,-1,11
 296 1282 296 1282 375 1341 c 0,12,13
 526 1454 526 1454 702 1454 c 0,14,15
 1075 1454 1075 1454 1243 1245 c 1,16,-1
 1090 1178 l 1,17,18
 1035 1256 1035 1256 945 1304 c 128,-1,19
 855 1352 855 1352 752 1352 c 128,-1,20
 649 1352 649 1352 574 1318.5 c 128,-1,21
 499 1285 499 1285 437 1220 c 0,22,23
 303 1080 303 1080 281 815 c 1,24,-1
 938 815 l 1,25,-1
 938 713 l 1,26,-1
 276 713 l 1,27,28
 277 584 277 584 310 475.5 c 128,-1,29
 343 367 343 367 395 296 c 0,30,31
 448 226 448 226 514 176 c 0,32,33
 640 83 640 83 772 82 c 0,34,35
 1010 82 1010 82 1128 264 c 1,36,-1
 1249 209 l 1,0,1
EndSplineSet
Validated: 1
EndChar

StartChar: afii10058
Encoding: 1033 1033 415
Width: 1792
VWidth: 0
Flags: W
HStem: -20 102<129 347> 0 102<1071 1436> 799 102<1071 1440> 1331 102<557 897>
VStem: 383 174<111 1331> 897 174<102 799 901 1331> 1567 174<260 638>
AnchorPoint: "top" 723 1434 basechar 0
LayerCount: 2
Fore
SplineSet
1708 614.5 m 128,-1,1
 1741 536 1741 536 1741 464.5 c 128,-1,2
 1741 393 1741 393 1725 330 c 0,3,4
 1710 268 1710 268 1674 208 c 128,-1,5
 1638 148 1638 148 1586 102 c 0,6,7
 1471 0 1471 0 1286 0 c 2,8,-1
 897 0 l 1,9,-1
 897 1331 l 1,10,-1
 557 1331 l 1,11,-1
 557 260 l 2,12,13
 556 57 556 57 352 -4 c 0,14,15
 298 -20 298 -20 242 -20 c 0,16,17
 112 -20 112 -20 35 72 c 1,18,-1
 164 133 l 1,19,20
 200 82 200 82 266 82 c 128,-1,21
 332 82 332 82 357.5 140.5 c 128,-1,22
 383 199 383 199 383 328 c 2,23,-1
 383 1434 l 1,24,-1
 1071 1434 l 1,25,-1
 1071 901 l 1,26,-1
 1282 901 l 2,27,28
 1383 901 1383 901 1471.5 861 c 128,-1,29
 1560 821 1560 821 1617.5 757 c 128,-1,0
 1675 693 1675 693 1708 614.5 c 128,-1,1
1071 799 m 1,30,-1
 1071 102 l 1,31,-1
 1317 102 l 2,32,33
 1379 102 1379 102 1429 137 c 128,-1,34
 1479 172 1479 172 1508 226 c 0,35,36
 1567 337 1567 337 1567 435.5 c 128,-1,37
 1567 534 1567 534 1542 609.5 c 128,-1,38
 1517 685 1517 685 1458 742 c 128,-1,39
 1399 799 1399 799 1317 799 c 2,40,-1
 1071 799 l 1,30,-1
EndSplineSet
Validated: 1
EndChar

StartChar: afii10059
Encoding: 1034 1034 416
Width: 1820
VWidth: 0
Flags: W
HStem: 0 102<1100 1465> 799 102<348 926 1100 1468> 1393 41G<174 348 926 1100>
VStem: 174 174<0 799 901 1434> 926 174<102 799 901 1434> 1595 174<260 638>
AnchorPoint: "top" 645 1434 basechar 0
LayerCount: 2
Fore
SplineSet
348 1434 m 1,0,-1
 348 901 l 1,1,-1
 926 901 l 1,2,-1
 926 1434 l 1,3,-1
 1100 1434 l 1,4,-1
 1100 901 l 1,5,-1
 1311 901 l 2,6,7
 1412 901 1412 901 1500 861 c 128,-1,8
 1588 821 1588 821 1646 757 c 0,9,10
 1769 621 1769 621 1769 457 c 0,11,12
 1768 322 1768 322 1702 208 c 0,13,14
 1580 0 1580 0 1315 0 c 2,15,-1
 926 0 l 1,16,-1
 926 799 l 1,17,-1
 348 799 l 1,18,-1
 348 0 l 1,19,-1
 174 0 l 1,20,-1
 174 1434 l 1,21,-1
 348 1434 l 1,0,-1
1100 102 m 1,22,-1
 1346 102 l 2,23,24
 1408 102 1408 102 1458 137 c 128,-1,25
 1508 172 1508 172 1536 226 c 0,26,27
 1594 338 1594 338 1595 457 c 0,28,29
 1594 574 1594 574 1536 681 c 0,30,31
 1508 733 1508 733 1458 766 c 128,-1,32
 1408 799 1408 799 1346 799 c 2,33,-1
 1100 799 l 1,34,-1
 1100 102 l 1,22,-1
EndSplineSet
Validated: 1
EndChar

StartChar: afii10060
Encoding: 1035 1035 417
Width: 1503
VWidth: 0
Flags: W
HStem: 0 43G<553 727 1200 1364> 819 102<801 1113> 1331 102<41 553 727 1239>
VStem: 553 174<0 756 870 1331> 1200 164<0 717>
AnchorPoint: "top" 643 1434 basechar 0
LayerCount: 2
Fore
SplineSet
41 1434 m 1,0,-1
 1243 1434 l 1,1,-1
 1239 1331 l 1,2,-1
 727 1331 l 1,3,-1
 727 870 l 1,4,5
 826 922 826 922 936 922 c 0,6,7
 1152 922 1152 922 1258 816 c 128,-1,8
 1364 710 1364 710 1364 492 c 2,9,-1
 1364 0 l 1,10,-1
 1200 0 l 1,11,-1
 1200 467 l 2,12,13
 1200 677 1200 677 1136 751 c 0,14,15
 1078 819 1078 819 958 819 c 128,-1,16
 838 819 838 819 727 723 c 1,17,-1
 727 0 l 1,18,-1
 553 0 l 1,19,-1
 553 1331 l 1,20,-1
 41 1331 l 1,21,-1
 41 1434 l 1,0,-1
EndSplineSet
Validated: 1
EndChar

StartChar: afii10145
Encoding: 1039 1039 421
Width: 1413
VWidth: 0
Flags: W
HStem: 0 102<266 487 672 893> 1393 41G<92 266 893 1067>
VStem: 92 174<102 1434> 530 98<-315 -38> 893 174<102 1434>
CounterMasks: 1 38
AnchorPoint: "top" 565 1434 basechar 0
LayerCount: 2
Fore
SplineSet
92 0 m 1,0,-1
 92 1434 l 1,1,-1
 266 1434 l 1,2,-1
 266 102 l 1,3,-1
 893 102 l 1,4,-1
 893 1434 l 1,5,-1
 1067 1434 l 1,6,-1
 1067 0 l 1,7,-1
 694 0 l 1,8,9
 655 -39 655 -39 636 -193 c 0,10,11
 629 -250 629 -250 629 -315 c 1,12,-1
 530 -315 l 1,13,14
 530 -211 530 -211 513.5 -132.5 c 128,-1,15
 497 -54 497 -54 481 -27 c 2,16,-1
 465 0 l 1,17,-1
 92 0 l 1,0,-1
EndSplineSet
Validated: 1
EndChar

StartChar: afii10018
Encoding: 1041 1041 422
Width: 1116
VWidth: 0
Flags: W
HStem: 0 102<348 734> 799 102<348 737> 1331 102<348 858>
VStem: 174 174<102 799 901 1331> 864 174<260 638>
AnchorPoint: "top" 604 1434 basechar 0
LayerCount: 2
Fore
SplineSet
348 799 m 1,0,-1
 348 102 l 1,1,-1
 614 102 l 2,2,3
 676 102 676 102 726 137 c 128,-1,4
 776 172 776 172 805 226 c 0,5,6
 864 337 864 337 864 435.5 c 128,-1,7
 864 534 864 534 839 609.5 c 128,-1,8
 814 685 814 685 755 742 c 128,-1,9
 696 799 696 799 614 799 c 2,10,-1
 348 799 l 1,0,-1
348 901 m 1,11,-1
 580 901 l 2,12,13
 681 901 681 901 769 861 c 128,-1,14
 857 821 857 821 915 757 c 0,15,16
 1038 621 1038 621 1038 457 c 0,17,18
 1038 322 1038 322 972 208 c 0,19,20
 850 0 850 0 584 0 c 2,21,-1
 174 0 l 1,22,-1
 174 1434 l 1,23,-1
 858 1434 l 1,24,-1
 858 1331 l 1,25,-1
 348 1331 l 1,26,-1
 348 901 l 1,11,-1
EndSplineSet
Validated: 1
EndChar

StartChar: afii10020
Encoding: 1043 1043 423
Width: 1038
VWidth: 0
Flags: W
HStem: 0 43G<174 348> 1331 102<348 1001>
VStem: 174 174<0 1331>
AnchorPoint: "top" 604 1434 basechar 0
LayerCount: 2
Fore
SplineSet
348 0 m 1,0,-1
 174 0 l 1,1,-1
 174 1434 l 1,2,-1
 1001 1434 l 1,3,-1
 1001 1331 l 1,4,-1
 348 1331 l 1,5,-1
 348 0 l 1,0,-1
EndSplineSet
Validated: 1
EndChar

StartChar: afii10021
Encoding: 1044 1044 424
Width: 1310
VWidth: 0
Flags: W
HStem: -141 244<66 202 1024 1178> 0 102<360 850> 1331 102<440 479 642 850 1024 1067>
VStem: 66 164<-141 0> 479 166<1016 1331> 850 174<102 1331> 1014 164<-141 0>
AnchorPoint: "top" 748 1434 basechar 0
LayerCount: 2
Fore
SplineSet
440 1434 m 1,0,-1
 1067 1434 l 1,1,-1
 1067 1331 l 1,2,-1
 1024 1331 l 1,3,-1
 1024 102 l 1,4,-1
 1178 102 l 1,5,-1
 1178 -141 l 1,6,-1
 1014 -141 l 1,7,-1
 1014 0 l 1,8,-1
 229 0 l 1,9,-1
 229 -141 l 1,10,-1
 66 -141 l 1,11,-1
 66 102 l 1,12,-1
 184 102 l 1,13,14
 250 243 250 243 314 461 c 0,15,16
 435 872 435 872 479 1331 c 1,17,-1
 440 1331 l 1,18,-1
 440 1434 l 1,0,-1
850 1331 m 1,19,-1
 645 1331 l 1,20,21
 594 804 594 804 428 293 c 0,22,23
 394 187 394 187 360 102 c 1,24,-1
 850 102 l 1,25,-1
 850 1331 l 1,19,-1
EndSplineSet
Validated: 1
EndChar

StartChar: afii10024
Encoding: 1046 1046 425
Width: 1560
VWidth: 0
Flags: W
HStem: 0 43G<86 260 721 895 1356 1530> 1331 102<106 189 1427 1509>
VStem: 86 174<0 96> 721 174<0 666 778 1434> 1356 174<0 96>
CounterMasks: 1 38
AnchorPoint: "top" 811 1434 basechar 0
LayerCount: 2
Fore
SplineSet
895 666 m 1,0,-1
 895 0 l 1,1,-1
 721 0 l 1,2,-1
 721 666 l 1,3,4
 662 642 662 642 578 539 c 128,-1,5
 494 436 494 436 426 321.5 c 128,-1,6
 358 207 358 207 309 111.5 c 128,-1,7
 260 16 260 16 260 0 c 1,8,-1
 86 0 l 1,9,10
 86 27 86 27 129 118 c 128,-1,11
 172 209 172 209 238.5 320 c 128,-1,12
 305 431 305 431 401 544.5 c 128,-1,13
 497 658 497 658 586 717 c 1,14,15
 461 798 461 798 357 1003 c 0,16,17
 316 1084 316 1084 277 1160 c 0,18,19
 189 1331 189 1331 106 1331 c 1,20,-1
 106 1434 l 1,21,22
 257 1434 257 1434 363 1320 c 0,23,24
 455 1222 455 1222 528 1076 c 0,25,26
 621 892 621 892 654.5 844.5 c 128,-1,27
 688 797 688 797 721 778 c 1,28,-1
 721 1434 l 1,29,-1
 895 1434 l 1,30,-1
 895 778 l 1,31,32
 953 810 953 810 1024 950 c 0,33,34
 1054 1008 1054 1008 1088 1076 c 128,-1,35
 1122 1144 1122 1144 1163 1206 c 0,36,37
 1204 1268 1204 1268 1252 1320 c 0,38,39
 1358 1434 1358 1434 1509 1434 c 1,40,-1
 1509 1331 l 1,41,42
 1426 1331 1426 1331 1338 1160 c 0,43,44
 1298 1084 1298 1084 1258 1003 c 0,45,46
 1156 799 1156 799 1030 717 c 1,47,48
 1119 658 1119 658 1215 544.5 c 128,-1,49
 1311 431 1311 431 1377.5 320 c 128,-1,50
 1444 209 1444 209 1487 118 c 128,-1,51
 1530 27 1530 27 1530 0 c 1,52,-1
 1356 0 l 1,53,54
 1356 16 1356 16 1307 111.5 c 128,-1,55
 1258 207 1258 207 1190 321.5 c 128,-1,56
 1122 436 1122 436 1038 539 c 128,-1,57
 954 642 954 642 895 666 c 1,0,-1
EndSplineSet
Validated: 1
EndChar

StartChar: afii10025
Encoding: 1047 1047 426
Width: 1077
VWidth: 0
Flags: W
HStem: -20 102<332 660> 799 102<373 641> 1352 102<345 676>
VStem: 752 174<1000 1276> 813 174<263 622>
AnchorPoint: "top" 532 1434 basechar 0
LayerCount: 2
Fore
SplineSet
233 285 m 1,0,1
 256 177 256 177 324 129.5 c 128,-1,2
 392 82 392 82 524 82 c 0,3,4
 595 82 595 82 653 120 c 0,5,6
 710 158 710 158 744 216 c 0,7,8
 812 334 812 334 813 440 c 0,9,10
 813 505 813 505 791 567 c 128,-1,11
 769 629 769 629 743.5 666 c 128,-1,12
 718 703 718 703 686 733 c 0,13,14
 614 799 614 799 506 799 c 2,15,-1
 373 799 l 1,16,-1
 373 901 l 1,17,-1
 444 901 l 2,18,19
 602 901 602 901 677 968 c 128,-1,20
 752 1035 752 1035 752 1133 c 128,-1,21
 752 1231 752 1231 696 1291.5 c 128,-1,22
 640 1352 640 1352 532 1352 c 128,-1,23
 424 1352 424 1352 358 1317 c 128,-1,24
 292 1282 292 1282 281 1198 c 1,25,-1
 129 1239 l 1,26,27
 185 1342 185 1342 293 1398 c 128,-1,28
 401 1454 401 1454 514 1454 c 0,29,30
 707 1454 707 1454 816.5 1361 c 128,-1,31
 926 1268 926 1268 926 1137 c 0,32,33
 926 1047 926 1047 878 970.5 c 128,-1,34
 830 894 830 894 725 850 c 1,35,36
 920 760 920 760 974 544 c 0,37,38
 988 492 988 492 988 443 c 0,39,40
 988 390 988 390 971 329 c 0,41,42
 955 270 955 270 916.5 207.5 c 128,-1,43
 878 145 878 145 823.5 95 c 128,-1,44
 769 45 769 45 683 12.5 c 128,-1,45
 597 -20 597 -20 494 -20 c 0,46,47
 336 -20 336 -20 231.5 52 c 128,-1,48
 127 124 127 124 82 244 c 1,49,-1
 233 285 l 1,0,1
EndSplineSet
Validated: 1
EndChar

StartChar: afii10026
Encoding: 1048 1048 427
Width: 1406
VWidth: 0
Flags: W
HStem: 0 43G<174 348 1063 1237> 1393 41G<174 348 1063 1237>
VStem: 174 174<0 61 309 1434> 1063 174<0 1122 1372 1434>
AnchorPoint: "top" 694 1434 basechar 0
LayerCount: 2
Fore
SplineSet
1063 1434 m 1,0,-1
 1237 1434 l 1,1,-1
 1237 0 l 1,2,-1
 1063 0 l 1,3,-1
 1063 1122 l 1,4,-1
 348 61 l 1,5,-1
 348 0 l 1,6,-1
 174 0 l 1,7,-1
 174 1434 l 1,8,-1
 348 1434 l 1,9,-1
 348 309 l 1,10,-1
 1063 1372 l 1,11,-1
 1063 1434 l 1,0,-1
EndSplineSet
Validated: 1
EndChar

StartChar: afii10029
Encoding: 1051 1051 429
Width: 1280
VWidth: 0
Flags: W
HStem: -20 102<129 347> 0 43G<938 1112> 1331 102<557 938>
VStem: 383 174<111 1331> 938 174<0 1331>
AnchorPoint: "top" 743 1434 basechar 0
LayerCount: 2
Fore
SplineSet
938 0 m 1,0,-1
 938 1331 l 1,1,-1
 557 1331 l 1,2,-1
 557 260 l 2,3,4
 556 57 556 57 352 -4 c 0,5,6
 298 -20 298 -20 242 -20 c 0,7,8
 112 -20 112 -20 35 72 c 1,9,-1
 164 133 l 1,10,11
 200 82 200 82 266 82 c 128,-1,12
 332 82 332 82 357.5 140.5 c 128,-1,13
 383 199 383 199 383 328 c 2,14,-1
 383 1434 l 1,15,-1
 1112 1434 l 1,16,-1
 1112 0 l 1,17,-1
 938 0 l 1,0,-1
EndSplineSet
Validated: 1
EndChar

StartChar: afii10033
Encoding: 1055 1055 430
Width: 1318
VWidth: 0
Flags: W
HStem: 0 43G<174 348 975 1149> 1331 102<348 975>
VStem: 174 174<0 1331> 975 174<0 1331>
AnchorPoint: "top" 657 1434 basechar 0
LayerCount: 2
Fore
SplineSet
174 0 m 9,0,-1
 174 1434 l 1,1,-1
 1149 1434 l 1,2,-1
 1149 0 l 1,3,-1
 975 0 l 1,4,-1
 975 1331 l 1,5,-1
 348 1331 l 1,6,-1
 348 0 l 1,7,-1
 174 0 l 9,0,-1
EndSplineSet
Validated: 1
EndChar

StartChar: afii10037
Encoding: 1059 1059 431
Width: 1081
VWidth: 0
Flags: W
HStem: -20 102<277 402> 1393 41G<82 246 874 1063>
AnchorPoint: "top" 571 1434 basechar 0
LayerCount: 2
Fore
SplineSet
313 -20 m 0,0,1
 258 -20 258 -20 212 13 c 128,-1,2
 166 46 166 46 102 115 c 1,3,-1
 233 180 l 1,4,5
 292 98 292 98 320 86 c 0,6,7
 330 82 330 82 344 82 c 0,8,9
 384 82 384 82 417 149 c 0,10,11
 431 177 431 177 469 283 c 1,12,-1
 485 328 l 1,13,-1
 82 1434 l 1,14,-1
 231 1434 l 1,15,-1
 559 532 l 1,16,-1
 889 1434 l 1,17,-1
 1063 1434 l 1,18,-1
 641 279 l 2,19,20
 584 121 584 121 509.5 50.5 c 128,-1,21
 435 -20 435 -20 313 -20 c 0,0,1
EndSplineSet
Validated: 1
EndChar

StartChar: afii10038
Encoding: 1060 1060 432
Width: 1435
VWidth: 0
Flags: W
HStem: 0 43G<633 807> 188 106<513 633 807 926> 1143 104<499 633 807 911> 1393 41G<633 807>
VStem: 102 174<523 915> 633 174<0 194 295 1137 1243 1434> 1163 174<526 905>
CounterMasks: 1 0e
AnchorPoint: "top" 723 1434 basechar 0
LayerCount: 2
Fore
SplineSet
633 295 m 1,0,-1
 633 1143 l 1,1,2
 477 1121 477 1121 376.5 1006.5 c 128,-1,3
 276 892 276 892 276 720.5 c 128,-1,4
 276 549 276 549 378.5 436 c 128,-1,5
 481 323 481 323 633 295 c 1,0,-1
633 1247 m 1,6,-1
 633 1434 l 1,7,-1
 807 1434 l 1,8,-1
 807 1241 l 1,9,10
 1117 1194 1117 1194 1263 970 c 0,11,12
 1337 856 1337 856 1337 715.5 c 128,-1,13
 1337 575 1337 575 1264.5 460 c 128,-1,14
 1192 345 1192 345 1073 277 c 128,-1,15
 954 209 954 209 807 190 c 1,16,-1
 807 0 l 1,17,-1
 633 0 l 1,18,-1
 633 188 l 1,19,20
 472 208 472 208 336 302 c 0,21,22
 102 464 102 464 102 717 c 0,23,24
 102 828 102 828 148 925 c 128,-1,25
 194 1022 194 1022 270 1088 c 0,26,27
 427 1226 427 1226 633 1247 c 1,6,-1
807 1137 m 1,28,-1
 807 295 l 1,29,30
 958 324 958 324 1060.5 437.5 c 128,-1,31
 1163 551 1163 551 1163 716.5 c 128,-1,32
 1163 882 1163 882 1063.5 993.5 c 128,-1,33
 964 1105 964 1105 807 1137 c 1,28,-1
EndSplineSet
Validated: 1
EndChar

StartChar: afii10040
Encoding: 1062 1062 433
Width: 1413
VWidth: 0
Flags: W
HStem: 0 102<348 975> 1393 41G<174 348 975 1149>
VStem: 174 174<102 1434> 975 174<102 1434> 1182 98<-315 -38>
AnchorPoint: "top" 647 1434 basechar 0
LayerCount: 2
Fore
SplineSet
1182 -315 m 1,0,1
 1182 -94 1182 -94 1116 0 c 1,2,-1
 174 0 l 1,3,-1
 174 1434 l 1,4,-1
 348 1434 l 1,5,-1
 348 102 l 1,6,-1
 975 102 l 1,7,-1
 975 1434 l 1,8,-1
 1149 1434 l 1,9,-1
 1149 102 l 5,10,-1
 1280 102 l 1,11,-1
 1280 -315 l 1,12,-1
 1182 -315 l 1,0,1
EndSplineSet
Validated: 1
EndChar

StartChar: afii10041
Encoding: 1063 1063 434
Width: 1165
VWidth: 0
Flags: W
HStem: 0 43G<821 995> 522 102<425 746> 1393 41G<123 297 821 995>
VStem: 123 174<791 1434> 821 174<0 573 688 1434>
AnchorPoint: "top" 565 1434 basechar 0
LayerCount: 2
Fore
SplineSet
821 721 m 1,0,-1
 821 1434 l 1,1,-1
 995 1434 l 1,2,-1
 995 0 l 1,3,-1
 821 0 l 1,4,-1
 821 573 l 1,5,6
 777 550 777 550 696 536 c 128,-1,7
 615 522 615 522 551 522 c 0,8,9
 333 522 333 522 228 656.5 c 128,-1,10
 123 791 123 791 123 1085 c 2,11,-1
 123 1434 l 1,12,-1
 297 1434 l 1,13,-1
 297 1110 l 2,14,15
 297 710 297 710 463 644 c 0,16,17
 509 625 509 625 575 625 c 0,18,19
 578 625 578 625 582 625 c 0,20,21
 710 625 710 625 821 721 c 1,0,-1
EndSplineSet
Validated: 1
EndChar

StartChar: afii10042
Encoding: 1064 1064 435
Width: 1656
VWidth: 0
Flags: W
HStem: 0 102<348 743 918 1313> 1393 41G<174 348 743 918 1313 1487>
VStem: 174 174<102 1434> 743 174<102 1434> 1313 174<102 1434>
CounterMasks: 1 38
AnchorPoint: "top" 834 1434 basechar 0
LayerCount: 2
Fore
SplineSet
1487 1434 m 1,0,-1
 1487 0 l 1,1,-1
 174 0 l 1,2,-1
 174 1434 l 1,3,-1
 348 1434 l 1,4,-1
 348 102 l 1,5,-1
 743 102 l 1,6,-1
 743 1434 l 1,7,-1
 918 1434 l 1,8,-1
 918 102 l 1,9,-1
 1313 102 l 1,10,-1
 1313 1434 l 1,11,-1
 1487 1434 l 1,0,-1
EndSplineSet
Validated: 1
EndChar

StartChar: afii10043
Encoding: 1065 1065 436
Width: 1751
VWidth: 0
Flags: W
HStem: 0 102<348 743 918 1313> 1393 41G<174 348 743 918 1313 1487>
VStem: 174 174<102 1434> 743 174<102 1434> 1313 174<102 1434> 1520 98<-315 -38>
AnchorPoint: "top" 834 1434 basechar 0
LayerCount: 2
Fore
SplineSet
1520 -315 m 1,0,1
 1520 -94 1520 -94 1454 0 c 5,2,-1
 174 0 l 1,3,-1
 174 1434 l 1,4,-1
 348 1434 l 1,5,-1
 348 102 l 1,6,-1
 743 102 l 1,7,-1
 743 1434 l 1,8,-1
 918 1434 l 1,9,-1
 918 102 l 1,10,-1
 1313 102 l 1,11,-1
 1313 1434 l 1,12,-1
 1487 1434 l 1,13,-1
 1487 102 l 1,14,-1
 1618 102 l 1,15,-1
 1618 -315 l 1,16,-1
 1520 -315 l 1,0,1
EndSplineSet
Validated: 1
EndChar

StartChar: afii10044
Encoding: 1066 1066 437
Width: 1271
VWidth: 0
Flags: W
HStem: 0 102<530 916> 799 102<530 920> 1331 102<41 356>
VStem: 356 174<102 799 901 1331> 1047 174<260 638>
AnchorPoint: "top" 444 1434 basechar 0
LayerCount: 2
Fore
SplineSet
1188 614.5 m 128,-1,1
 1221 536 1221 536 1221 464.5 c 128,-1,2
 1221 393 1221 393 1205 330 c 0,3,4
 1190 268 1190 268 1154 208 c 128,-1,5
 1118 148 1118 148 1066 102 c 0,6,7
 951 0 951 0 766 0 c 2,8,-1
 356 0 l 1,9,-1
 356 1331 l 1,10,-1
 41 1331 l 1,11,-1
 41 1434 l 1,12,-1
 530 1434 l 1,13,-1
 530 901 l 1,14,-1
 762 901 l 2,15,16
 863 901 863 901 951.5 861 c 128,-1,17
 1040 821 1040 821 1097.5 757 c 128,-1,0
 1155 693 1155 693 1188 614.5 c 128,-1,1
530 799 m 1,18,-1
 530 102 l 1,19,-1
 797 102 l 2,20,21
 859 102 859 102 909 137 c 128,-1,22
 959 172 959 172 988 226 c 0,23,24
 1047 337 1047 337 1047 435.5 c 128,-1,25
 1047 534 1047 534 1022 609.5 c 128,-1,26
 997 685 997 685 938 742 c 128,-1,27
 879 799 879 799 797 799 c 2,28,-1
 530 799 l 1,18,-1
EndSplineSet
Validated: 1
EndChar

StartChar: afii10046
Encoding: 1068 1068 439
Width: 1089
VWidth: 0
Flags: W
HStem: 0 102<348 734> 799 102<348 737> 1393 41G<174 348>
VStem: 174 174<102 799 901 1434> 864 174<260 638>
AnchorPoint: "top" 506 1434 basechar 0
LayerCount: 2
Fore
SplineSet
348 799 m 1,0,-1
 348 102 l 1,1,-1
 614 102 l 2,2,3
 676 102 676 102 726 137 c 128,-1,4
 776 172 776 172 805 226 c 0,5,6
 864 337 864 337 864 435.5 c 128,-1,7
 864 534 864 534 839 609.5 c 128,-1,8
 814 685 814 685 755 742 c 128,-1,9
 696 799 696 799 614 799 c 2,10,-1
 348 799 l 1,0,-1
1005.5 614.5 m 128,-1,12
 1038 536 1038 536 1038 464.5 c 128,-1,13
 1038 393 1038 393 1022 330 c 0,14,15
 1008 268 1008 268 972 208 c 128,-1,16
 936 148 936 148 884 102 c 0,17,18
 769 0 769 0 584 0 c 2,19,-1
 174 0 l 1,20,-1
 174 1434 l 1,21,-1
 348 1434 l 1,22,-1
 348 901 l 1,23,-1
 580 901 l 2,24,25
 681 901 681 901 769 861 c 128,-1,26
 857 821 857 821 915 757 c 128,-1,11
 973 693 973 693 1005.5 614.5 c 128,-1,12
EndSplineSet
Validated: 1
EndChar

StartChar: afii10047
Encoding: 1069 1069 440
Width: 1347
VWidth: 0
Flags: W
HStem: -20 102<364 772> 713 102<569 1071> 1352 102<416 820>
VStem: 1075 174<440 713 815 1026>
AnchorPoint: "top" 635 1434 basechar 0
LayerCount: 2
Fore
SplineSet
102 209 m 1,0,-1
 223 264 l 1,1,2
 265 199 265 199 306 163 c 0,3,4
 398 82 398 82 610 82 c 0,5,6
 742 82 742 82 858 176 c 0,7,8
 1073 349 1073 349 1075 713 c 1,9,-1
 569 713 l 1,10,-1
 569 815 l 1,11,-1
 1071 815 l 1,12,13
 1051 1077 1051 1077 936 1214.5 c 128,-1,14
 821 1352 821 1352 660.5 1352 c 128,-1,15
 500 1352 500 1352 410 1306 c 128,-1,16
 320 1260 320 1260 262 1178 c 1,17,-1
 109 1245 l 1,18,19
 161 1309 161 1309 221 1352 c 128,-1,20
 281 1395 281 1395 383 1424.5 c 128,-1,21
 485 1454 485 1454 617 1454 c 128,-1,22
 749 1454 749 1454 860.5 1410 c 128,-1,23
 972 1366 972 1366 1060 1278.5 c 128,-1,24
 1148 1191 1148 1191 1198.5 1047 c 128,-1,25
 1249 903 1249 903 1249 735.5 c 128,-1,26
 1249 568 1249 568 1212.5 444.5 c 128,-1,27
 1176 321 1176 321 1113 236 c 0,28,29
 1050 150 1050 150 964 92 c 0,30,31
 800 -20 800 -20 580 -20 c 1,32,33
 280 -20 280 -20 102 209 c 1,0,-1
EndSplineSet
Validated: 1
EndChar

StartChar: afii10048
Encoding: 1070 1070 441
Width: 1722
VWidth: 0
Flags: W
HStem: -20 102<905 1199> 0 43G<174 348> 713 102<348 471> 1352 102<882 1193> 1393 41G<174 348>
VStem: 174 174<0 713 815 1434> 471 174<419 713 815 1022> 1450 174<414 1026>
AnchorPoint: "top" 664 1434 basechar 0
LayerCount: 2
Fore
SplineSet
1152.5 1329.5 m 128,-1,1
 1092 1352 1092 1352 1031 1352 c 128,-1,2
 970 1352 970 1352 916 1327.5 c 128,-1,3
 862 1303 862 1303 812.5 1251.5 c 128,-1,4
 763 1200 763 1200 726 1126 c 0,5,6
 645 965 645 965 645 717 c 0,7,8
 645 353 645 353 833 176 c 0,9,10
 968 91 968 91 1044 82 c 1,11,12
 1204 82 1204 82 1322 237 c 0,13,14
 1380 313 1380 313 1415 437.5 c 128,-1,15
 1450 562 1450 562 1450 705 c 128,-1,16
 1450 848 1450 848 1426.5 955.5 c 128,-1,17
 1403 1063 1403 1063 1363 1135.5 c 128,-1,18
 1323 1208 1323 1208 1268 1257.5 c 128,-1,0
 1213 1307 1213 1307 1152.5 1329.5 c 128,-1,1
475 815 m 1,19,20
 504 1188 504 1188 724 1356 c 0,21,22
 852 1454 852 1454 997 1454 c 128,-1,23
 1142 1454 1142 1454 1250.5 1410 c 128,-1,24
 1359 1366 1359 1366 1443.5 1278.5 c 128,-1,25
 1528 1191 1528 1191 1576 1047 c 128,-1,26
 1624 903 1624 903 1624 716.5 c 128,-1,27
 1624 530 1624 530 1579 386 c 0,28,29
 1534 244 1534 244 1454 156 c 0,30,31
 1293 -19 1293 -19 1032 -20 c 0,32,33
 856 -20 856 -20 718 92 c 0,34,35
 474 289 474 289 471 713 c 1,36,-1
 348 713 l 1,37,-1
 348 0 l 1,38,-1
 174 0 l 1,39,-1
 174 1434 l 1,40,-1
 348 1434 l 1,41,-1
 348 815 l 1,42,-1
 475 815 l 1,19,20
EndSplineSet
Validated: 1
EndChar

StartChar: afii10049
Encoding: 1071 1071 442
Width: 1228
VWidth: 0
Flags: W
HStem: 0 119<86 161> 655 102<625 885> 1331 102<476 885>
VStem: 195 174<873 1217> 885 174<0 655 758 1331>
AnchorPoint: "top" 672 1434 basechar 0
LayerCount: 2
Fore
SplineSet
885 1331 m 1,0,-1
 608 1331 l 2,1,2
 436 1331 436 1331 382 1141 c 0,3,4
 368 1095 368 1095 368 1047 c 0,5,6
 368 996 368 996 382 947 c 0,7,8
 396 900 396 900 423 856 c 0,9,10
 484 758 484 758 608 758 c 2,11,-1
 885 758 l 1,12,-1
 885 1331 l 1,0,-1
469 680 m 1,13,14
 376 710 376 710 312 774 c 0,15,16
 195 890 195 890 195 1046 c 0,17,18
 195 1226 195 1226 340 1344 c 0,19,20
 451 1434 451 1434 639 1434 c 2,21,-1
 1059 1434 l 1,22,-1
 1059 0 l 1,23,-1
 885 0 l 1,24,-1
 885 655 l 1,25,-1
 657 655 l 1,26,27
 614 604 614 604 564 499.5 c 128,-1,28
 514 395 514 395 481 329 c 128,-1,29
 448 263 448 263 409 206 c 128,-1,30
 370 149 370 149 324 102 c 0,31,32
 224 0 224 0 86 0 c 1,33,-1
 86 119 l 1,34,35
 136 120 136 120 184 180 c 0,36,37
 230 240 230 240 266 320 c 0,38,39
 378 570 378 570 469 680 c 1,13,14
EndSplineSet
Validated: 1
EndChar

StartChar: afii10066
Encoding: 1073 1073 443
Width: 1030
VWidth: 0
Flags: W
HStem: -20 102<393 652> 819 102<342 652> 1202 102<408 709>
VStem: 90 164<261 735> 758 68<1358 1376> 780 164<240 664>
AnchorPoint: "top" 539 1434 basechar 0
LayerCount: 2
Fore
SplineSet
639 1192 m 1,0,-1
 506 1202 l 1,1,2
 433 1202 433 1202 374 1120.5 c 128,-1,3
 315 1039 315 1039 283 866 c 1,4,5
 392 922 392 922 505 922 c 128,-1,6
 618 922 618 922 705.5 885 c 128,-1,7
 793 848 793 848 844 782 c 0,8,9
 944 653 944 653 944 451 c 0,10,11
 944 323 944 323 889.5 216 c 128,-1,12
 835 109 835 109 732.5 44.5 c 128,-1,13
 630 -20 630 -20 500 -20 c 0,14,15
 388 -20 388 -20 312 29 c 128,-1,16
 236 78 236 78 192.5 139 c 128,-1,17
 149 200 149 200 119.5 311 c 128,-1,18
 90 422 90 422 90 596.5 c 128,-1,19
 90 771 90 771 143 939 c 128,-1,20
 196 1107 196 1107 292 1206 c 128,-1,21
 388 1305 388 1305 506 1305 c 2,22,-1
 557 1305 l 2,23,24
 618 1305 618 1305 679 1331.5 c 128,-1,25
 740 1358 740 1358 758 1397 c 1,26,-1
 825 1370 l 1,27,28
 809 1261 809 1261 718 1211 c 0,29,30
 683 1192 683 1192 639 1192 c 1,0,-1
258 657 m 1,31,32
 254 563 254 563 254 504 c 0,33,34
 254 290 254 290 334 186 c 128,-1,35
 414 82 414 82 530 82 c 0,36,37
 709 82 709 82 765 320 c 0,38,39
 780 384 780 384 780 463.5 c 128,-1,40
 780 543 780 543 755 624 c 128,-1,41
 730 705 730 705 671 762 c 128,-1,42
 612 819 612 819 530 819 c 0,43,44
 526 819 l 0,45,46
 359 819 359 819 290 734 c 0,47,48
 264 702 264 702 258 657 c 1,31,32
EndSplineSet
Validated: 1
EndChar

StartChar: afii10067
Encoding: 1074 1074 444
Width: 942
VWidth: 0
Flags: W
HStem: 0 102<287 643> 440 102<287 569> 799 102<287 575>
VStem: 123 164<102 440 543 799> 610 164<583 761> 696 164<151 369>
AnchorPoint: "top" 438 1004 basechar 0
LayerCount: 2
Fore
SplineSet
287 440 m 1,0,-1
 287 102 l 1,1,-1
 506 102 l 2,2,3
 600 102 600 102 648 145 c 128,-1,4
 696 188 696 188 696 264 c 128,-1,5
 696 340 696 340 628.5 390 c 128,-1,6
 561 440 561 440 446 440 c 2,7,-1
 287 440 l 1,0,-1
631 508 m 1,8,9
 741 489 741 489 800.5 415 c 128,-1,10
 860 341 860 341 860 276.5 c 128,-1,11
 860 212 860 212 843 169 c 128,-1,12
 826 126 826 126 785 86 c 0,13,14
 697 0 697 0 465 0 c 2,15,-1
 123 0 l 1,16,-1
 123 901 l 1,17,-1
 375 901 l 2,18,19
 774 901 774 901 774 666 c 0,20,21
 774 574 774 574 709 538 c 0,22,23
 679 522 679 522 631 508 c 1,8,9
287 799 m 1,24,-1
 287 543 l 1,25,-1
 422 543 l 2,26,27
 564 543 564 543 602 628 c 0,28,29
 610 647 610 647 610 669 c 128,-1,30
 610 691 610 691 604 711 c 0,31,32
 598 730 598 730 579 752 c 0,33,34
 540 798 540 798 416 799 c 2,35,-1
 287 799 l 1,24,-1
EndSplineSet
Validated: 1
EndChar

StartChar: afii10068
Encoding: 1075 1075 445
Width: 768
VWidth: 0
Flags: W
HStem: 0 43G<123 287> 799 102<287 715>
VStem: 123 164<0 799>
AnchorPoint: "top" 422 1004 basechar 0
LayerCount: 2
Fore
SplineSet
287 0 m 1,0,-1
 123 0 l 1,1,-1
 123 901 l 1,2,-1
 715 901 l 1,3,-1
 715 799 l 1,4,-1
 287 799 l 1,5,-1
 287 0 l 1,0,-1
EndSplineSet
Validated: 1
EndChar

